<svg width="389" height="904" viewBox="0 0 389 904" fill="none" xmlns="http://www.w3.org/2000/svg">
<path d="M370.244 361.161C370.074 309.859 343.846 279.278 302.723 252.496C258.314 223.559 211.365 196.563 161.258 178.808C113.947 162.056 56.8398 161.138 35.8622 217.498C22.8659 252.411 40.365 294.089 53.6174 326.739C82.2348 397.184 134.967 453.779 136.525 532.631C138.275 620.959 89.021 701.711 90.3654 788.737C90.963 826.68 114.672 857.368 143.482 880.415C181.51 910.825 225.919 909.993 265.89 884.064C272.015 880.095 277.841 875.72 283.475 871.09C292.203 863.898 298.733 854.337 302.019 843.518C319.006 787.627 315.186 726.487 314.098 668.89C312.775 599.619 313.458 531.586 341.584 467.095C356.224 433.505 370.074 398.358 370.266 361.183L370.244 361.161Z" stroke="white" stroke-miterlimit="10"/>
<path d="M167.66 895.589C138.083 881.803 104.621 849.088 94.5696 817.782C80.6983 774.589 99.6059 723.543 110.98 681.929C121.693 642.748 132.321 603.268 135.564 562.636C138.488 526.165 136.93 482.695 119.452 449.724C101.505 415.857 79.5459 384.551 63.4766 349.467C50.4804 321.085 37.7188 290.461 32.6611 259.475C23.8262 205.313 69.516 158.983 123.913 168.266C175.407 177.037 225.642 205.74 269.902 232.181C311.11 256.786 355.946 280.346 366.873 331.029C368.815 340.078 369.946 349.318 370.074 358.601C371.205 425.61 327.222 482.695 318.11 548.103C308.485 617.161 316.872 687.136 314.354 756.513" stroke="white" stroke-miterlimit="10"/>
<path d="M94.5053 817.931C80.6127 774.717 99.5416 723.649 110.916 682.014C121.629 642.812 132.256 603.311 135.522 562.657C138.445 526.165 136.887 482.695 119.41 449.681C101.462 415.793 79.503 384.465 63.4123 349.36C50.3947 320.956 37.6333 290.333 32.5756 259.325C23.7194 205.142 69.4517 158.791 123.891 168.074C175.407 176.866 225.685 205.569 269.944 232.01C311.174 256.636 356.031 280.196 366.979 330.901C368.942 339.971 370.052 349.211 370.201 358.473C371.332 425.524 327.329 482.61 318.216 548.06C308.592 617.161 316.979 687.157 314.46 756.577" stroke="white" stroke-miterlimit="10"/>
<path d="M314.013 668.761C312.69 599.512 313.372 531.522 341.478 467.074C356.117 433.505 369.967 398.379 370.138 361.204C369.967 309.923 343.761 279.364 302.66 252.582C258.272 223.665 211.344 196.691 161.258 178.936C113.968 162.184 56.8827 161.288 35.9264 217.605C22.9301 252.496 40.4291 294.153 53.6815 326.803C82.2776 397.227 134.988 453.779 136.546 532.589C138.296 620.874 89.0639 701.583 90.4083 788.566" stroke="white" stroke-miterlimit="10"/>
<path d="M146.341 341.785C143.055 325.203 143.759 306.381 155.539 293.257C158.398 291.315 161.258 289.352 164.096 287.388C209.487 268.907 269.39 315.259 281.916 357.299C294.827 400.578 273.743 451.816 247.879 486.131C245.595 488.052 243.482 490.207 241.669 492.533C239.193 494.176 236.675 495.756 234.135 497.292L223.273 496.396C220.798 494.881 218.493 493.131 216.338 491.167C214.609 488.905 212.731 486.643 210.768 484.552C182.001 444.923 156.585 389.63 146.32 341.806L146.341 341.785Z" stroke="white" stroke-miterlimit="10"/>
<path d="M184.391 779.944C145.36 735.236 192.735 642.598 195.851 591.232C196.214 586.963 196.406 582.717 196.449 578.427C196.875 519.656 174.233 463.189 149.286 410.713C126.602 363.039 74.6805 237.408 177.264 252.517C247.345 262.846 316.83 319.483 308.55 394.922C301.721 457.107 264.61 512.55 253.022 573.711C246.748 606.81 248.22 641.019 248.519 674.587C248.797 708.668 251.357 758.988 222.953 783.551C215.783 789.057 207.354 791.383 198.455 789.313C195.382 787.798 192.309 786.304 189.257 784.789L184.413 779.966L184.391 779.944Z" stroke="white" stroke-miterlimit="10"/>
<path d="M147.195 774.161C140.259 728.344 156.84 682.633 165.611 638.245C173.038 600.686 177.434 563.148 172.611 524.991C166.998 480.603 150.246 441.465 130.058 401.836C110.34 363.103 78.9054 304.182 95.9137 259.795C117.403 203.733 195.744 235.381 232.855 254.63C276.859 277.443 320.35 310.072 325.451 363.018C330.103 411.354 305.946 457.385 291.413 502.05C279.014 540.164 272.889 579.921 271.523 619.892C269.966 665.39 274.063 711.527 266.487 756.726C262.667 779.518 255.219 805.916 236.034 820.705C212.496 838.865 181.296 831.994 163.072 809.949C154.472 799.556 150.097 787.2 147.195 774.183V774.161Z" stroke="white" stroke-miterlimit="10"/>
<path d="M130.251 780.585C121.928 731.502 144.122 677.532 153.704 629.965C162.197 587.796 165.996 544.987 158.398 502.349C149.905 454.696 124.489 415.494 104.173 372.365C85.4785 332.715 51.0778 253.99 98.1333 221.446C142.649 190.63 215.569 231.049 254.729 254.289C301.763 282.202 340.539 318.054 338.191 376.825C336.206 426.634 310 471.747 297.794 519.272C286.654 562.657 284.904 606.917 284.584 651.476C284.243 697.848 288.041 746.654 275.386 791.831C257.738 854.892 184.626 879.071 144.421 819.168C136.631 807.559 132 794.435 130.272 780.585H130.251Z" stroke="white" stroke-miterlimit="10"/>
<path d="M125.214 813.47C104.407 764.622 126.559 705.915 138.21 657.387C149.073 612.231 157.651 565.965 153.042 519.379C147.685 465.494 120.967 424.585 97.6423 377.124C77.1983 335.553 40.7702 261.779 76.2806 219.248C114.352 173.622 190.388 210.605 231.98 232.095C279.462 256.615 335.374 287.921 345.937 344.942C356.501 401.964 327.286 448.294 311.814 498.188C298.156 542.277 294.251 588.052 293.995 633.998C293.675 687.178 298.605 742.962 286.718 795.331C272.463 858.114 207.865 896.015 153.106 849.749C141.305 839.783 131.702 827.491 125.214 813.47Z" stroke="white" stroke-miterlimit="10"/>
<path d="M134.668 845.908C91.5818 796.398 112.175 732.035 126.601 675.163C139.064 626.016 150.951 576.357 147.494 525.311C143.78 470.445 118.279 431.03 93.908 383.312C71.65 339.757 33.1306 267.37 61.1079 219.354C94.8683 161.394 174.873 196.776 219.923 218.714C265.314 240.823 327.862 270.977 347.325 320.444C369.199 376.014 341.883 430.56 323.146 482.225C306.992 526.741 301.571 573.498 300.867 620.596C300.056 675.953 305.242 732.484 296.663 787.478C291.989 817.354 283.88 846.313 258.165 864.73C231.916 883.531 199.244 888.14 169.965 873.714C156.393 867.035 144.698 857.175 134.689 845.908H134.668Z" stroke="white" stroke-miterlimit="10"/>
<path d="M101.825 791.255C98.2612 734.575 122.483 678.855 133.942 624.181C143.93 576.549 148.262 527.381 136.418 479.642C122.419 423.325 80.5061 374.84 60.3608 319.867C40.4289 265.449 33.7067 179.085 115.867 179.789C169.389 180.237 225.578 213.998 270.179 240.929C324.256 273.58 366.595 309.752 360.214 378.596C354.965 435.169 321.738 484.508 312.177 540.334C303.065 593.536 306.052 647.869 306.501 701.582C306.885 749.363 312.497 821.729 277.264 859.138C226.944 912.553 152.124 890.658 116.016 833.658C107.651 820.448 103.511 806.769 101.889 791.276L101.825 791.255Z" stroke="white" stroke-miterlimit="10"/>
<path d="M98.2827 805.531C89.8532 750.238 113.776 693.921 126.388 640.955C139 587.988 146.555 532.737 133.174 478.896C125.961 449.852 108.718 426.697 94.3773 400.811C79.6738 374.264 66.2935 346.991 55.666 318.566C45.0385 290.14 32.6397 256.486 41.1972 226.461C50.2028 194.877 79.9727 173.494 112.581 173.728C166.871 174.113 225.471 209.922 270.691 237.152C329.036 272.278 374.32 310.136 363.479 385.126C355.178 442.532 322.079 492.02 314.013 549.852C307.184 598.893 309.403 648.68 310.15 698.04C310.897 748.361 318.537 830.158 277.478 867.184C225.13 914.367 160.276 899.173 119.132 846.868C109.294 834.384 101.654 821.238 98.3254 805.553L98.2827 805.531Z" stroke="white" stroke-miterlimit="10"/>
<path d="M94.3986 804.635C86.8868 748.553 112.047 691.702 124.574 638.031C136.439 587.22 144.314 534.402 132.15 482.844C119.281 428.341 77.7958 380.922 56.6902 328.639C35.5846 276.355 14.4149 191.719 91.2189 171.958C144.89 158.15 215.889 202.538 260.256 228.317C312.945 258.92 365.464 289.116 367.982 356.722C370.287 418.289 331.618 470.211 319.71 528.726C308.336 584.531 312.07 642.107 312.668 698.638C313.201 748.873 321.759 833.765 279.996 870.193C224.426 918.636 159.871 903.697 116.251 848.789C105.517 835.28 97.5143 821.9 94.3986 804.678V804.635Z" stroke="white" stroke-miterlimit="10"/>
<path d="M123.315 59.067C125.492 -3.11883 40.7916 -16.7127 10.467 31.0044C-5.62365 56.3354 1.16262 84.2059 17.0399 107.574C30.3989 127.249 53.7026 157.745 80.6982 142.444C103.981 129.234 122.269 84.8675 123.336 59.0883L123.315 59.067Z" stroke="#00F772" stroke-miterlimit="10"/>
<path d="M123.357 58.2133C122.802 83.9285 107.181 117.027 89.2981 135.38C65.0554 160.263 40.7701 138.005 24.146 117.177C7.52185 96.3486 -5.51718 69.6518 4.74754 42.6349C15.0123 15.618 45.1449 -2.71338 74.5519 2.0882C101.804 6.52699 123.976 30.0654 123.357 58.2347V58.2133Z" stroke="#00F772" stroke-miterlimit="10"/>
<path d="M123.315 58.0216C122.76 83.7581 107.118 116.857 89.2343 135.231C64.9917 160.114 40.685 137.856 24.0395 117.006C7.39405 96.1568 -5.62363 69.4601 4.64108 42.4218C15.2046 14.6153 45.0598 -2.9478 74.4668 1.85379C101.74 6.29258 123.912 29.831 123.294 58.0216H123.315Z" stroke="#00F772" stroke-miterlimit="10"/>
<path d="M123.337 59.2588C125.513 -2.8844 40.8347 -16.4782 10.5314 31.1962C-5.55924 56.5059 1.24838 84.3764 17.1043 107.723C30.442 127.377 53.7457 157.873 80.7413 142.572C104.002 129.383 122.291 85.0166 123.358 59.2588H123.337Z" stroke="#00F772" stroke-miterlimit="10"/>
<path d="M37.5265 78.9349C28.841 55.994 50.0746 26.2669 75.2349 39.7967C97.0234 51.5125 91.7524 93.2756 67.4884 99.3363C53.6812 102.793 42.2428 90.7361 37.5265 78.9349Z" stroke="#00F772" stroke-miterlimit="10"/>
<path d="M27.8381 80.1522C15.8022 46.4344 53.9374 9.00343 85.3504 33.5235C109.358 52.2604 98.7309 107.169 66.8697 112.355C48.453 115.342 33.1946 95.5599 27.8381 80.1522Z" stroke="#00F772" stroke-miterlimit="10"/>
<path d="M28.5208 95.8577C5.77195 60.3687 31.9779 4.4783 78.564 21.6146C118.108 36.1687 108.889 90.9921 82.0425 113.57C61.7051 130.685 40.6635 114.765 28.5208 95.8577Z" stroke="#00F772" stroke-miterlimit="10"/>
<path d="M29.396 105.141C3.04064 71.2526 13.2412 13.3135 64.3514 13.8044C119.922 14.3379 116.55 77.8041 91.8166 110.327C71.8633 136.554 47.5993 128.893 29.396 105.141Z" stroke="#00F772" stroke-miterlimit="10"/>
<path d="M23.0579 102.345C-3.14807 63.7834 16.8479 3.88096 70.2841 10.2404C130.955 17.4748 119.986 97.0317 83.0456 126.247C59.3365 145.005 36.5023 122.043 23.0793 102.345H23.0579Z" stroke="#00F772" stroke-miterlimit="10"/>
<path d="M19.1311 101.151C-10.66 54.4153 29.8441 -14.8769 87.3777 11.9479C134.796 34.0566 117.745 101.77 84.5821 129.619C58.5682 151.471 32.9383 122.747 19.1311 101.151Z" stroke="#00F772" stroke-miterlimit="10"/>
<path d="M21.3079 107.958C-9.9344 64.5945 12.4943 -6.23416 75.0643 5.60974C137.634 17.4536 123.165 100.766 85.0302 132.905C60.1473 153.883 35.862 128.253 21.3079 107.958Z" stroke="#00F772" stroke-miterlimit="10"/>
<path d="M20.9878 110.007C-10.6386 67.3685 7.00982 -2.05176 69.3877 3.17663C139.341 9.02389 123.229 86.5108 93.7584 125.393C68.6194 158.556 40.5996 136.746 20.9878 110.007Z" stroke="#00F772" stroke-miterlimit="10"/>
<path d="M18.2777 107.958C1.84563 84.5475 -4.89794 55.7807 11.7262 30.5137C27.4327 6.63386 58.7391 -4.5485 85.7773 5.69488C142.756 27.2913 122.547 103.156 87.1431 135.786C60.4463 160.37 33.5147 129.874 18.2777 107.979V107.958Z" stroke="#00F772" stroke-miterlimit="10"/>
<path d="M19.0457 110.092C-13.9465 64.8291 8.78091 -8.00554 73.8263 1.91773C143.951 12.6093 125.129 97.2665 89.4049 134.527C62.9642 162.099 35.4778 132.926 19.067 110.113L19.0457 110.092Z" stroke="#00F772" stroke-miterlimit="10"/>
<path d="M210.234 74.8591C211.515 42.6778 166.273 36.8733 152.487 62.5244C142.244 81.5386 163.243 130.28 188.617 115.384C199.884 108.769 209.487 87.4712 210.256 74.8804L210.234 74.8591Z" stroke="white" stroke-miterlimit="10"/>
<path d="M210.234 74.497C209.167 100.66 183.111 134.186 161.066 105.867C144.207 84.1856 145.722 44.9406 181.468 46.029C196.662 46.4985 210.555 58.7265 210.213 74.497H210.234Z" stroke="white" stroke-miterlimit="10"/>
<path d="M210.256 74.3045C209.189 100.489 183.111 134.015 161.066 105.675C144.186 83.993 145.722 44.7268 181.489 45.8151C196.683 46.2846 210.597 58.5127 210.256 74.3045Z" stroke="white" stroke-miterlimit="10"/>
<path d="M210.234 75.0515C211.515 42.8916 166.294 37.087 152.509 62.7168C142.265 81.731 163.243 130.451 188.617 115.556C199.863 108.94 209.466 87.6637 210.234 75.0515Z" stroke="white" stroke-miterlimit="10"/>
<path d="M166.124 81.2395C163.158 62.3746 190.772 56.8901 192.949 76.5873C195.126 96.2844 169.624 102.025 166.124 81.2395Z" stroke="white" stroke-miterlimit="10"/>
<path d="M161.984 84.6548C156.606 67.2624 177.221 49.1657 192.223 62.9516C203.043 72.8749 196.406 100.041 180.486 101.45C171.139 102.282 164.374 92.6147 161.963 84.6548H161.984Z" stroke="white" stroke-miterlimit="10"/>
<path d="M163.328 94.7909C152.21 78.2948 160.533 50.8725 184.028 55.0978C207.524 59.3232 204.771 88.8583 189.812 100.766C179.696 108.812 170.093 105.696 163.328 94.7909Z" stroke="white" stroke-miterlimit="10"/>
<path d="M161.344 96.008C149.158 77.6979 158.569 48.1415 184.327 52.4949C210.085 56.8484 207.119 90.054 190.644 103.584C179.035 113.123 168.813 108.044 161.365 95.9866L161.344 96.008Z" stroke="white" stroke-miterlimit="10"/>
<path d="M159.743 96.7755C146.64 76.6515 157.972 44.897 185.778 50.7656C213.585 56.6342 208.357 91.5684 191.028 105.994C178.203 116.665 167.682 109.601 159.743 96.7968V96.7755Z" stroke="white" stroke-miterlimit="10"/>
<path d="M157.118 94.983C144.186 72.661 161.194 40.9065 189.086 50.0829C216.978 59.2592 208.89 95.7939 189.854 109.43C175.343 119.823 164.48 107.958 157.118 94.983Z" stroke="white" stroke-miterlimit="10"/>
<path d="M157.609 97.7792C143.226 75.2224 157.268 40.6297 187.72 48.5043C217.341 56.1442 210.106 93.8525 191.476 109.495C177.05 121.616 166.124 111.437 157.609 97.7792Z" stroke="white" stroke-miterlimit="10"/>
<path d="M159.274 101.663C143.674 79.8743 150.972 43.1689 183.922 46.9675C216.871 50.7661 211.28 89.4775 193.994 107.83C180.614 122.043 169.453 116.26 159.274 101.663Z" stroke="white" stroke-miterlimit="10"/>
<path d="M158.143 100.895C142.202 77.8049 153.213 39.819 186.76 46.8187C219.112 53.5836 211.174 91.2067 193.696 109.09C179.462 123.665 168.173 115.62 158.143 100.874V100.895Z" stroke="white" stroke-miterlimit="10"/>
<path d="M158.697 102.282C148.134 87.4506 144.293 68.3509 158.783 54.5864C173.785 40.6511 200.759 44.1296 208.42 64.403C214.204 79.6827 201.421 110.626 185.757 116.9C173.166 121.958 165.206 111.501 158.697 102.282Z" stroke="white" stroke-miterlimit="10"/>
<path d="M279.761 111.202C281.041 79.0206 235.8 73.216 222.014 98.8672C211.771 117.881 232.769 166.623 258.143 151.727C269.411 145.112 279.014 123.814 279.782 111.223L279.761 111.202Z" stroke="white" stroke-miterlimit="10"/>
<path d="M279.74 110.817C278.673 136.981 252.616 170.506 230.571 142.188C213.712 120.506 215.228 81.261 250.973 82.3493C266.167 82.8188 280.06 95.0469 279.718 110.817H279.74Z" stroke="white" stroke-miterlimit="10"/>
<path d="M279.782 110.668C278.715 136.853 252.637 170.379 230.593 142.039C213.713 120.357 215.249 81.0905 251.015 82.1789C266.21 82.6484 280.124 94.8764 279.782 110.668Z" stroke="white" stroke-miterlimit="10"/>
<path d="M279.718 111.372C280.999 79.2124 235.779 73.4078 221.993 99.0376C211.749 118.052 232.727 166.772 258.101 151.876C269.347 145.261 278.95 123.984 279.718 111.372Z" stroke="white" stroke-miterlimit="10"/>
<path d="M235.693 117.603C232.727 98.7383 260.341 93.2539 262.518 112.951C264.61 131.773 239.193 138.389 235.693 117.603Z" stroke="white" stroke-miterlimit="10"/>
<path d="M231.553 121.04C226.175 103.647 246.79 85.5505 261.792 99.3364C272.612 109.26 265.975 136.426 250.055 137.834C240.708 138.667 233.943 128.999 231.532 121.04H231.553Z" stroke="white" stroke-miterlimit="10"/>
<path d="M232.898 131.176C221.779 114.68 230.102 87.2572 253.598 91.4826C277.094 95.708 274.341 125.243 259.381 137.151C249.266 145.196 239.663 142.081 232.898 131.176Z" stroke="white" stroke-miterlimit="10"/>
<path d="M230.913 132.372C218.728 114.062 228.139 84.5053 253.896 88.8587C279.654 93.2122 276.688 126.418 260.213 139.948C248.604 149.487 238.382 144.408 230.934 132.35L230.913 132.372Z" stroke="white" stroke-miterlimit="10"/>
<path d="M229.312 133.139C216.209 113.015 227.541 81.2608 255.348 87.1294C283.154 92.998 277.926 127.932 260.597 142.358C247.772 153.028 237.251 145.965 229.312 133.161V133.139Z" stroke="white" stroke-miterlimit="10"/>
<path d="M226.666 131.325C213.734 109.003 230.742 77.2483 258.634 86.4247C285.352 95.1956 278.438 132.136 259.403 145.772C244.891 156.165 234.029 144.3 226.666 131.325Z" stroke="white" stroke-miterlimit="10"/>
<path d="M227.157 134.142C212.774 111.586 226.816 76.993 257.268 84.8676C287.721 92.7422 279.654 130.216 261.024 145.858C246.598 157.98 235.672 147.8 227.157 134.142Z" stroke="white" stroke-miterlimit="10"/>
<path d="M228.821 138.005C213.222 116.216 220.52 79.5107 253.47 83.3093C286.419 87.1079 280.828 125.819 263.542 144.172C250.162 158.385 239.001 152.601 228.821 138.005Z" stroke="white" stroke-miterlimit="10"/>
<path d="M227.669 137.257C211.728 114.167 222.739 76.1813 256.286 83.181C288.638 89.9459 280.7 127.569 263.222 145.452C248.988 160.028 237.699 151.982 227.669 137.236V137.257Z" stroke="white" stroke-miterlimit="10"/>
<path d="M228.224 138.624C212.048 115.918 220.093 77.7824 254.323 82.5413C288.553 87.3002 281.596 128.423 262.646 146.712C248.775 160.114 238.169 152.644 228.224 138.624Z" stroke="white" stroke-miterlimit="10"/>
<path d="M338.212 159.666C339.386 129.17 296.492 123.579 283.389 147.95C273.636 166.11 293.526 212.078 317.683 198.121C328.396 191.932 337.465 171.552 338.212 159.666Z" stroke="white" stroke-miterlimit="10"/>
<path d="M338.149 159.282C337.06 184.228 312.497 215.791 291.498 189.051C275.365 168.522 277.03 131.219 310.875 132.265C325.302 132.713 338.469 144.322 338.17 159.282H338.149Z" stroke="white" stroke-miterlimit="10"/>
<path d="M338.212 159.132C337.124 184.1 312.561 215.684 291.541 188.923C275.408 168.372 277.072 131.069 310.918 132.115C325.365 132.563 338.532 144.172 338.212 159.153V159.132Z" stroke="white" stroke-miterlimit="10"/>
<path d="M338.148 159.794C339.322 129.299 296.449 123.708 283.346 148.078C273.594 166.239 293.483 212.163 317.619 198.228C328.31 192.039 337.401 171.681 338.148 159.794Z" stroke="white" stroke-miterlimit="10"/>
<path d="M296.428 165.768C293.76 147.843 319.667 142.678 321.887 161.351C324.106 180.024 299.714 185.508 296.428 165.768Z" stroke="white" stroke-miterlimit="10"/>
<path d="M292.48 169.012C287.38 152.494 306.949 135.337 321.183 148.397C331.511 157.872 325.131 183.502 310.043 184.932C301.208 185.785 294.721 176.502 292.48 168.991V169.012Z" stroke="white" stroke-miterlimit="10"/>
<path d="M293.76 178.637C283.197 162.994 291.093 136.938 313.415 140.95C334.52 144.748 333.283 173.088 318.899 184.292C309.275 191.782 300.184 189.093 293.76 178.615V178.637Z" stroke="white" stroke-miterlimit="10"/>
<path d="M291.861 179.767C280.295 162.375 289.236 134.355 313.671 138.474C338.106 142.593 335.545 174.262 319.668 186.959C308.592 195.815 298.989 191.334 291.883 179.746L291.861 179.767Z" stroke="white" stroke-miterlimit="10"/>
<path d="M290.346 180.494C277.883 161.394 288.681 131.262 315.058 136.81C340.944 142.273 336.633 175.628 320.052 189.222C307.845 199.231 297.922 192.743 290.346 180.494Z" stroke="white" stroke-miterlimit="10"/>
<path d="M287.827 178.787C275.535 157.617 291.711 127.463 318.173 136.17C344.635 144.877 337.145 179.683 318.899 192.487C305.049 202.218 294.87 191.185 287.827 178.787Z" stroke="white" stroke-miterlimit="10"/>
<path d="M288.297 181.432C274.597 160.028 288.02 127.206 316.872 134.654C345.724 142.102 338.298 177.805 320.436 192.551C306.65 203.925 296.449 194.493 288.276 181.432H288.297Z" stroke="white" stroke-miterlimit="10"/>
<path d="M289.876 185.124C275.024 164.446 282.023 129.597 313.265 133.203C345.169 136.895 339.429 173.622 322.826 190.972C310.107 204.267 299.522 199.145 289.876 185.124Z" stroke="white" stroke-miterlimit="10"/>
<path d="M288.788 184.399C273.594 162.504 284.136 126.417 315.954 133.075C347.773 139.733 339.407 175.329 322.527 192.188C308.891 205.803 298.391 198.547 288.788 184.399Z" stroke="white" stroke-miterlimit="10"/>
<path d="M289.3 185.679C273.914 164.147 281.618 127.911 314.076 132.435C346.535 136.959 340.218 176.076 321.972 193.34C308.741 205.867 298.754 199.124 289.3 185.658V185.679Z" stroke="white" stroke-miterlimit="10"/>
<path d="M387.978 212.333C388.811 185.209 347.197 181.005 334.072 200.062C321.78 217.924 344.7 255.739 366.873 245.752C377.223 241.078 387.082 223.195 387.978 212.333Z" stroke="white" stroke-miterlimit="10"/>
<path d="M387.893 211.993C386.356 237.089 360.748 258.685 341.2 236.726C323.296 216.581 330.274 186.299 361.26 188.219C374.064 189.009 388 197.908 387.893 212.014V211.993Z" stroke="white" stroke-miterlimit="10"/>
<path d="M387.999 211.885C386.463 237.003 360.833 258.599 341.285 236.619C323.359 216.474 330.359 186.17 361.345 188.07C374.15 188.859 388.106 197.779 387.999 211.864V211.885Z" stroke="white" stroke-miterlimit="10"/>
<path d="M387.893 212.44C388.725 185.338 347.111 181.113 334.008 200.191C321.738 218.053 344.615 255.847 366.787 245.859C377.137 241.186 386.975 223.303 387.893 212.462V212.44Z" stroke="white" stroke-miterlimit="10"/>
<path d="M346.535 217.819C343.313 201.429 369.092 197.289 371.632 213.358C374.235 229.769 350.782 234.4 346.535 217.819Z" stroke="white" stroke-miterlimit="10"/>
<path d="M342.374 219.589C337.337 204.096 356.971 192.593 369.497 201.428C381.469 209.879 375.409 232.628 360.47 234.143C351.849 235.018 344.956 227.058 342.395 219.589H342.374Z" stroke="white" stroke-miterlimit="10"/>
<path d="M342.544 226.504C330.978 209.901 347.346 190.46 366.061 196.52C384.222 202.41 382.6 228.19 366.019 235.744C356.309 240.162 347.986 235.104 342.566 226.504H342.544Z" stroke="white" stroke-miterlimit="10"/>
<path d="M343.526 231.263C328.972 214.617 339.535 190.375 362.754 193.597C385.972 196.82 386.548 223.196 370.052 235.51C360.363 242.744 350.995 241.015 343.526 231.263Z" stroke="white" stroke-miterlimit="10"/>
<path d="M339.962 229.235C325.621 209.901 343.014 186.938 365.784 192.466C388.554 197.993 387.252 228.061 368.494 239.137C356.607 246.158 347.218 239.543 339.983 229.235H339.962Z" stroke="white" stroke-miterlimit="10"/>
<path d="M342.118 233.908C325.728 215.47 334.883 188.368 361.729 190.587C388.576 192.807 390.133 222.768 371.738 237.963C360.897 246.926 350.867 245.026 342.118 233.908Z" stroke="white" stroke-miterlimit="10"/>
<path d="M338.98 231.433C322.356 210.263 340.389 184.249 366.296 190.31C392.203 196.371 389.514 227.997 369.924 241.121C357.077 249.721 347.303 242.572 338.98 231.433Z" stroke="white" stroke-miterlimit="10"/>
<path d="M339.215 232.841C322.25 212.034 336.953 184.996 364.162 189.2C392.929 193.639 391.03 226.055 371.119 240.993C358.166 250.703 348.306 244.514 339.215 232.841Z" stroke="white" stroke-miterlimit="10"/>
<path d="M338.895 233.183C321.034 211.416 337.7 183.268 365.784 188.987C393.868 194.706 390.795 226.653 371.269 241.548C358.102 251.6 348.093 244.92 338.895 233.183Z" stroke="white" stroke-miterlimit="10"/>
<path d="M338.596 233.225C321.417 212.141 335.673 184.804 363.479 188.346C394.145 192.252 392.225 226.908 370.884 242.38C357.525 252.069 347.709 244.728 338.596 233.204V233.225Z" stroke="white" stroke-miterlimit="10"/>
</svg>
