<svg width="203" height="176" viewBox="0 0 203 176" fill="none" xmlns="http://www.w3.org/2000/svg">
<mask id="mask0_57_43" style="mask-type:alpha" maskUnits="userSpaceOnUse" x="0" y="0" width="203" height="176">
<path d="M41.5 112C41.5 134.75 48.75 141 74 141H129C155.5 141 161.5 135.25 161.5 111.75V65.5C161.5 40.25 153 34.5 128.25 34.5H74.75C48.75 34.5 41.5 41 41.5 65.75V112ZM203 116.25C203 159.5 188.75 175.5 140.25 175.5H64C17.5 175.5 0 158.25 0 116.25V61.75C0 14.25 16.75 0 64 0H140.25C183.25 0 203 13 203 61.75V116.25Z" fill="white"/>
</mask>
<g mask="url(#mask0_57_43)">
<path d="M101 -98.5H255V270.5H101V-98.5Z" fill="white"/>
</g>
<mask id="mask1_57_43" style="mask-type:alpha" maskUnits="userSpaceOnUse" x="0" y="0" width="203" height="176">
<path d="M185 60.5C185 26.25 174.75 17.5 140.25 17.5H64.25C31.75 17.5 18 26.75 18 60.5V116C18 149.25 30.5 158 64.25 158H140.25C176.75 158 185 149.75 185 116V60.5ZM203 116C203 165.5 186.5 175.5 140.5 175.5H64.5C17.5 175.5 0 160.5 0 116V62C0 17.5 15.5 0 64.5 0H140.5C182.5 0 203 11.5 203 62V116Z" fill="white"/>
</mask>
<g mask="url(#mask1_57_43)">
</g>
<mask id="mask2_57_43" style="mask-type:alpha" maskUnits="userSpaceOnUse" x="0" y="0" width="203" height="176">
<path d="M185 60.5C185 26.25 174.75 17.5 140.25 17.5H64.25C31.75 17.5 18 26.75 18 60.5V116C18 149.25 30.5 158 64.25 158H140.25C176.75 158 185 149.75 185 116V60.5ZM203 116C203 165.5 186.5 175.5 140.5 175.5H64.5C17.5 175.5 0 160.5 0 116V62C0 17.5 15.5 0 64.5 0H140.5C182.5 0 203 11.5 203 62V116Z" fill="white"/>
</mask>
<g mask="url(#mask2_57_43)">
<path d="M-35 -71.5H101V262.5H-35V-71.5Z" fill="white"/>
</g>
</svg>
