<svg width="218" height="174" viewBox="0 0 218 174" fill="none" xmlns="http://www.w3.org/2000/svg">
<mask id="mask0_0_8246" style="mask-type:alpha" maskUnits="userSpaceOnUse" x="23" y="0" width="195" height="174">
<path d="M41 17.5V74H159C182.5 74 194.5 68.5 194.5 46.5C194.5 27.5 185 17.5 159 17.5H41ZM23 173.5V0H152C193.5 0 212.5 14.75 212.5 44.5C212.5 71.25 199 79.5 190.75 82C196.5 83.25 217.5 91.5 217.5 122.5C217.5 161 196.5 173.5 156.5 173.5H23ZM41 91.5V156H163.5C187 156 199.5 146.5 199.5 122.5C199.5 99.5 185.75 91.5 162 91.5H41Z" fill="white"/>
</mask>
<g mask="url(#mask0_0_8246)">
<path d="M41 -44H255V248H41V-44Z" fill="white"/>
</g>
<mask id="mask1_0_8246" style="mask-type:alpha" maskUnits="userSpaceOnUse" x="0" y="0" width="192" height="174">
<path d="M41.5 32.75V70.25H126.25C137.5 70.25 143.25 61.5 143.25 50C143.25 39.5 137.5 32.75 126 32.75H41.5ZM0 173.5V0H125C163.5 0 184.75 11.5 184.75 43.5C184.75 71.5 177.25 77.5 163.25 82C180.5 87.75 191.5 95.25 191.5 122.5C191.5 159.75 172.75 173.5 133.5 173.5H0ZM41.5 101V140.75H124.75C147 140.75 150 135.75 150 120.5C150 107.25 147.75 101 126.25 101H41.5Z" fill="white"/>
</mask>
<g mask="url(#mask1_0_8246)">
<path d="M-28.5 -49.5H41.5V242.5H-28.5V-49.5Z" fill="white"/>
</g>
</svg>
