<svg width="898" height="552" viewBox="0 0 898 552" fill="none" xmlns="http://www.w3.org/2000/svg">
<path d="M771.104 324.277L772.563 327.445H772.588C759.927 299.995 747.265 272.537 734.604 245.087C747.901 204.857 761.207 164.619 774.505 124.389H774.479C761.182 164.627 747.876 204.857 734.578 245.087C746.748 271.487 758.926 297.878 771.096 324.277H771.104Z" stroke="#70EE86" stroke-miterlimit="10"/>
<path d="M797.631 269.48L799.022 266.261H799.047C790.228 286.656 781.408 307.05 772.588 327.445H772.562C780.916 308.118 789.269 288.799 797.623 269.48H797.631Z" stroke="#70EE86" stroke-miterlimit="10"/>
<path d="M796.249 261.298L794.858 258.816H794.883C796.274 261.298 797.665 263.779 799.056 266.261H799.03C798.106 264.609 797.182 262.958 796.249 261.298Z" stroke="#70EE86" stroke-miterlimit="10"/>
<path d="M786.488 248.628L789.744 249.687H789.77C777.693 245.748 765.634 241.2 753.371 237.906L752.701 238.058L752.175 238.448L751.828 239.007L751.7 239.65L751.878 240.396C759.57 247.027 769.213 252.185 777.685 257.834L778.558 258.114C783.994 258.351 789.439 258.58 794.875 258.817C789.43 258.588 783.977 258.351 778.533 258.114L777.659 257.834C769.136 252.16 759.689 246.942 751.853 240.396L751.675 239.65L751.802 239.007L752.15 238.448L752.676 238.058L753.345 237.906C764.497 240.971 775.48 245.028 786.479 248.619L786.488 248.628Z" stroke="#70EE86" stroke-miterlimit="10"/>
<path d="M798.377 232.104L801.345 230.41H801.371C796.418 233.222 791.466 236.042 786.513 238.854L785.996 238.964L785.207 239.591L784.8 240.811L785.003 241.624C786.827 244.122 788.234 246.968 789.761 249.678H789.736C788.218 246.959 786.801 244.122 784.978 241.624L784.774 240.811L785.181 239.591L785.97 238.964L786.488 238.854C790.448 236.601 794.408 234.348 798.369 232.095L798.377 232.104Z" stroke="#70EE86" stroke-miterlimit="10"/>
<path d="M807.188 223.202L808.062 226.59H808.096C804.568 212.887 801.684 198.768 797.351 185.318L796.494 184.683L795.977 184.607L795.358 184.717L794.815 185.039L794.425 185.564C793.322 195.719 793.857 206.323 793.645 216.554L793.874 217.435C796.384 221.763 798.886 226.082 801.396 230.41H801.37C798.86 226.091 796.358 221.763 793.848 217.443L793.619 216.562C793.831 206.306 793.407 195.77 794.399 185.581L794.789 185.056L795.332 184.734L795.951 184.624L796.469 184.7L797.325 185.335C801.235 197.718 803.948 210.625 807.197 223.211L807.188 223.202Z" stroke="#70EE86" stroke-miterlimit="10"/>
<path d="M819.959 227.708L821.24 229.944H821.274C819.993 227.7 818.704 225.464 817.424 223.228L816.788 222.593L815.948 222.373C813.217 223.482 810.665 225.117 808.087 226.59H808.053C810.631 225.125 813.183 223.491 815.914 222.381L816.754 222.601L817.39 223.236C818.246 224.727 819.103 226.218 819.959 227.717V227.708Z" stroke="#70EE86" stroke-miterlimit="10"/>
<path d="M827.669 235.263L825.193 236.838H825.227C829.357 234.213 833.487 231.596 837.608 228.97L838.219 228.292C842.765 219.111 848.201 209.922 851.856 200.368L851.712 199.708L851.321 199.174L850.762 198.819L850.109 198.692L849.464 198.827C839.457 208.448 830.561 219.62 821.266 229.952H821.232C830.502 219.654 839.33 208.296 849.43 198.836L850.075 198.7L850.728 198.827L851.288 199.183L851.678 199.716L851.822 200.377C848.311 209.939 842.714 219.154 838.185 228.292L837.574 228.97C834.276 231.07 830.968 233.162 827.669 235.263Z" stroke="#70EE86" stroke-miterlimit="10"/>
<path d="M830.026 256.496L827.686 257.902H827.72C829.28 256.962 830.841 256.021 832.409 255.081L833.47 254.988L833.995 254.616L834.352 254.073C834.445 253.658 834.521 253.235 834.572 252.82L834.301 251.897L833.512 251.262C830.756 246.451 828 241.64 825.243 236.83H825.209C827.966 241.64 830.722 246.451 833.478 251.262L834.267 251.897L834.538 252.82C834.487 253.243 834.419 253.658 834.318 254.073L833.961 254.616L833.436 254.988L832.376 255.081L830.035 256.487L830.026 256.496Z" stroke="#70EE86" stroke-miterlimit="10"/>
<path d="M819.833 265.872L817.026 264.314H817.06C821.012 266.499 824.955 269.023 829.111 270.742C840.212 270.31 851.644 270.572 862.66 269.302L863.169 268.912L863.482 268.37L863.584 267.761L863.508 267.235L862.863 266.372C851.364 262.975 839.398 260.68 827.72 257.902H827.686C839.364 260.68 851.33 262.975 862.829 266.372L863.474 267.235L863.55 267.761L863.449 268.37L863.135 268.912L862.626 269.302C851.61 270.572 840.169 270.31 829.077 270.742C825.888 269.429 822.869 267.549 819.833 265.863V265.872Z" stroke="#70EE86" stroke-miterlimit="10"/>
<path d="M812.209 267.21L809.801 268.658H809.835C812.243 267.21 814.652 265.762 817.06 264.313H817.026C815.423 265.279 813.812 266.245 812.209 267.21Z" stroke="#70EE86" stroke-miterlimit="10"/>
<path d="M726.445 275.137L725.834 271.589H725.86C732.61 310.616 739.369 349.643 746.128 388.679C743.406 392.796 746.459 396.878 751.081 396.454L752.362 396.268L753.532 395.701L754.49 394.744C754.855 394.083 755.143 393.38 755.347 392.66C769.484 381.387 787.403 370.673 799.361 357.164C803.415 343.689 803.101 327.42 804.704 313.419C806.417 298.505 808.13 283.581 809.843 268.667H809.809C808.096 283.581 806.383 298.496 804.67 313.419C803.059 327.462 803.313 343.63 799.327 357.164C787.658 370.733 769.34 381.48 755.313 392.66C755.109 393.388 754.83 394.083 754.456 394.744L753.498 395.701L752.328 396.268L751.047 396.454C746.442 396.861 743.355 392.813 746.095 388.679C739.548 350.838 732.992 312.996 726.445 275.146V275.137Z" stroke="#70EE86" stroke-miterlimit="10"/>
<path d="M500.421 357.308L496.918 357.91C552.051 348.398 607.191 338.887 662.324 329.376C677.444 326.767 693.15 325.082 708.017 321.33L708.967 320.712L709.721 319.865C716.184 304.332 720.56 287.57 725.852 271.589H725.826C720.56 287.528 716.311 304.442 709.704 319.865L708.95 320.712L708 321.33C681.88 328.139 653.936 330.816 627.316 335.415C600.331 340.073 573.354 344.731 546.369 349.381C531.053 352.023 515.737 354.666 500.421 357.308Z" stroke="#70EE86" stroke-miterlimit="10"/>
<path d="M477.574 502.568L474.334 501.298V501.315C488.667 506.939 502.999 512.562 517.322 518.186C531.036 523.564 545.826 531.737 560.234 534.693C569.919 533.101 580.206 527.02 589.331 523.344C600.059 519.025 610.778 514.705 621.506 510.377C622.168 510.471 622.821 510.445 623.474 510.301C625.755 509.251 627.477 507.379 627.901 504.881L627.672 503.559L626.985 502.408L625.848 501.569C625.043 501.307 624.22 501.146 623.38 501.103C590.383 463.727 557.376 426.36 524.378 388.984C515.228 378.626 506.077 368.276 496.944 357.91C529.746 395.065 562.558 432.212 595.361 469.368C604.698 479.938 614.035 490.516 623.364 501.086C624.203 501.129 625.034 501.29 625.831 501.552L626.968 502.391L627.655 503.543L627.884 504.864C627.451 507.362 625.73 509.217 623.457 510.284C622.804 510.428 622.151 510.454 621.489 510.36C610.77 514.68 600.042 518.999 589.322 523.327C580.121 527.037 569.97 532.923 560.234 534.676C546.487 531.864 532.392 524.081 519.307 518.949C505.399 513.494 491.491 508.031 477.582 502.577L477.574 502.568Z" stroke="#70EE86" stroke-miterlimit="10"/>
<path d="M468.797 504.33L466.032 505.846V505.863C468.805 504.347 471.57 502.831 474.335 501.315V501.298C472.486 502.306 470.646 503.322 468.797 504.33Z" stroke="#70EE86" stroke-miterlimit="10"/>
<path d="M452.514 515.874L453.778 512.562V512.579C449.105 524.851 443.686 537.107 439.776 549.633L439.912 550.234L440.802 550.988L441.422 551.09L442.253 550.895C450.453 542.121 458.985 529.789 464.786 519.287C465.201 514.807 465.625 510.326 466.032 505.846C465.617 510.318 465.201 514.798 464.786 519.27C459.214 529.882 450.267 541.943 442.253 550.87L441.422 551.064L440.802 550.963L439.912 550.209L439.776 549.616C443.415 538.225 448.248 527.062 452.514 515.874Z" stroke="#70EE86" stroke-miterlimit="10"/>
<path d="M437.784 503.051L436.181 500.096V500.112C438.852 505.033 441.532 509.963 444.212 514.883L444.263 515.739L444.882 516.467L446.332 516.958L446.892 516.874L447.417 516.628L448.155 515.688C450.029 514.646 451.904 513.613 453.786 512.571V512.554C451.912 513.596 450.038 514.629 448.155 515.671L447.417 516.611L446.892 516.857L446.332 516.941L444.882 516.45L444.263 515.722L444.212 514.866C442.075 510.928 439.929 506.99 437.792 503.051H437.784Z" stroke="#70EE86" stroke-miterlimit="10"/>
<path d="M428.929 493.888L432.356 493.074V493.091C417.37 496.64 401.851 499.393 387.154 503.932L386.442 504.898L386.357 505.474L386.45 506.058L387.197 506.914C395.813 507.735 404.675 507.473 413.342 507.684C422.544 507.913 428.081 504.314 436.172 500.104V500.087C428.098 504.288 422.535 507.896 413.342 507.667C404.675 507.456 395.821 507.693 387.197 506.897L386.45 506.041L386.357 505.457L386.442 504.881L387.154 503.915C400.791 499.825 415.055 497.174 428.921 493.888H428.929Z" stroke="#70EE86" stroke-miterlimit="10"/>
<path d="M434.578 480.505L437.266 478.955V478.972C434.306 480.675 431.202 482.25 428.497 484.291L428.251 485.155C429.404 487.874 430.939 490.474 432.364 493.091V493.074C430.948 490.457 429.413 487.857 428.259 485.138L428.505 484.274C430.414 482.843 432.5 481.699 434.586 480.505H434.578Z" stroke="#70EE86" stroke-miterlimit="10"/>
<path d="M443.524 472.001L444.898 474.576V474.593C442.6 470.307 440.31 466.022 438.012 461.728L437.283 461.016C427.539 456.019 417.777 450.04 407.609 446.034L406.939 446.178L406.388 446.55L406.023 447.093L405.888 447.728L406.006 448.321C415.751 459.06 426.86 468.842 437.257 478.98V478.963C426.886 468.851 415.615 459.136 406.006 448.312L405.888 447.719L406.023 447.084L406.388 446.542L406.939 446.169L407.609 446.025C417.786 449.871 427.573 456.036 437.283 461.008L438.012 461.719C439.852 465.15 441.684 468.58 443.516 472.01L443.524 472.001Z" stroke="#70EE86" stroke-miterlimit="10"/>
<path d="M468.093 471.062L469.501 473.586V473.603C468.093 471.079 466.694 468.555 465.286 466.023L465.379 465.497L465.252 464.913L464.404 464.134L463.793 464.024C457.263 466.734 451.072 471.045 444.916 474.585V474.568C451.038 471.053 457.255 466.59 463.793 464.007L464.404 464.117L465.252 464.896L465.379 465.481L465.286 466.006C466.227 467.691 467.16 469.377 468.101 471.053L468.093 471.062Z" stroke="#70EE86" stroke-miterlimit="10"/>
<path d="M476.455 479.65L474.589 482.733V482.75C477.803 477.439 481.705 472.129 484.172 466.463C484.257 455.588 484.961 444.485 484.3 433.652L483.452 432.915L482.866 432.822L482.29 432.907L481.755 433.161L481.018 434.194C477.176 447.33 473.343 460.467 469.501 473.603V473.586C473.343 460.45 477.176 447.313 481.018 434.177L481.755 433.144L482.29 432.89L482.866 432.805L483.452 432.898L484.3 433.635C485.08 444.442 484.257 455.597 484.172 466.446C482.061 471.011 479.076 475.322 476.455 479.65Z" stroke="#70EE86" stroke-miterlimit="10"/>
<path d="M477.362 487.713L478.744 490.203V490.22C477.362 487.73 475.98 485.248 474.589 482.758V482.741C475.513 484.401 476.438 486.061 477.354 487.713H477.362Z" stroke="#70EE86" stroke-miterlimit="10"/>
<path d="M549.6 495.53L553.145 495.793V495.81C528.356 493.947 503.55 492.075 478.753 490.211V490.195C502.371 491.973 525.981 493.752 549.6 495.53Z" stroke="#70EE86" stroke-miterlimit="10"/>
<path d="M488.421 365.362L486.843 362.178C508.935 406.727 531.044 451.268 553.144 495.81C531.578 452.319 509.995 408.845 488.421 365.354V365.362Z" stroke="#70EE86" stroke-miterlimit="10"/>
<path d="M392.667 412.004L389.486 410.412C400.375 415.858 411.256 421.295 422.145 426.724C434.425 432.856 436.452 435.718 444.508 423.776C458.272 403.373 472.045 382.962 485.809 362.559C486.173 362.474 486.521 362.347 486.852 362.178C486.521 362.339 486.173 362.466 485.809 362.551C472.375 382.454 458.951 402.366 445.517 422.269C437.707 433.847 437.054 434.152 424.503 427.884C413.893 422.591 403.284 417.289 392.675 411.995L392.667 412.004Z" stroke="#70EE86" stroke-miterlimit="10"/>
<path d="M288.966 426.86L286.677 424.353H286.66C292.867 431.154 299.075 437.946 305.283 444.739C308.853 448.643 314.832 459.044 320.836 458.138C344.853 445.222 367.098 426.064 389.478 410.429C377.877 418.526 366.267 426.631 354.665 434.745C343.666 442.427 332.709 451.879 320.845 458.129C315.256 459.163 309.939 449.812 306.691 446.264C300.78 439.793 294.869 433.331 288.958 426.86H288.966Z" stroke="#70EE86" stroke-miterlimit="10"/>
<path d="M192.5 417.84L190.719 414.935H190.693C196.469 424.387 202.252 433.831 208.028 443.266C214.066 453.124 214.634 456.427 225.608 451.54C245.961 442.478 266.315 433.424 286.659 424.362H286.676C266.866 433.17 247.047 441.995 227.236 450.812C216.093 455.775 215.321 455.123 208.977 444.756C203.482 435.787 197.995 426.81 192.5 417.84Z" stroke="#70EE86" stroke-miterlimit="10"/>
<path d="M123.485 400.528L122.34 397.496H122.314C125.868 406.905 128.811 416.967 133.28 425.953L134.213 426.817L135.349 427.368L136.613 427.563C154.744 424.632 172.816 419.161 190.702 414.951H190.727C172.791 419.161 154.778 424.378 136.638 427.554L135.375 427.359L134.238 426.809L133.305 425.945C129.243 417.967 126.657 408.921 123.493 400.536L123.485 400.528Z" stroke="#70EE86" stroke-miterlimit="10"/>
<path d="M65.7406 371.317L65.0876 368.073H65.0537C67.0721 378.135 68.2339 388.967 71.448 398.682L72.3894 399.757L73.636 400.46C88.7569 402.595 107.033 398.538 122.315 397.504H122.34C107.075 398.529 88.7654 402.611 73.67 400.452L72.4233 399.749L71.482 398.673C68.5223 390.034 67.5385 380.286 65.7406 371.317Z" stroke="#70EE86" stroke-miterlimit="10"/>
<path d="M36.3809 333.848L37.0763 330.833H37.0424C35.3547 338.159 33.3533 345.502 32.0728 352.896L32.2678 354.167L32.819 355.302L33.6925 356.233C43.4113 361.273 54.7837 364.271 65.0622 368.074H65.0961C54.8176 364.254 43.4452 361.264 33.7265 356.225L32.853 355.293L32.3017 354.158L32.1067 352.896C33.2346 346.51 34.9222 340.175 36.3809 333.857V333.848Z" stroke="#70EE86" stroke-miterlimit="10"/>
<path d="M19.4707 300.995L20.7683 297.861H20.7343C18.4276 303.442 15.2135 309.252 13.9414 315.147C13.9923 316.274 14.4078 317.298 15.1711 318.137C22.0488 322.88 29.7831 326.683 37.0425 330.833H37.0764C29.8085 326.666 22.1336 322.829 15.205 318.128C14.4502 317.298 14.0262 316.265 13.9753 315.139C15.0439 310.303 17.588 305.568 19.4707 300.986V300.995Z" stroke="#70EE86" stroke-miterlimit="10"/>
<path d="M30.6735 289.264V292.737H30.6395C30.6395 285.47 31.5131 277.534 30.3597 270.369L29.588 269.09L28.4176 268.158C23.1258 266.6 15.4084 265.355 9.89607 265.855L8.78512 266.38L7.86922 267.21C5.12151 272.198 2.25507 278.567 1.02539 284.123C1.07627 285.25 1.5003 286.275 2.25507 287.113C8.11514 291.094 14.5858 294.354 20.7427 297.878H20.7766C14.6367 294.363 8.09819 291.145 2.289 287.113C1.53423 286.283 1.1102 285.25 1.05932 284.123C2.31444 278.567 5.13847 272.198 7.90313 267.218L8.81904 266.388L9.92999 265.863C15.4339 265.363 23.1597 266.608 28.4516 268.167L29.6219 269.098L30.3936 270.377C31.3774 276.458 30.6735 283.099 30.6735 289.264Z" stroke="#70EE86" stroke-miterlimit="10"/>
<path d="M50.3488 321.152V324.311H50.3149C50.3149 315.629 51.4173 306.067 50.035 297.505L49.2633 296.226L48.093 295.294C42.5297 293.719 36.3898 293.49 30.6484 292.745C36.3813 293.473 42.5721 293.702 48.1269 295.294L49.2972 296.226L50.0689 297.505C51.2562 305.093 50.3488 313.453 50.3488 321.152Z" stroke="#70EE86" stroke-miterlimit="10"/>
<path d="M75.044 352.955L75.5783 356.165H75.5443C73.8821 346.23 73.1189 335.491 70.2101 325.861L69.2687 324.743L68.0051 324.006C62.2892 323.244 56.0899 324.116 50.3062 324.32C56.0814 324.108 62.3231 323.227 68.0305 323.998L69.2942 324.735L70.2355 325.853C72.9238 334.415 73.5514 344.088 75.0355 352.947L75.044 352.955Z" stroke="#70EE86" stroke-miterlimit="10"/>
<path d="M121.882 377.686L123.722 380.438H123.697C116.98 370.402 110.84 357.545 102.529 348.796C95.745 341.656 83.0665 352.464 75.5527 356.173C81.8453 353.099 95.0581 342.707 101.461 347.212C105.32 349.923 108.686 357.96 111.315 361.89C114.835 367.158 118.363 372.426 121.882 377.686Z" stroke="#70EE86" stroke-miterlimit="10"/>
<path d="M190.821 395.666L193.17 398.182H193.153C185.987 390.542 178.829 382.903 171.663 375.255C167.856 371.198 159.74 358.138 153.464 359.358C142.991 364.998 133.365 373.51 123.697 380.447H123.723C133.399 373.502 143.024 364.99 153.49 359.349C159.545 358.172 166.617 369.834 170.247 373.705C177.108 381.023 183.96 388.34 190.821 395.666Z" stroke="#70EE86" stroke-miterlimit="10"/>
<path d="M278.968 403.137L281.766 405.178H281.749C264.11 392.33 246.487 376.178 227.33 365.761L226.032 365.557L224.378 365.888C212.751 374.01 202.948 387.892 193.153 398.182H193.17C203.058 387.781 212.802 374.29 224.395 365.888L226.049 365.557L227.347 365.761C245.512 375.679 262.227 390.932 278.959 403.137H278.968Z" stroke="#70EE86" stroke-miterlimit="10"/>
<path d="M380.319 393.194L383.482 394.684C362.374 384.775 341.266 374.866 320.158 364.948C308.209 359.333 307.429 365.1 300.814 375.433C294.462 385.351 288.11 395.277 281.75 405.195H281.766C287.957 395.523 294.14 385.859 300.33 376.195C306.072 367.235 307.59 359.095 318.581 364.203C339.205 373.773 359.737 383.538 380.319 393.202V393.194Z" stroke="#70EE86" stroke-miterlimit="10"/>
<path d="M473.928 350.507L477.405 350.761C463.649 349.771 449.885 348.78 436.13 347.789C423.443 346.874 408.237 343.41 395.686 345.231L394.448 345.934L393.506 347.009C388.079 361.772 386.637 379.287 383.482 394.71C386.637 379.287 388.062 361.738 393.506 347.001L394.448 345.925L395.686 345.222C407.881 343.503 422.476 346.789 434.781 347.679C447.833 348.619 460.876 349.567 473.928 350.507Z" stroke="#70EE86" stroke-miterlimit="10"/>
<path d="M425.096 215.987C424.672 214.886 424.248 213.793 423.816 212.692C441.684 258.715 459.545 304.738 477.413 350.762C459.977 305.831 442.533 260.909 425.096 215.987Z" stroke="#70EE86" stroke-miterlimit="10"/>
<path d="M380.158 268.514L377.978 271.309C393.26 251.77 408.542 232.231 423.824 212.7C409.271 231.308 394.719 249.915 380.166 268.523L380.158 268.514Z" stroke="#70EE86" stroke-miterlimit="10"/>
<path d="M379.937 277.204L380.921 280.152C379.937 277.204 378.962 274.248 377.978 271.301C378.631 273.266 379.284 275.231 379.937 277.204Z" stroke="#70EE86" stroke-miterlimit="10"/>
<path d="M421.45 308.55C408.729 303.968 396.449 296.379 384.313 290.366L387.341 291.865C398.501 297.395 409.772 304.298 421.45 308.55ZM421.45 308.55L422.17 308.406L422.764 308.016L423.171 307.457L423.324 306.813L423.205 306.263M423.205 306.263C415.657 298.378 406.905 291.357 398.798 284.022M423.205 306.263C415.572 298.429 406.922 291.365 398.798 284.022M398.798 284.022C393.158 282.049 386.806 281.346 380.921 280.151C386.798 281.346 393.158 282.049 398.798 284.022Z" stroke="#70EE86" stroke-miterlimit="10"/>
<path d="M369.837 306.923C368.718 307.279 367.59 307.643 366.47 307.999C373.195 305.856 379.92 303.713 386.645 301.562L387.604 300.902L387.935 299.936L387.723 299.174L387.061 298.598C386.145 295.854 385.238 293.11 384.322 290.365C385.238 293.11 386.145 295.845 387.061 298.589L387.723 299.165L387.935 299.928L387.604 300.893L386.645 301.554C381.04 303.341 375.434 305.128 369.828 306.915L369.837 306.923Z" stroke="#70EE86" stroke-miterlimit="10"/>
<path d="M358.049 314.283L357.922 310.717C358.422 325.09 357.964 339.903 359.567 354.174L360.466 354.97L361.06 355.072L361.594 354.996L362.484 354.344C365.961 343.918 368.37 332.992 371.245 322.38L371.211 321.372C369.634 316.909 368.065 312.454 366.487 307.99C368.065 312.445 369.634 316.909 371.211 321.364L371.245 322.371C368.37 332.984 365.961 343.909 362.493 354.335L361.602 354.987L361.068 355.064L360.475 354.962L359.584 354.166C358.219 341.03 358.524 327.495 358.066 314.283H358.049Z" stroke="#70EE86" stroke-miterlimit="10"/>
<path d="M345.667 306.661L344.692 303.815H344.684C345.659 306.669 346.634 309.515 347.609 312.361L348.211 313.123L349.187 313.402C352.13 312.632 355.021 311.641 357.922 310.709C355.021 311.632 352.13 312.615 349.195 313.394L348.22 313.114L347.618 312.352L345.667 306.652V306.661Z" stroke="#70EE86" stroke-miterlimit="10"/>
<path d="M338.925 297.531L342.14 296.362C333.862 299.36 326.866 300.961 321.04 307.677C315.214 314.394 309.489 320.991 303.714 327.648L303.315 328.639L303.468 329.274L303.867 329.816L304.452 330.189L305.147 330.325L305.665 330.248C319.03 322.118 331.742 312.623 344.684 303.815H344.692C331.742 312.615 319.013 322.05 305.673 330.24L305.156 330.316L304.46 330.181L303.875 329.808L303.477 329.266L303.324 328.631L303.722 327.64C308.963 321.601 314.204 315.562 319.437 309.524C325.475 302.562 330.284 300.673 338.925 297.531Z" stroke="#70EE86" stroke-miterlimit="10"/>
<path d="M341.936 276.484L344.981 275.442H344.972C342.945 276.137 340.91 276.823 338.883 277.517L338.179 277.382L337.552 277.492L337 277.78L336.33 278.754L336.017 279.694L336.22 280.439L336.848 281.006C338.603 286.122 340.359 291.246 342.114 296.362H342.123C340.367 291.238 338.612 286.122 336.865 281.006L336.237 280.439L336.034 279.694L336.347 278.754L337.017 277.78L337.569 277.492L338.196 277.382L338.9 277.517L341.945 276.475L341.936 276.484Z" stroke="#70EE86" stroke-miterlimit="10"/>
<path d="M355.081 268.87L357.913 271.03C354.131 268.15 350.349 265.271 346.566 262.391C335.041 259.325 319.768 257.479 307.844 257.555L307.259 257.961L306.886 258.529L306.75 259.173L306.979 259.952L307.725 260.528C320.141 265.499 332.556 270.471 344.98 275.442H344.989C332.573 270.471 320.158 265.499 307.742 260.536L306.996 259.96L306.767 259.181L306.903 258.537L307.276 257.97L307.861 257.563C319.768 257.216 335.007 259.571 346.583 262.391C349.416 264.551 352.257 266.71 355.089 268.87H355.081Z" stroke="#70EE86" stroke-miterlimit="10"/>
<path d="M363.35 269.184L366.072 268.26C363.35 269.184 360.636 270.115 357.914 271.038C359.728 270.42 361.543 269.802 363.35 269.184Z" stroke="#70EE86" stroke-miterlimit="10"/>
<path d="M485.461 324.201L485.851 327.75C481.025 283.632 476.2 239.506 471.366 195.388C469.975 182.667 468.584 169.954 467.194 157.233L468.228 155.556L468.449 154.311L468.143 152.871L467.304 151.669L466.049 150.83C463.31 149.568 460.206 149.907 458.654 152.685C448.765 157.411 438.877 162.137 428.989 166.863C419.465 171.411 408.143 175.18 399.553 181.287C391.784 193.83 387.943 210.828 382.676 224.633C377.138 239.176 371.601 253.709 366.071 268.251C371.609 253.718 377.147 239.176 382.676 224.642C387.951 210.786 391.835 193.932 399.544 181.295C408.016 175.121 419.507 171.403 428.98 166.88C438.453 162.357 448.757 157.428 458.645 152.702C460.206 149.924 463.301 149.585 466.04 150.847L467.295 151.686L468.135 152.888L468.44 154.328L468.22 155.573L467.185 157.25C471.943 200.758 476.7 244.257 481.466 287.765C482.798 299.91 484.121 312.064 485.452 324.209L485.461 324.201Z" stroke="#70EE86" stroke-miterlimit="10"/>
<path d="M621.591 124.134L625.102 123.533H625.119C600.449 127.767 574.549 130.232 550.346 136.542L549.396 137.16L548.641 138.007C538.931 161.374 532.426 186.639 524.497 210.684C516.568 234.729 508.011 260.645 499.768 285.63C495.137 299.673 490.499 313.715 485.868 327.749C502.227 278.177 518.578 228.614 534.937 179.05C539.414 165.491 543.027 151.135 548.641 138.016L549.396 137.169L550.346 136.55C573.523 130.74 598.049 128.191 621.608 124.134H621.591Z" stroke="#70EE86" stroke-miterlimit="10"/>
<path d="M660.094 47.8579L663.494 48.8911L663.511 48.8742C635.271 40.32 606.157 28.3526 577.179 22.9067C569.267 24.3466 560.472 31.2153 553.349 34.9927C544.58 39.6425 535.819 44.3007 527.05 48.9504C519.028 46.579 518.095 60.7738 526.745 59.19C559.531 80.6348 592.325 102.088 625.111 123.533H625.094C592.308 102.097 559.522 80.6518 526.737 59.207C518.069 60.7569 519.045 46.579 527.042 48.9674C535.802 44.3176 544.571 39.6679 553.332 35.0096C560.574 31.1645 569.156 24.5922 577.162 22.9237C604.995 28.1239 632.964 39.6425 660.085 47.8579H660.094Z" stroke="#70EE86" stroke-miterlimit="10"/>
<path d="M668.641 45.4779C669.506 44.9104 670.371 44.3345 671.236 43.7585C668.658 45.4694 666.072 47.1717 663.502 48.8911C665.215 47.7561 666.928 46.6212 668.65 45.4863L668.641 45.4779Z" stroke="#70EE86" stroke-miterlimit="10"/>
<path d="M681.803 34.0279L680.786 37.4411L680.802 37.4241C684.237 25.9056 688.079 14.4125 691.064 2.76696L690.911 2.0894L690.521 1.56429L689.961 1.22551L689.317 1.10693L688.554 1.29326C682.075 9.09367 677.181 18.9268 671.754 27.5233L671.491 28.3956C671.406 33.5112 671.321 38.6353 671.228 43.7508L671.211 43.7678C671.296 38.6522 671.381 33.5282 671.474 28.4126L671.737 27.5402C677.19 18.8929 682.151 9.26306 688.537 1.31021L689.3 1.12388L689.944 1.24245L690.504 1.58122L690.894 2.10634L691.047 2.78389C688.418 13.2861 684.899 23.6443 681.803 34.0194V34.0279Z" stroke="#70EE86" stroke-miterlimit="10"/>
<path d="M698.306 47.732L699.96 50.366L699.977 50.349C696.67 45.081 693.362 39.8045 690.055 34.528L689.936 33.7997L689.147 32.9358C688.757 32.7918 688.359 32.6901 687.943 32.6309L686.993 32.9188L686.349 33.7319C684.483 34.9684 682.626 36.1965 680.769 37.4331C682.626 36.205 684.475 34.9769 686.332 33.7488L686.976 32.9358L687.926 32.6478C688.342 32.7071 688.74 32.8087 689.13 32.9527L689.919 33.8166L690.038 34.545C692.794 38.9406 695.55 43.3278 698.306 47.7235V47.732Z" stroke="#70EE86" stroke-miterlimit="10"/>
<path d="M707.457 56.0232L704.107 56.9803L704.124 56.9634C717.506 53.1436 730.889 49.3324 744.28 45.5126L745.212 44.8774L745.509 43.9034L745.399 43.2767L745.068 42.7261L744.534 42.3365C734.349 41.4473 723.714 42.3027 713.478 42.3535L712.596 42.6076C708.381 45.1908 704.158 47.774 699.952 50.3741C704.158 47.7909 708.373 45.2077 712.579 42.6245L713.461 42.3704C723.731 42.3111 734.29 41.5828 744.517 42.3535L745.051 42.7431L745.382 43.2936L745.492 43.9203L745.195 44.8943L744.263 45.5295C731.991 49.0274 719.728 52.5253 707.457 56.0232Z" stroke="#70EE86" stroke-miterlimit="10"/>
<path d="M701.274 66.8384L698.832 68.6678C701.486 66.6775 704.26 64.7803 706.685 62.5528L706.863 61.8075L706.6 60.9097C705.778 59.597 704.955 58.2842 704.132 56.9714L704.115 56.9884C704.938 58.3011 705.761 59.6139 706.583 60.9267L706.846 61.8245L706.668 62.5698C704.989 64.1112 703.123 65.4579 701.274 66.8384Z" stroke="#70EE86" stroke-miterlimit="10"/>
<path d="M694.855 75.7314L693.023 73.0127L693.04 72.9957C696.093 77.5269 699.146 82.0581 702.199 86.5893L702.894 87.1821C712.214 91.4846 721.526 96.5579 731.16 100.064L731.822 99.9202L732.356 99.5307L732.712 98.9717L732.839 98.328L732.695 97.6674C722.51 87.1398 710.018 78.1537 698.849 68.6509L698.832 68.6678C710.027 78.196 722.391 87.216 732.678 97.6843L732.822 98.3449L732.695 98.9886L732.339 99.5476L731.805 99.9372L731.143 100.081C721.501 96.6934 712.172 91.4931 702.886 87.1991L702.19 86.6062C699.748 82.9813 697.306 79.3563 694.863 75.7314H694.855Z" stroke="#70EE86" stroke-miterlimit="10"/>
<path d="M675.426 78.5016L673.365 75.5965L673.382 75.5796C674.756 77.5191 676.13 79.4501 677.512 81.3812L677.639 81.8978L678.292 82.6686L679.624 83.109L680.167 83.0243L681.04 82.3552L681.269 81.7962C685.196 78.8573 689.114 75.9268 693.04 72.9879C689.114 75.9353 685.179 78.8742 681.252 81.8131L681.023 82.3721L680.15 83.0412L679.607 83.1259L678.275 82.6855L677.622 81.9148L677.495 81.3981L675.434 78.4931L675.426 78.5016Z" stroke="#70EE86" stroke-miterlimit="10"/>
<path d="M665.105 69.2524L666.691 66.2119L666.708 66.1949C664.486 70.4551 661.967 74.7068 660.169 79.1448C660.89 90.2314 660.95 101.648 662.476 112.633L663.4 113.429L664.003 113.531L664.545 113.446L665.419 112.777C668.743 100.615 670.778 87.9277 673.382 75.5791L673.365 75.5961C670.762 87.9277 668.803 100.666 665.402 112.794L664.528 113.463L663.986 113.548L663.383 113.446L662.459 112.65C660.924 101.665 660.865 90.2483 660.152 79.1617C661.458 75.757 663.409 72.5047 665.105 69.2524Z" stroke="#70EE86" stroke-miterlimit="10"/>
<path d="M663.434 61.6294L661.806 59.3342L661.823 59.3173C663.451 61.6125 665.079 63.8993 666.707 66.1945L666.69 66.2114C665.605 64.6869 664.519 63.154 663.434 61.6294Z" stroke="#70EE86" stroke-miterlimit="10"/>
<path d="M596.921 59.2671H593.317L593.325 59.2417C616.155 59.2671 638.985 59.2926 661.814 59.3096L661.797 59.3265C640.172 59.3011 618.547 59.2841 596.921 59.2587V59.2671Z" stroke="#70EE86" stroke-miterlimit="10"/>
<path d="M645.159 117.054L647.516 119.68L647.533 119.663C629.47 99.5226 611.398 79.3822 593.334 59.2417V59.2586C610.6 78.5183 627.875 97.7864 645.159 117.046V117.054Z" stroke="#70EE86" stroke-miterlimit="10"/>
<path d="M754.194 101.335L757.747 100.725L757.773 100.708C721.026 107.026 684.28 113.345 647.534 119.671L647.517 119.688C683.076 113.573 718.635 107.458 754.194 101.343V101.335Z" stroke="#70EE86" stroke-miterlimit="10"/>
<path d="M895.946 6.66263C896.201 8.42429 895.548 9.94879 894.114 11.0414C889.501 28.1243 884.896 45.2073 880.283 62.2903C875.669 79.3732 872.888 96.4647 866.629 112.15L865.815 113.09L864.763 113.759C850.524 117.113 834.878 117.41 820.333 119.095C805.051 120.865 789.778 122.635 774.496 124.406H774.521C804.051 120.975 835.861 120.416 864.797 113.742L865.849 113.073L866.663 112.133C872.913 96.4393 875.907 78.594 880.316 62.2733C884.93 45.1904 889.535 28.1074 894.148 11.0244C896.769 8.95787 896.404 5.65477 894.114 3.46964L893.207 2.73279L892.138 2.2585L890.977 2.08911L889.577 2.3432C888.899 2.69045 888.263 3.11392 887.686 3.61362C869.953 5.54467 852.22 7.48417 834.487 9.41522C817.331 11.287 798.623 11.3547 781.857 15.3523L780.788 16.0214L779.966 16.9785C769.679 43.3017 764.955 73.343 757.764 100.699L757.738 100.716C764.93 73.3345 769.696 43.3609 779.94 16.9954L780.763 16.0384L781.832 15.3693C798.657 11.4564 817.263 11.3039 834.462 9.43216C851.661 7.5604 869.919 5.5616 887.652 3.63055C888.229 3.13085 888.856 2.70738 889.543 2.36013L890.943 2.10605L892.104 2.27544L893.173 2.74973L894.08 3.48657C894.929 4.40975 895.565 5.48538 895.955 6.67111L895.946 6.66263Z" stroke="#70EE86" stroke-miterlimit="10"/>
<path d="M752.498 238.193L752.676 238.066L752.149 238.457L752.498 238.193Z" stroke="#70EE86" stroke-miterlimit="10"/>
<path d="M752.93 237.999L753.355 237.914L752.684 238.067L752.939 238.007L752.93 237.999Z" stroke="#70EE86" stroke-miterlimit="10"/>
<path d="M794.96 184.938L795.317 184.734L794.773 185.048L794.96 184.938Z" stroke="#70EE86" stroke-miterlimit="10"/>
<path d="M794.621 185.243L794.774 185.048L794.383 185.574L794.621 185.243Z" stroke="#70EE86" stroke-miterlimit="10"/>
<path d="M796.893 185.005L797.318 185.336L796.452 184.7L796.893 185.005Z" stroke="#70EE86" stroke-miterlimit="10"/>
<path d="M863.161 266.804L863.475 267.245L862.83 266.38L863.161 266.804Z" stroke="#70EE86" stroke-miterlimit="10"/>
<path d="M862.949 269.065L862.626 269.311L863.136 268.921L862.949 269.065Z" stroke="#70EE86" stroke-miterlimit="10"/>
<path d="M745.043 392.653L744.983 392.093L745.077 392.949L745.043 392.653Z" stroke="#70EE86" stroke-miterlimit="10"/>
<path d="M440.37 550.608L439.912 550.209L440.795 550.964L440.37 550.608Z" stroke="#70EE86" stroke-miterlimit="10"/>
<path d="M444.5 516.019L444.254 515.722L444.873 516.451L444.5 516.019Z" stroke="#70EE86" stroke-miterlimit="10"/>
<path d="M405.947 447.475L406.032 447.085L405.905 447.721L405.947 447.475Z" stroke="#70EE86" stroke-miterlimit="10"/>
<path d="M405.939 447.915L405.905 447.72L406.024 448.306L405.939 447.915Z" stroke="#70EE86" stroke-miterlimit="10"/>
<path d="M464.802 464.482L465.244 464.898L464.395 464.118L464.802 464.482Z" stroke="#70EE86" stroke-miterlimit="10"/>
<path d="M483.876 433.263L484.3 433.644L483.451 432.898L483.876 433.263Z" stroke="#70EE86" stroke-miterlimit="10"/>
<path d="M13.9926 315.334L13.9756 315.147L14.1199 316.241L13.9926 315.334Z" stroke="#70EE86" stroke-miterlimit="10"/>
<path d="M423.282 306.645L423.316 306.815L423.197 306.263L423.282 306.645Z" stroke="#70EE86" stroke-miterlimit="10"/>
<path d="M423.265 307.076L423.171 307.458L423.316 306.813L423.265 307.076Z" stroke="#70EE86" stroke-miterlimit="10"/>
<path d="M550.007 136.746L550.33 136.551L549.379 137.17L550.007 136.746Z" stroke="#70EE86" stroke-miterlimit="10"/>
<path d="M690.76 1.9378L690.895 2.11622L690.496 1.58948L690.76 1.9378Z" stroke="#70EE86" stroke-miterlimit="10"/>
<path d="M745.17 42.9297L745.382 43.2865L745.06 42.7343L745.17 42.9297Z" stroke="#70EE86" stroke-miterlimit="10"/>
<path d="M732.78 98.5657L732.695 98.9898L732.822 98.3367L732.78 98.5657Z" stroke="#70EE86" stroke-miterlimit="10"/>
<path d="M680.599 82.728L680.149 83.05L681.024 82.3806L680.599 82.728Z" stroke="#70EE86" stroke-miterlimit="10"/>
<path d="M338.222 277.39L338.444 277.441L338.188 277.382H338.222V277.39Z" stroke="#70EE86" stroke-miterlimit="10"/>
<path d="M312.958 361.662L313.257 361.764L312.949 361.653H312.966L312.958 361.662Z" stroke="#70EE86" stroke-miterlimit="10"/>
<path d="M14.9765 317.858C14.8237 317.663 14.6794 317.459 14.5352 317.256L15.2057 318.137L14.9765 317.858Z" stroke="#70EE86" stroke-miterlimit="10"/>
<path d="M751.802 240.158L751.683 239.658L751.861 240.404L751.802 240.158Z" stroke="#70EE86" stroke-miterlimit="10"/>
<path d="M785.843 239.066L785.971 238.973L785.181 239.6C785.393 239.405 785.606 239.227 785.835 239.066H785.843Z" stroke="#70EE86" stroke-miterlimit="10"/>
<path d="M849.855 198.734L850.084 198.692L849.438 198.827L849.846 198.734H849.855Z" stroke="#70EE86" stroke-miterlimit="10"/>
<path d="M850.321 198.734L850.737 198.819L850.083 198.692L850.321 198.734Z" stroke="#70EE86" stroke-miterlimit="10"/>
<path d="M851.678 199.716C851.729 199.937 851.78 200.157 851.822 200.378L851.678 199.716Z" stroke="#70EE86" stroke-miterlimit="10"/>
<path d="M863.449 268.378C863.347 268.565 863.245 268.744 863.135 268.922L863.449 268.378Z" stroke="#70EE86" stroke-miterlimit="10"/>
<path d="M749.818 396.268C749.64 396.285 749.462 396.294 749.283 396.302L749.818 396.268Z" stroke="#70EE86" stroke-miterlimit="10"/>
<path d="M745.162 393.21L745.077 392.948L745.34 393.736L745.162 393.21Z" stroke="#70EE86" stroke-miterlimit="10"/>
<path d="M386.816 506.474L386.451 506.041L387.206 506.906L386.816 506.474Z" stroke="#70EE86" stroke-miterlimit="10"/>
<path d="M360.458 354.962C360.153 354.708 359.855 354.437 359.567 354.166L360.458 354.962Z" stroke="#70EE86" stroke-miterlimit="10"/>
<path d="M336.67 278.262L337.018 277.779L336.347 278.754L336.67 278.262Z" stroke="#70EE86" stroke-miterlimit="10"/>
<path d="M338.002 277.399L338.18 277.373L337.551 277.484L337.993 277.399H338.002Z" stroke="#70EE86" stroke-miterlimit="10"/>
<path d="M548.862 137.737L549.38 137.169L548.625 138.025L548.862 137.737Z" stroke="#70EE86" stroke-miterlimit="10"/>
<path d="M690.895 2.11499C690.954 2.33531 691.005 2.5641 691.047 2.79289L690.895 2.11499Z" stroke="#70EE86" stroke-miterlimit="10"/>
<path d="M689.139 32.9604C689.419 33.2401 689.682 33.5282 689.928 33.8248L689.139 32.9604Z" stroke="#70EE86" stroke-miterlimit="10"/>
<path d="M744.865 42.5915L745.061 42.736L744.525 42.3536L744.865 42.5915Z" stroke="#70EE86" stroke-miterlimit="10"/>
<path d="M706.846 61.816C706.795 62.0702 706.736 62.316 706.668 62.5617L706.846 61.816Z" stroke="#70EE86" stroke-miterlimit="10"/>
<path d="M732.678 97.6761C732.729 97.8967 732.78 98.1172 732.822 98.3377L732.678 97.6761Z" stroke="#70EE86" stroke-miterlimit="10"/>
<path d="M665.403 112.794C665.122 113.031 664.825 113.252 664.528 113.464L665.403 112.794Z" stroke="#70EE86" stroke-miterlimit="10"/>
<path d="M663.384 113.447C663.07 113.193 662.756 112.922 662.459 112.651L663.384 113.447Z" stroke="#70EE86" stroke-miterlimit="10"/>
<path d="M784.91 241.352L784.783 240.819L784.986 241.632L784.91 241.352Z" stroke="#70EE86" stroke-miterlimit="10"/>
<path d="M428.353 484.766L428.497 484.283L428.251 485.147L428.353 484.766Z" stroke="#70EE86" stroke-miterlimit="10"/>
<path d="M548.864 137.737L548.625 138.036C548.693 137.925 548.77 137.822 548.864 137.737Z" stroke="#70EE86" stroke-miterlimit="10"/>
<path d="M732.34 99.5397C732.17 99.6756 731.992 99.8115 731.805 99.9305L732.34 99.5397Z" stroke="#70EE86" stroke-miterlimit="10"/>
<path d="M731.559 99.9887L731.143 100.074L731.806 99.9292L731.559 99.9887Z" stroke="#70EE86" stroke-miterlimit="10"/>
<path d="M677.936 82.3211C677.826 82.194 677.724 82.0584 677.614 81.9229L678.267 82.694L677.928 82.3211H677.936Z" stroke="#70EE86" stroke-miterlimit="10"/>
<path d="M833.284 255.006L832.936 255.031L833.429 254.997L833.284 255.006Z" stroke="#70EE86" stroke-miterlimit="10"/>
<path d="M749.182 396.302L748.902 396.277L749.088 396.294C748.868 396.294 748.656 396.269 748.443 396.226L749.275 396.311H749.182V396.302Z" stroke="#70EE86" stroke-miterlimit="10"/>
<path d="M312.297 361.577C312.509 361.603 312.729 361.628 312.942 361.654L312.025 361.552L312.288 361.569L312.297 361.577Z" stroke="#70EE86" stroke-miterlimit="10"/>
<path d="M309.719 362.271L310.016 362.068L309.15 362.678C309.337 362.534 309.523 362.399 309.71 362.263L309.719 362.271Z" stroke="#70EE86" stroke-miterlimit="10"/>
<path d="M447.783 516.128C447.655 516.29 447.528 516.451 447.4 516.613L447.783 516.128Z" stroke="#70EE86" stroke-miterlimit="10"/>
<path d="M447.434 516.586L446.908 516.831L446.349 516.916L444.898 516.425C444.686 516.188 444.483 515.942 444.279 515.696L444.228 514.841C441.549 509.92 438.877 504.991 436.197 500.07C428.098 504.28 422.569 507.879 413.368 507.65C404.7 507.439 395.838 507.701 387.222 506.88C386.968 506.609 386.713 506.321 386.476 506.024L386.382 505.44L386.467 504.864L387.18 503.898C401.885 499.359 417.396 496.606 432.381 493.057C430.965 490.44 429.43 487.84 428.276 485.121C428.353 484.834 428.429 484.546 428.522 484.258C431.228 482.216 434.332 480.641 437.291 478.939C426.894 468.801 415.785 459.027 406.04 448.288C405.998 448.093 405.956 447.89 405.922 447.695C405.964 447.483 406.007 447.271 406.057 447.06L406.422 446.518L406.973 446.145L407.643 446.001C417.811 450.007 427.573 455.986 437.317 460.983L438.046 461.695C440.344 465.989 442.634 470.274 444.932 474.56C451.089 471.02 457.28 466.709 463.81 463.999L464.421 464.109C464.709 464.363 464.997 464.625 465.269 464.888L465.396 465.472L465.303 465.997C466.702 468.521 468.11 471.045 469.517 473.569C473.359 460.433 477.192 447.297 481.034 434.161L481.772 433.127L482.306 432.873L482.883 432.788L483.468 432.882C483.756 433.11 484.045 433.364 484.316 433.619C484.978 444.451 484.274 455.555 484.189 466.429C481.713 472.095 477.82 477.406 474.606 482.716C475.988 485.206 477.379 487.688 478.761 490.178C503.558 492.041 528.356 493.913 553.153 495.776C531.053 451.235 508.961 406.702 486.86 362.161C486.529 362.331 486.182 362.458 485.817 362.542C472.053 382.946 458.281 403.349 444.517 423.752C436.46 435.694 434.433 432.831 422.153 426.699C411.273 421.261 400.384 415.833 389.503 410.395C367.123 426.03 344.887 445.188 320.87 458.104C314.866 459.002 308.887 448.61 305.317 444.705C299.109 437.913 292.901 431.12 286.693 424.327C266.34 433.39 245.995 442.444 225.642 451.506C214.659 456.393 213.837 452.666 208.061 443.231C202.286 433.796 196.502 424.353 190.727 414.918C172.833 419.127 154.77 424.599 136.638 427.529L135.374 427.334L134.238 426.784L133.305 425.92C128.844 416.934 125.902 406.872 122.348 397.479C107.066 398.512 88.7992 402.569 73.6783 400.435L72.4317 399.732L71.4904 398.656C68.2762 388.942 67.1144 378.109 65.096 368.056C54.8176 364.245 43.4451 361.255 33.7264 356.216L32.8529 355.284L32.3016 354.149L32.1066 352.887C33.3872 345.493 35.3886 338.159 37.0762 330.833C30.0204 326.793 20.5815 323.176 14.7553 317.561L14.7808 317.536C14.2974 316.816 14.0345 315.986 14.0006 315.122C15.2727 309.227 18.4868 303.417 20.7935 297.836C14.6366 294.312 8.16594 291.052 2.30587 287.071C1.55109 286.232 1.12706 285.208 1.07617 284.081C2.30585 278.534 5.17229 272.165 7.92 267.176L8.8359 266.346L9.94685 265.821C15.4592 265.321 23.1765 266.566 28.4684 268.125L29.6387 269.056L30.4105 270.335C31.5638 277.509 30.6903 285.436 30.6903 292.703C36.4317 293.448 42.5716 293.677 48.1349 295.252L49.3052 296.184L50.0769 297.463C51.4593 306.026 50.3568 315.588 50.3568 324.269C56.132 324.066 62.3313 323.193 68.0473 323.955L69.3109 324.692L70.2522 325.81C73.161 335.44 73.9243 346.179 75.5865 356.114C83.1003 352.405 95.7787 341.597 102.563 348.737C110.874 357.486 117.014 370.343 123.731 380.388C133.399 373.451 143.024 364.939 153.497 359.299C159.782 358.079 167.889 371.139 171.697 375.196C178.854 382.844 186.02 390.483 193.178 398.131C202.973 387.841 212.777 373.968 224.404 365.846L226.057 365.515L227.355 365.719C246.512 376.136 264.144 392.279 281.775 405.144C287.66 395.963 293.537 386.774 299.423 377.593C302.136 373.35 306.945 360.417 313.255 361.738L312.949 361.628C336.932 371.139 360.127 383.674 383.491 394.65C386.645 379.219 388.087 361.704 393.515 346.95L394.456 345.875L395.694 345.172C408.254 343.351 423.459 346.815 436.138 347.729C449.902 348.72 463.657 349.72 477.413 350.711C459.553 304.687 441.684 258.673 423.824 212.649C408.542 232.189 393.26 251.719 377.978 271.258C378.962 274.206 379.937 277.162 380.921 280.109C386.806 281.303 393.158 282.006 398.798 283.979C406.905 291.314 415.657 298.335 423.205 306.22C423.247 306.398 423.29 306.585 423.324 306.771C423.273 306.983 423.222 307.203 423.171 307.415L422.764 307.974L422.17 308.363L421.45 308.507C408.737 303.917 396.457 296.336 384.322 290.323C385.238 293.059 386.145 295.803 387.061 298.547L387.722 299.123L387.934 299.885L387.604 300.851L386.645 301.511C379.92 303.663 373.195 305.805 366.47 307.948C368.047 312.403 369.616 316.867 371.194 321.321L371.228 322.329C368.361 332.95 365.953 343.867 362.476 354.293L361.585 354.945L361.051 355.022L360.457 354.92C360.152 354.666 359.855 354.403 359.567 354.124C357.964 339.853 358.422 325.04 357.922 310.675C355.021 311.598 352.129 312.581 349.195 313.36L348.22 313.081L347.618 312.318C346.642 309.473 345.667 306.618 344.692 303.773C331.751 312.572 319.038 322.067 305.673 330.197L305.156 330.274L304.46 330.138L303.875 329.766L303.476 329.224L303.324 328.588L303.722 327.597C309.396 321.05 315.078 314.504 320.76 307.957C326.756 301.037 333.599 299.419 342.131 296.32C340.384 291.204 338.628 286.08 336.873 280.964L336.245 280.397L336.042 279.652L336.356 278.711C336.568 278.381 336.788 278.051 337.026 277.737L337.577 277.45C337.789 277.399 337.992 277.356 338.204 277.339M447.434 516.586C447.561 516.425 447.689 516.264 447.816 516.103L447.434 516.586ZM447.434 516.586L448.172 515.646C450.046 514.604 451.92 513.571 453.803 512.529C449.13 524.801 443.711 537.056 439.802 549.583L439.937 550.176C440.226 550.438 440.522 550.684 440.828 550.929L441.447 551.031L442.278 550.836C450.479 542.062 459.01 529.73 464.811 519.237C465.226 514.765 465.642 510.284 466.057 505.813C468.822 504.296 471.595 502.78 474.36 501.264C488.692 506.888 503.016 512.512 517.348 518.136C531.061 523.514 545.843 531.687 560.251 534.643C569.936 533.05 580.223 526.969 589.339 523.293C600.059 518.974 610.787 514.655 621.506 510.327C622.168 510.42 622.821 510.394 623.474 510.251C625.755 509.2 627.477 507.329 627.901 504.83L627.672 503.509L626.985 502.357L625.848 501.518C625.043 501.256 624.22 501.095 623.381 501.053C590.578 463.897 557.766 426.75 524.963 389.594C515.626 379.024 506.289 368.446 496.961 357.876C552.093 348.365 607.216 338.845 662.349 329.334C677.47 326.725 693.167 325.04 708.034 321.288L708.983 320.669L709.738 319.822C716.2 304.289 720.576 287.537 725.86 271.555C732.619 310.582 739.369 349.61 746.12 388.629C744.067 391.728 745.195 395.802 749.122 396.251L748.935 396.234C749.656 396.234 750.36 396.293 751.072 396.404L752.353 396.217L753.523 395.65L754.482 394.693C754.846 394.032 755.135 393.329 755.338 392.609C769.475 381.336 787.395 370.622 799.352 357.114C803.406 343.639 803.092 327.377 804.695 313.369C806.408 298.454 808.121 283.539 809.834 268.616C812.243 267.168 814.651 265.719 817.06 264.271C821.012 266.465 824.955 268.98 829.111 270.708C840.212 270.276 851.644 270.538 862.66 269.268C862.838 269.141 863.007 269.014 863.169 268.878C863.279 268.701 863.381 268.523 863.482 268.336L863.584 267.727L863.508 267.201C863.304 266.905 863.092 266.617 862.863 266.338C851.364 262.941 839.398 260.646 827.72 257.868C829.28 256.928 830.841 255.988 832.41 255.048L833.47 254.955M833.47 254.955L832.978 254.988C833.139 254.98 833.308 254.971 833.47 254.955ZM833.47 254.955L833.995 254.582L834.352 254.04C834.445 253.625 834.521 253.201 834.572 252.786L834.301 251.863L833.512 251.228C830.756 246.417 828 241.607 825.244 236.796C829.374 234.179 833.504 231.553 837.625 228.936L838.236 228.259C842.781 219.078 848.217 209.888 851.873 200.343C851.83 200.123 851.779 199.903 851.728 199.683L851.338 199.149L850.778 198.793C850.566 198.742 850.346 198.7 850.125 198.666C849.913 198.709 849.693 198.751 849.481 198.802C839.474 208.423 830.578 219.586 821.283 229.919C820.002 227.683 818.714 225.438 817.433 223.202L816.797 222.567L815.957 222.347C813.227 223.456 810.682 225.091 808.096 226.565C804.568 212.87 801.684 198.751 797.351 185.301C797.071 185.073 796.791 184.869 796.494 184.666L795.977 184.59L795.358 184.7C795.171 184.802 794.993 184.903 794.815 185.022C794.68 185.191 794.552 185.369 794.425 185.547C793.323 195.702 793.857 206.306 793.645 216.528L793.874 217.409C796.384 221.737 798.886 226.057 801.396 230.385C796.443 233.205 791.491 236.017 786.538 238.837L786.021 238.947C785.749 239.142 785.487 239.354 785.232 239.574L784.825 240.794C784.884 241.065 784.952 241.336 785.029 241.607C786.852 244.105 788.26 246.951 789.786 249.661C777.71 245.723 765.651 241.175 753.396 237.88C753.167 237.922 752.947 237.973 752.726 238.032C752.548 238.16 752.37 238.295 752.2 238.422L751.853 238.981L751.725 239.625C751.785 239.87 751.844 240.124 751.904 240.37C759.595 247.002 769.229 252.16 777.71 257.809L778.583 258.088C784.019 258.325 789.464 258.554 794.9 258.791C796.291 261.273 797.682 263.754 799.072 266.236C790.253 286.63 781.433 307.025 772.613 327.411C759.952 299.961 747.299 272.503 734.637 245.054C747.935 204.824 761.241 164.594 774.538 124.363C804.067 120.942 835.878 120.391 864.814 113.717L865.865 113.048L866.68 112.108C872.93 96.4141 875.923 78.5688 880.333 62.2481C884.743 45.9274 889.552 28.0822 894.165 10.9992C896.786 8.93267 896.421 5.62956 894.131 3.44443L893.224 2.70759L892.155 2.2333L890.993 2.06391L889.594 2.318C888.916 2.66525 888.28 3.08872 887.703 3.58842C869.97 5.51947 852.246 7.45897 834.513 9.39002C816.78 11.3211 798.648 11.3295 781.882 15.3271L780.814 15.9962L779.991 16.9533C769.704 43.2765 764.981 73.3093 757.789 100.674C721.043 106.992 684.305 113.311 647.559 119.629C629.495 99.4885 611.431 79.3565 593.368 59.2161C616.197 59.2415 639.019 59.2669 661.848 59.2838C663.477 61.579 665.105 63.8658 666.733 66.161C664.511 70.4212 661.993 74.6729 660.195 79.1109C660.915 90.1975 660.975 101.614 662.501 112.599C662.798 112.879 663.103 113.141 663.426 113.395L664.028 113.497L664.571 113.412C664.876 113.201 665.164 112.98 665.444 112.743C668.769 100.581 670.804 87.8938 673.407 75.5452C674.781 77.4763 676.155 79.4158 677.537 81.3468L677.665 81.8635C677.868 82.1345 678.089 82.3886 678.318 82.6342L679.649 83.0746L680.192 82.9899C680.497 82.7782 680.785 82.558 681.065 82.3208L681.294 81.7618C685.221 78.8229 689.139 75.8925 693.065 72.9536C696.118 77.4848 699.171 82.0159 702.224 86.5471L702.92 87.14C712.24 91.4425 721.552 96.5072 731.177 100.022C731.397 99.9797 731.618 99.9289 731.838 99.8781C732.025 99.7595 732.203 99.624 732.373 99.4885L732.729 98.9295C732.78 98.7178 732.822 98.4976 732.856 98.2858C732.814 98.0656 732.763 97.8454 732.712 97.6252C722.527 87.1061 710.035 78.12 698.866 68.6087C701.512 66.6269 704.277 64.7297 706.702 62.5191C706.761 62.2735 706.821 62.0195 706.88 61.7738L706.617 60.8761C705.795 59.5633 704.972 58.2505 704.149 56.9378C717.532 53.118 730.914 49.3068 744.297 45.487L745.229 44.8518L745.526 43.8778L745.416 43.2511C745.314 43.0647 745.204 42.8784 745.085 42.7005C744.907 42.565 744.737 42.438 744.551 42.3109C734.366 41.4217 723.74 42.2771 713.495 42.3279L712.613 42.582C708.407 45.1652 704.192 47.7484 699.986 50.3315C696.678 45.0635 693.371 39.787 690.063 34.519L689.944 33.7906C689.69 33.4942 689.427 33.2062 689.156 32.9267C688.766 32.7828 688.367 32.6811 687.952 32.6218L687.002 32.9098L686.357 33.7229C684.5 34.9509 682.651 36.179 680.794 37.4071C684.229 25.8886 688.07 14.3955 691.055 2.7584C691.013 2.52973 690.962 2.30953 690.903 2.08085C690.776 1.90299 690.64 1.72513 690.513 1.55574L689.953 1.21696L689.308 1.09839L688.545 1.28472C682.066 9.08512 677.173 18.9182 671.745 27.5147L671.482 28.3871C671.397 33.5027 671.313 38.6267 671.219 43.7423C668.65 45.4447 666.072 47.147 663.502 48.8494C635.262 40.2952 606.148 28.3363 577.178 22.8819C569.266 24.3217 560.472 31.1905 553.348 34.9679C544.588 39.6176 535.819 44.2674 527.058 48.9256C519.036 46.5542 518.103 60.7406 526.753 59.1652C559.539 80.61 592.325 102.055 625.111 123.5C611.38 125.862 597.65 128.225 583.92 130.58C577.467 131.69 571.013 132.799 564.559 133.909C559.963 134.696 551.915 134.374 548.633 137.999L548.87 137.703C543.154 148.171 540.61 161.799 536.862 173.156C532.74 185.657 528.61 198.158 524.489 210.659C516.33 235.365 508.18 260.079 500.022 284.784C495.298 299.098 490.575 313.402 485.86 327.716C481.034 283.598 476.209 239.481 471.383 195.363C469.992 182.642 468.602 169.929 467.211 157.208L468.245 155.531L468.466 154.286L468.161 152.846L467.321 151.644L466.066 150.805C463.327 149.543 460.223 149.882 458.671 152.66C448.782 157.386 438.894 162.112 429.006 166.838C419.117 171.564 408.161 175.155 399.57 181.253C391.802 193.796 387.96 210.795 382.702 224.6C377.164 239.134 371.626 253.676 366.097 268.209C363.375 269.132 360.661 270.064 357.939 270.987C354.156 268.108 350.374 265.228 346.592 262.348C335.067 259.282 319.793 257.445 307.869 257.521L307.284 257.927L306.911 258.495L306.775 259.138L307.004 259.918L307.751 260.494C320.166 265.465 332.582 270.437 344.997 275.4C342.97 276.094 340.935 276.78 338.908 277.475L338.204 277.339M338.204 277.339L338.459 277.399C338.374 277.373 338.289 277.356 338.204 277.339Z" stroke="#70EE86" stroke-miterlimit="10"/>
<path d="M123.663 380.413C116.946 370.368 110.806 357.512 102.495 348.763C95.711 341.623 83.0326 352.43 75.5188 356.14C73.8651 346.256 73.2121 335.364 70.1845 325.827L69.2432 324.709L67.9795 323.972C62.2552 323.21 56.0559 324.082 50.2806 324.286C50.2806 315.562 51.2983 306.093 50.0007 297.48L49.229 296.201L48.0587 295.269C42.4954 293.694 36.3555 293.465 30.6141 292.72C30.6141 285.462 31.5216 277.5 30.3343 270.352L29.5626 269.073L28.3922 268.141C23.1004 266.583 15.3746 265.338 9.87068 265.838L8.75973 266.363L7.84383 267.193C5.07916 272.173 2.25512 278.55 1 284.106C1.05088 285.233 1.47491 286.266 2.22968 287.096C8.03887 291.128 14.5774 294.346 20.7173 297.861C18.4106 303.442 15.1965 309.252 13.9244 315.147C13.9753 316.274 14.3993 317.307 15.1541 318.137C22.0827 322.829 29.7576 326.666 37.0255 330.833C35.3378 338.159 33.3364 345.493 32.0559 352.896L32.2509 354.166L32.8022 355.301L33.6756 356.233C43.3944 361.272 54.7668 364.262 65.0453 368.073C67.0467 378.076 68.1068 389.052 71.4396 398.682L72.381 399.757L73.6276 400.46C88.7315 402.629 107.041 398.546 122.306 397.505C125.851 406.863 128.709 417.044 133.271 425.945L134.204 426.809L135.341 427.36L136.604 427.554C154.744 424.387 172.757 419.161 190.693 414.943L191.635 408.117L191.558 408.1L190.617 414.926C196.392 424.37 202.176 433.805 207.951 443.248C213.998 453.124 214.541 456.418 225.532 451.523C245.876 442.461 266.23 433.407 286.583 424.344C292.791 431.137 298.999 437.929 305.207 444.722C308.633 448.466 314.891 459.222 320.76 458.121C332.624 451.879 343.581 442.418 354.58 434.736C366.19 426.631 377.792 418.517 389.402 410.412C400.291 415.849 411.171 421.278 422.06 426.716C434.4 432.873 436.35 435.736 444.424 423.768C458.188 403.365 471.96 382.954 485.724 362.551C486.089 362.466 486.436 362.339 486.767 362.17C491.889 372.503 497.02 382.827 502.142 393.16C520.028 429.197 536.048 467.268 556.655 501.806L553.068 495.793C528.271 493.93 503.465 492.058 478.668 490.195C477.286 487.705 475.895 485.223 474.513 482.733C477.727 477.423 481.628 472.104 484.096 466.446C484.18 455.597 484.995 444.442 484.223 433.635L483.375 432.899L482.79 432.805L482.213 432.89L481.679 433.144L480.941 434.177C477.099 447.314 473.266 460.45 469.424 473.586C468.025 471.054 466.617 468.53 465.209 466.006L465.303 465.481L465.176 464.896L464.327 464.117L463.717 464.007C457.178 466.59 450.962 471.054 444.839 474.569C442.541 470.274 440.251 465.989 437.953 461.703L437.224 460.992C427.513 456.02 417.727 449.854 407.55 446.009L406.88 446.153L406.329 446.526L405.964 447.068L405.828 447.703L405.947 448.296C415.547 459.12 426.826 468.843 437.198 478.956C434.238 480.658 431.143 482.233 428.429 484.275L428.183 485.138C429.345 487.857 430.872 490.457 432.296 493.074C417.337 496.623 401.749 499.299 387.095 503.915L386.383 504.881L386.298 505.457L386.391 506.041L387.137 506.896C395.762 507.693 404.607 507.456 413.283 507.667C422.467 507.896 428.039 504.288 436.113 500.087C438.792 505.008 441.464 509.937 444.144 514.858L444.195 515.713L444.814 516.442L446.264 516.933L446.824 516.848L447.349 516.603L448.087 515.663C449.97 514.621 451.844 513.587 453.718 512.546C449.037 524.835 443.711 537.082 439.717 549.6L439.853 550.201L440.743 550.955L441.362 551.056L442.193 550.862C450.207 541.935 459.154 529.866 464.726 519.254C465.142 514.782 465.557 510.301 465.973 505.829C468.737 504.313 471.511 502.797 474.275 501.281C488.607 506.905 502.931 512.529 517.263 518.152C530.934 523.514 545.792 531.805 560.175 534.66C569.911 532.906 580.07 527.02 589.272 523.31C600 518.982 610.719 514.663 621.447 510.344C622.108 510.437 622.761 510.411 623.414 510.267C625.687 509.2 627.409 507.345 627.841 504.847L627.612 503.526L626.925 502.374L625.789 501.535C624.992 501.273 624.161 501.112 623.321 501.069C613.984 490.5 604.647 479.921 595.31 469.351C562.499 432.196 529.696 395.04 496.884 357.884C512.353 355.208 527.822 352.54 543.29 349.872C570.988 345.095 598.685 340.31 626.383 335.533C653.3 330.892 681.566 328.182 707.983 321.296L708.933 320.678L709.687 319.831C716.302 304.408 720.542 287.494 725.817 271.555C732.576 310.591 739.327 349.618 746.086 388.645C743.347 392.779 746.434 396.827 751.039 396.42L752.319 396.234L753.489 395.667L754.448 394.71C754.821 394.049 755.101 393.354 755.304 392.626C769.331 381.446 787.649 370.699 799.319 357.13C803.304 343.596 803.05 327.428 804.661 313.386C806.374 298.471 808.087 283.548 809.8 268.633C812.209 267.184 814.617 265.736 817.026 264.288C820.978 266.481 824.921 269.005 829.077 270.725C840.169 270.293 851.61 270.555 862.626 269.285L863.135 268.895L863.449 268.353L863.55 267.743L863.474 267.218L862.829 266.354C851.33 262.958 839.364 260.663 827.686 257.885C829.255 256.945 830.815 256.005 832.376 255.065L833.436 254.971L833.962 254.599L834.318 254.057C834.42 253.642 834.487 253.227 834.538 252.803L834.267 251.88L833.478 251.245C830.722 246.434 827.966 241.623 825.21 236.813C829.331 234.196 833.461 231.57 837.591 228.953L838.202 228.276C842.731 219.129 848.328 209.914 851.839 200.352L851.695 199.691L851.304 199.157L850.745 198.802L850.092 198.675L849.447 198.81C839.347 208.279 830.519 219.637 821.249 229.936C819.969 227.7 818.68 225.455 817.399 223.219L816.763 222.584L815.923 222.364C813.193 223.482 810.64 225.116 808.062 226.582C804.526 212.87 801.54 198.827 797.317 185.318L796.461 184.683L795.943 184.607L795.324 184.717L794.781 185.039L794.391 185.564C793.399 195.761 793.823 206.297 793.611 216.554L793.84 217.435C796.35 221.763 798.852 226.082 801.362 230.41L804.814 229.258M123.663 380.413L122.917 388.993M123.663 380.413C133.339 373.477 142.965 364.956 153.43 359.324C159.926 358.342 167.643 370.961 171.629 375.221C178.795 382.869 185.953 390.509 193.119 398.157C203.007 387.765 212.751 374.273 224.344 365.863L225.998 365.532L227.296 365.735C246.453 376.153 264.084 392.296 281.715 405.161M281.715 405.161L282.674 414.088M281.715 405.161C288.067 395.243 294.419 385.317 300.78 375.399C307.378 365.1 308.175 359.307 320.124 364.914C341.232 374.832 362.34 384.75 383.448 394.659M383.448 394.659L384.279 401.206M383.448 394.659C386.603 379.244 388.028 361.696 393.472 346.959L394.414 345.883L395.652 345.18C408.33 343.503 423.315 346.815 436.096 347.738C449.851 348.729 463.615 349.728 477.371 350.719C459.502 304.696 441.642 258.673 423.773 212.649C408.491 232.188 393.209 251.728 377.927 271.258C378.911 274.206 379.886 277.161 380.87 280.109C386.747 281.303 393.108 282.006 398.747 283.979C406.872 291.322 415.522 298.386 423.154 306.22L423.273 306.771L423.12 307.415L422.713 307.974L422.12 308.363L421.399 308.507C408.686 303.984 396.381 296.328 384.262 290.323L383.363 286.148C384.118 290.408 385.636 294.456 387.002 298.547L387.663 299.123L387.875 299.885L387.544 300.851L386.586 301.511C379.861 303.654 373.136 305.797 366.411 307.948C367.988 312.412 369.557 316.866 371.135 321.33L371.168 322.338C368.293 332.95 365.885 343.876 362.408 354.302L361.518 354.954L360.983 355.03L360.39 354.928L359.491 354.132C358.057 339.81 358.346 325.082 357.845 310.684C354.945 311.607 352.053 312.589 349.119 313.369L348.144 313.089L347.542 312.327C346.566 309.481 345.591 306.627 344.616 303.781C331.666 312.589 318.937 322.024 305.597 330.214L305.079 330.291L304.384 330.155L303.799 329.782L303.4 329.24L303.247 328.605L303.646 327.614C309.328 321.067 315.01 314.52 320.692 307.965C326.688 301.045 333.54 299.428 342.072 296.328C340.316 291.212 338.561 286.088 336.805 280.973L336.178 280.405L335.974 279.66L336.288 278.72L336.958 277.746L337.509 277.458L338.137 277.348L338.84 277.483C340.867 276.789 342.903 276.103 344.93 275.408C332.514 270.437 320.098 265.465 307.674 260.494L306.928 259.918L306.699 259.138L306.835 258.495L307.208 257.927L307.793 257.521C319.7 257.173 334.939 259.528 346.515 262.357C350.298 265.236 354.08 268.116 357.862 270.996C360.585 270.073 363.298 269.141 366.021 268.218C371.559 253.676 377.096 239.142 382.626 224.6C387.901 210.744 391.793 193.881 399.502 181.253C407.974 175.079 419.465 171.361 428.938 166.829C438.411 162.298 448.715 157.377 458.603 152.651C460.163 149.873 463.267 149.535 465.998 150.797L467.253 151.635L468.093 152.838L468.398 154.278L468.178 155.523L467.143 157.2C471.968 201.317 476.794 245.443 481.628 289.569C483.019 302.29 484.409 315.003 485.8 327.724M485.8 327.724L479.525 333.23L481.034 328.444M485.8 327.724C502.159 278.152 518.518 228.589 534.877 179.017C539.355 165.457 542.968 151.093 548.582 137.982L549.337 137.135L550.287 136.517C574.49 130.199 600.39 127.743 625.06 123.499M625.06 123.499L633.846 118.748M625.06 123.499C592.274 102.055 559.479 80.6015 526.694 59.1567C518.026 60.7066 519.002 46.5287 526.999 48.9171C535.768 44.2673 544.528 39.6176 553.297 34.9594C560.54 31.1142 569.122 24.5419 577.128 22.8734C606.08 28.1838 635.262 40.2951 663.46 48.8409C666.029 47.1385 668.607 45.4361 671.177 43.7338C671.262 38.6182 671.347 33.4941 671.44 28.3786L671.703 27.5062C677.156 18.8588 682.117 9.22903 688.503 1.27617L689.266 1.08984L689.911 1.20842L690.47 1.5472L690.86 2.07231L691.013 2.74987C688.028 14.387 684.186 25.8801 680.752 37.407C682.609 36.179 684.458 34.9509 686.315 33.7228L686.959 32.9097L687.909 32.6218C688.325 32.6811 688.723 32.7827 689.113 32.9267L689.902 33.7906L690.021 34.5189C693.328 39.7954 696.636 45.0635 699.943 50.34C704.15 47.7568 708.364 45.1736 712.571 42.5904L713.453 42.3363C723.723 42.277 734.29 41.5486 744.509 42.3194L745.043 42.7089L745.374 43.2595L745.484 43.8862L745.187 44.8602L744.254 45.4954C730.872 49.3152 717.489 53.1264 704.099 56.9462C704.921 58.2589 705.744 59.5717 706.567 60.8845L706.829 61.7822L706.651 62.5276C704.226 64.7466 701.461 66.6437 698.815 68.6256C710.01 78.1538 722.374 87.1738 732.661 97.6421L732.805 98.3027L732.678 98.9464L732.322 99.5054L731.788 99.895L731.126 100.039C721.484 96.6512 712.155 91.4509 702.861 87.1569L702.165 86.564C699.112 82.0328 696.059 77.5016 693.006 72.9705C689.079 75.9094 685.162 78.8398 681.235 81.7787L681.006 82.3377L680.133 83.0068L679.59 83.0915L678.258 82.6511L677.605 81.8804L677.478 81.3637C676.104 79.4327 674.73 77.4932 673.348 75.5621C670.745 87.8937 668.786 100.632 665.385 112.76L664.511 113.429L663.969 113.514L663.366 113.412L662.442 112.616C660.907 101.631 660.848 90.2059 660.135 79.1278C661.925 74.6898 664.452 70.4381 666.674 66.1779C665.046 63.8827 663.417 61.5959 661.789 59.3007C638.959 59.2753 616.13 59.2499 593.3 59.2329C611.364 79.3734 629.436 99.5139 647.499 119.654C684.246 113.336 720.992 107.018 757.738 100.691C764.93 73.3092 769.696 43.3357 779.94 16.9701L780.763 16.0131L781.832 15.344C798.657 11.4311 817.272 11.2787 834.462 9.40689C852.195 7.47585 869.928 5.53633 887.661 3.60528C888.237 3.10558 888.865 2.68211 889.552 2.33486L890.951 2.08079L892.113 2.25017L893.181 2.72446L894.089 3.4613C896.387 5.64643 896.743 8.94954 894.123 11.0161C889.509 28.0991 884.904 45.182 880.291 62.265C875.89 78.5857 872.896 96.4394 866.637 112.125L865.823 113.065L864.772 113.734C850.533 117.088 834.886 117.384 820.333 119.07C805.051 120.84 789.769 122.61 774.487 124.38C761.19 164.61 747.884 204.849 734.586 245.079C747.248 272.537 759.909 299.987 772.571 327.445C781.391 307.05 790.21 286.656 799.03 266.261C797.639 263.78 796.249 261.298 794.858 258.817C789.422 258.579 783.977 258.351 778.541 258.114L777.668 257.834C769.145 252.16 759.697 246.942 751.861 240.395L751.683 239.65L751.81 239.006L752.158 238.447L752.684 238.058L753.354 237.905C765.608 241.268 777.659 245.74 789.752 249.686C788.234 246.968 786.818 244.13 784.995 241.632L784.791 240.819L785.198 239.599L785.987 238.973L786.504 238.862C792.246 235.593 798.377 230.91 804.814 229.258M804.814 229.258L803.338 228.962" stroke="#70EE86" stroke-miterlimit="10"/>
<path d="M595.242 277.848C591.282 276.95 587.593 274.587 584.404 272.139C569.538 253.549 573.829 228.267 585.498 208.677C596.286 190.57 614.722 179.796 635.483 176.874C656.243 173.952 680.718 180.169 684.458 204.121C687.587 224.168 679.183 247.434 664.715 261.51C647.661 278.102 617.911 285.911 595.234 277.848H595.242Z" stroke="#70EE86" stroke-miterlimit="10"/>
<path d="M583.259 297.395C546.394 290.137 552.263 247.721 561.608 220.712C572.582 189.019 591.96 169.37 624.992 161.638C652.545 155.184 699.485 152.609 704.54 189.621C708.263 216.926 697.475 251.152 679.573 271.809C657.583 297.183 614.518 302.316 583.259 297.387V297.395Z" stroke="#70EE86" stroke-miterlimit="10"/>
<path d="M541.102 286.436C535.793 255.496 547.717 217.468 562.32 190.366C579.485 158.504 616.986 148.874 650.934 146.443C670.685 145.029 694.295 143.784 710.433 157.013C721.992 172.775 719.804 191.111 716.437 209.422C713.334 226.319 709.416 243.656 701.893 259.198C693.532 276.458 682.244 290.128 664.375 297.946C647.872 305.162 629.3 308.041 611.524 310.099C591.366 312.437 570.64 313.258 552.313 303.603C546.792 298.378 543.264 293.923 541.085 286.436H541.102Z" stroke="#70EE86" stroke-miterlimit="10"/>
<path d="M528.771 295.981C525.226 260.002 539.558 217.629 555.18 185.615C565.017 165.457 579.188 154.659 600.627 148.247C618.19 142.996 636.568 139.015 654.843 137.618C674.815 136.094 697.238 133.891 716.158 141.675C718.431 143.445 720.797 145.097 723.146 146.774C736.392 162.772 729.879 187.935 725.893 206.297C721.628 225.963 717.438 246.824 708.491 264.957C698.628 284.945 686.908 300.088 665.003 307.16C646.388 313.165 626.739 316.629 607.352 318.975C584.344 321.753 561.048 323.515 539.592 314.012C537.328 311.937 534.97 309.989 533.088 307.55C531.383 303.696 529.967 300.021 528.771 295.981Z" stroke="#70EE86" stroke-miterlimit="10"/>
<path d="M538.422 326.768L535.369 326.276C532.884 325.099 530.416 323.879 527.881 322.829C525.591 320.72 523.649 318.273 521.605 315.918C512.751 296.328 521.495 269.548 526.609 249.941C531.909 229.606 538.532 209.363 546.267 189.824C555.18 167.321 565.407 152.626 589.238 145.08C608.522 138.973 629.758 133.392 649.933 131.918C676.554 129.97 701.868 126.489 727.886 133.163C730.227 134.832 732.576 136.492 734.9 138.194C745.17 158.131 738.979 181.143 733.594 201.953C728.523 221.543 725.563 244.054 717.006 262.349C707.525 282.625 697.984 302.74 675.68 310.828C655.505 318.146 633.108 321.398 611.957 324.489C589.602 327.75 560.387 333.916 538.422 326.776V326.768Z" stroke="#70EE86" stroke-miterlimit="10"/>
<path d="M807.384 96.6512C804.484 96.0838 801.659 95.1352 798.827 94.2967C796.613 92.3064 794.324 90.3923 792 88.5374C786.14 75.4944 790.397 56.9632 798.81 45.9105C808.605 33.0369 825.532 32.1814 840.39 33.2062C843.087 34.2311 845.843 35.1203 848.591 35.9927C850.923 38.0169 853.365 39.8378 855.197 42.3279C858.912 56.455 857.275 72.3692 847.556 84.0909C837.838 95.8127 821.623 97.3372 807.392 96.6597L807.384 96.6512Z" stroke="#70EE86" stroke-miterlimit="10"/>
<path d="M511.047 322.838C505.602 299.42 515.1 273.723 521.266 251.22C527.05 230.139 534.131 209.355 541.645 188.842C545.469 178.391 549.235 167.152 555.722 157.988C562.99 147.723 574.168 143.92 585.82 140.701C607.454 134.73 630.318 128.7 652.528 127.243C679.225 125.499 704.573 121.137 731.355 123.068C733.967 123.847 736.579 124.626 739.183 125.414C741.43 127.277 743.686 129.141 745.933 130.995C756.212 150.213 744.831 180.779 739.301 200.183C735.977 211.862 732.05 223.465 729.099 235.238C726.148 247.011 725.402 257.115 719.347 268.1C713.902 277.975 710.272 289.002 704.039 298.437C696.915 309.219 685.56 313.903 673.458 317.002C650.272 322.948 626.467 327.09 602.764 330.3C576.924 333.797 550.185 338.617 524.293 333.857C521.936 332.527 519.459 331.502 516.983 330.401C514.829 327.945 512.607 325.709 511.047 322.829V322.838Z" stroke="#70EE86" stroke-miterlimit="10"/>
<path d="M780.407 101.572L778.363 100.454C773.249 79.7544 780.95 55.6587 790.372 37.2884C792.297 35.1795 794.179 33.0282 796.181 30.9955C815.415 21.4504 833.529 22.6446 854.247 23.102C856.859 24.059 859.429 25.1177 862.117 25.8376C864.551 27.8534 866.281 30.445 868.223 32.9351C873.456 52.9908 865.467 81.0672 852.509 96.6934C833.928 108.017 814.092 106.425 793.23 107.06C790.609 106.128 787.938 105.696 785.173 105.383L780.398 101.555L780.407 101.572Z" stroke="#70EE86" stroke-miterlimit="10"/>
<path d="M506.603 337.744L506.459 337.609C504.831 334.797 503.152 332.01 501.481 329.215L501.388 328.868C501.167 303.087 509.351 278.085 516.78 253.634C523.81 230.486 531.307 207.526 539.321 184.7C544.011 171.344 548.463 156.497 558.716 146.325C571.853 139.321 585.964 136.289 600.551 133.392C613.781 130.767 624.984 127.675 637.458 122.907C653.207 126.642 671.949 121.459 687.774 119.417C696.619 118.274 705.507 116.978 714.411 116.377C723.316 115.776 733.187 117.283 742.261 116.402C744.678 117.478 747.434 118.181 750.097 118.147L756.288 123.144L756.661 123.661C759.307 144.995 752.938 165.957 747.112 186.343C741.388 206.365 735.299 226.269 729.931 246.341C730.143 250.136 730.728 253.862 730.083 257.648C729.083 259.884 728.065 262.111 727.124 264.364L727.03 264.483L726.92 264.525C725.656 265.677 724.384 266.829 723.121 267.981C715.412 281.879 711.485 297.234 701.817 310.04C680.811 324.227 650.51 325.844 626.01 330.003C601.34 334.187 576.687 337.693 551.856 340.564C538.711 342.08 526.762 340.954 513.761 340.615C511.386 339.65 509.003 338.667 506.62 337.736L506.603 337.744Z" stroke="#70EE86" stroke-miterlimit="10"/>
<path d="M412.893 390.517C412.274 387.383 411.035 384.131 411.807 380.972C413.52 378.304 415.216 375.602 417.006 373.002C424.307 370.952 429.252 370.512 436.698 372.299L439.021 373.747L442.363 380.091L442.473 382.649C439.717 388.848 437.588 394.345 431.067 397.436L422.654 398.758C420.11 397.462 417.803 395.683 415.428 394.074L412.893 390.517Z" stroke="#70EE86" stroke-miterlimit="10"/>
<path d="M319.344 421.753C316.944 419.796 314.416 418.094 312.712 415.451C312.076 412.546 311.406 409.641 310.854 406.728C312.457 403.873 314.119 401.045 315.824 398.25C318.445 397.157 321.158 396.2 323.83 395.209C327.341 395.268 330.775 396.132 334.201 396.784C335.058 397.199 335.906 397.614 336.763 398.038C339.324 400.918 341.936 403.628 343.81 407.024C342.92 410.039 341.868 413.046 340.52 415.892C337.602 418.06 334.609 420.093 331.589 422.125C328.333 423.158 324.822 422.811 321.438 422.871L319.327 421.753H319.344Z" stroke="#70EE86" stroke-miterlimit="10"/>
<path d="M568.079 66.3472L567.027 65.8136C564.78 63.1203 562.566 60.3931 560.149 57.8438L561.693 52.2709L563.635 49.0017C565.848 47.8752 568.07 46.7488 570.301 45.6393C573.209 45.563 576.135 45.5546 579.044 45.7494L581.427 49.3404L582.14 55.972L581.766 56.9884L581.826 57.3695L579.154 64.6109L579.027 67.6007C575.771 67.3889 572.514 67.3042 569.249 67.1857L568.07 66.3557L568.079 66.3472Z" stroke="#70EE86" stroke-miterlimit="10"/>
<path d="M768.763 358.723L762.606 359.892C760.715 357.613 758.764 355.377 757.034 352.972C756.822 348.407 756.364 343.723 756.619 339.167C759.443 338.887 762.259 338.21 765.057 337.668L766.626 338.87L773.979 339.937L774.606 340.242C776.404 342.707 778.202 345.163 780.008 347.619V347.679C778.626 350.194 777.244 352.709 775.853 355.225C775.785 355.284 775.717 355.352 775.649 355.411L768.772 358.723H768.763Z" stroke="#70EE86" stroke-miterlimit="10"/>
<path d="M416.378 199.843C416.879 197.099 416.624 194.482 416.506 191.687C419.321 189.341 421.645 186.546 424.079 183.819C428.361 181.617 432.729 179.703 436.961 177.365C440.421 176.713 443.949 176.578 447.434 176.086C449.851 177.653 452.2 179.322 454.524 181.024C455.491 184.293 456.72 187.41 458.188 190.485C458.781 198.929 459.935 207.466 460.749 215.935L459.358 220.627L459.672 225.015L459.231 227.157L459.587 229.715L454.812 233.908L454.32 237.507L451.047 235.076L450.657 234.196L446.349 229.453C443.33 223.109 438.581 216.613 434.544 210.786L430.371 207.61L429.583 206.526C427.734 205.484 426.038 204.053 424.596 202.469L418.583 200.58L417.896 200.724L416.378 199.835V199.843Z" stroke="#70EE86" stroke-miterlimit="10"/>
<path d="M499.141 345.205L496.079 344.815L493.247 341.597L491.881 336.202L492.136 334.042L492.492 333.551C503.372 284.758 518.069 236.787 534.768 189.646C539.864 175.248 545.284 161.341 551.296 147.332C553.12 145.308 555.163 143.479 557.258 141.734C580.639 133.603 605.869 132.426 629.012 124.177L633.566 118.951L633.176 118.748L633.422 118.087C636.585 118.917 639.799 119.544 643.014 120.179L645.804 121.687C661.255 122.508 677.504 117.723 692.862 115.733C701.487 114.615 710.052 113.056 718.686 112.057C727.319 111.057 736.461 111.845 744.814 109.956L746.858 110.236C748.792 109.787 750.776 109.533 752.761 109.482L753.151 109.355L758.638 109.618L761.699 106.916L762.064 107.034L762.115 106.738L765.499 104.773C769.094 79.4408 775.336 52.1097 786.462 28.9965C788.371 27.04 790.482 25.236 792.721 23.6607C816.831 15.7333 840.747 15.6994 865.747 16.072C868.071 17.4102 870.708 18.3842 873.295 19.0533L876.433 23.2542L878.383 28.2427C878.731 52.3723 870.403 76.0191 861.778 98.116C860.006 100.31 858.089 102.419 856.037 104.35C843.859 109.558 832.054 111.269 818.935 112.599C806.85 113.818 793.349 112.819 781.586 114.987L777.371 114.513L773.606 116.571H773.309L773.123 116.766L768.874 117.367L768.043 120.264L766.745 121.873C762.547 143.089 757.306 164.144 750.793 184.793C744.772 203.883 734.239 225.777 732.39 245.697C732.857 249.424 732.992 253.269 734.052 256.894C733.671 258.935 733.552 261.027 733.696 263.085L733.196 265.075C732.017 265.854 730.957 266.811 730.058 267.887C728.667 268.387 727.217 268.742 725.742 268.963C725.063 269.852 724.334 270.724 723.571 271.546C717.905 283.352 714.021 295.946 708.73 307.922C707.008 310.226 705.286 312.53 703.548 314.816C680.328 325.522 652.673 328.283 627.511 332.306C603.511 336.143 579.604 340.411 555.511 343.596C540.831 345.535 525.524 345.391 511.056 347.585C508.563 346.916 505.908 346.67 503.347 346.984L499.183 345.214L499.141 345.205Z" stroke="#70EE86" stroke-miterlimit="10"/>
<path d="M558.165 509.852L559.777 508.285C560.43 504.211 561.532 500.256 562.168 496.191L561.312 492.769L561.6 489.635L560.031 485.883L560.116 483.097C557.979 476.27 556.367 469.198 554.264 462.304C556.545 460.17 558.852 458.053 561.074 455.85C566.731 460.695 573.057 464.659 578.714 469.478C584.709 474.585 588.543 481.318 593.665 487.179C594.767 489.847 595.751 492.549 597.244 495.03C597.218 497.935 596.93 500.967 595.7 503.635C589.247 508.836 583.675 511.232 576.254 514.434C573.125 514.476 569.936 514.739 566.909 515.552C564.602 514.298 562.134 513.206 559.565 512.655L558.148 509.86L558.165 509.852Z" stroke="#70EE86" stroke-miterlimit="10"/>
<path d="M410.671 409.277C405.108 405.745 401.444 402.679 397.136 397.581L396.814 396.641C395.991 384.419 397.95 375.247 403.047 364.245C405.226 362.449 407.431 360.679 409.704 359.011C426.436 354.412 442.057 357.859 457.543 364.253L460.842 367.997C461.071 370.741 461.385 373.502 461.376 376.238C455.177 392.008 447.002 405.297 432.474 414.52C429.209 414.681 425.927 414.478 422.654 414.393C418.617 412.809 414.682 410.937 410.671 409.277Z" stroke="#70EE86" stroke-miterlimit="10"/>
<path d="M161.639 403.407C158.264 404.127 154.812 404.923 151.361 405.084L147.222 403.323L144.432 400.451L142.643 394.675L145.017 389.61C147.392 388.052 149.597 386.316 152.276 385.376L152.913 385.401C157.348 387.408 160.681 390.855 163.997 394.32C163.327 397.284 162.674 400.257 161.97 403.221L161.639 403.399V403.407Z" stroke="#70EE86" stroke-miterlimit="10"/>
<path d="M319.759 438.878C310.609 434.813 306.657 429.596 299.525 423.057C297.981 420.144 296.132 417.374 294.131 414.757C294.267 412.047 294.326 409.328 294.674 406.635C299.779 395.659 304.85 387.469 315.112 380.54C318.173 379.956 321.235 379.905 324.347 379.77C338.467 384.775 349.611 390.145 361.891 398.877C363.086 401.833 364.342 404.738 365.274 407.787C363.409 410.395 362.154 413.326 360.737 416.197C357.947 418.831 354.758 421.118 352.308 424.125C345.32 428.071 338.705 433.229 331.768 437.447C328.291 438.446 324.593 439.116 320.997 439.42L319.751 438.87L319.759 438.878Z" stroke="#70EE86" stroke-miterlimit="10"/>
<path d="M220.749 434.542C213.125 428.969 209.24 423.396 205.365 414.876C205.17 412.132 205.017 409.388 204.856 406.644C206.425 403.823 208.011 401.011 209.622 398.216C215.151 392.796 218.238 389.493 225.362 386.435C228.661 385.936 232.138 386.241 235.386 386.986C241.322 390.162 246.869 393.558 252.322 397.488C254.976 400.529 257.58 403.069 260.667 405.678C261.701 408.651 263.117 411.471 264.424 414.342C262.439 417.298 260.488 420.28 258.411 423.159C248.446 428.012 240.237 432.281 229.67 435.804C226.676 435.719 223.666 435.228 220.757 434.542H220.749Z" stroke="#70EE86" stroke-miterlimit="10"/>
<path d="M678.25 57.6743L681.074 53.2448L685.806 54.3797L687.638 57.6489L685.679 61.0367L681.006 62.485L678.25 57.6743Z" stroke="#70EE86" stroke-miterlimit="10"/>
<path d="M810.521 253.786L808.571 253.938L805.908 252.185L803.644 247.095V244.334C804.542 243.352 805.552 242.471 806.654 241.717L812.378 241.471L814.991 242.979C815.686 244.63 816.144 246.392 816.347 248.188L814.516 251.982L810.521 253.794V253.786Z" stroke="#70EE86" stroke-miterlimit="10"/>
<path d="M743.16 335.101C743.109 332.797 742.711 330.57 742.066 328.343L742.372 326.454C742.219 324.269 742.474 322.067 742.804 319.881C742.278 317.79 741.88 315.681 741.829 313.538L741.261 311.429L743.915 306.949L743.16 301.884L743.534 300.571L743.016 298.75L745.085 299.546L745.501 300.419L750.352 304.255L751.344 306.356L754.702 309.93C757.281 315.85 762.394 322.058 766.49 327.064L768.662 327.944L770.756 331.578L776.65 331.519L776.862 329.41L779.551 326.335L780.585 326.268C784.579 323.803 788.099 321.398 792.365 319.314L792.416 319.263H792.509L792.5 319.323C792.653 321.516 792.789 323.718 792.924 325.92L795.367 332.01C794.663 339.632 794.604 347.111 791.746 354.335C781.993 364.871 772.359 370.715 760.232 377.923C757.416 377.237 754.635 376.068 752.218 374.467L751.921 372.926C750.691 370.571 749.419 368.225 748.317 365.82C747.062 356.19 745.739 344.443 743.135 335.093L743.16 335.101Z" stroke="#70EE86" stroke-miterlimit="10"/>
<path d="M542.273 59.1741L541.832 58.8692C541.908 55.9303 542.264 53.0168 542.544 50.0863C546.148 47.952 549.718 44.6997 552.721 41.7947C558.818 39.4317 564.161 35.2901 570.191 32.7069C579.858 30.6488 587.067 32.3851 596.311 35.5527C600.466 38.6949 604.571 43.0058 609.464 44.8945C606.377 47.0288 603.171 48.9853 600.017 51.018L599.016 52.7542L595.098 53.5758L593.444 52.7966L590.111 57.6072L590.951 61.4778L590.883 62.1723C592.325 66.153 594.14 69.7101 596.048 73.4791L598.015 75.588L599.771 79.6449L602.103 81.9994L603.138 86.1494L605.724 88.7072L604.588 95.4998L605.487 96.262L604.13 97.0497L603.791 96.7363L603.324 96.6262L598.796 92.8996L593.317 92.9928L591.943 91.8409L590.502 91.3412L586.609 88.4193L581.334 87.1488C577.119 84.4301 573.422 82.101 568.715 80.1869C563.194 75.8251 555.757 69.5746 549.345 66.7035C547.42 63.7391 544.579 61.7742 542.239 59.1826L542.273 59.1741Z" stroke="#70EE86" stroke-miterlimit="10"/>
<path d="M492.296 353.844L491.813 354.386L490.694 354.513C488.463 353.7 486.275 352.777 484.181 351.651C483.655 346.815 480.924 342.233 481.229 337.371L482.79 333.213L486.759 332.484C487.624 330.426 488.438 328.317 489.464 326.352C501.803 278.508 518.484 230.943 534.725 184.277C539.448 170.708 546.292 156.7 549.947 142.945C551.898 141.184 554.052 139.752 556.316 138.406C580.003 133.527 604.172 129.496 627.714 123.965L630.75 120.484L627.163 118.579L628.232 115.682L627.333 114.2L628.8 110.694C630.106 111.659 631.48 112.514 632.921 113.26C635.169 113.734 637.407 114.293 639.604 114.962C640.681 116.046 641.733 117.156 642.75 118.291L647.55 120.823C663.613 117.283 680.523 115.284 696.822 112.879C713.122 110.473 732.398 105.121 749.351 105.688L752.345 104.706C753.43 104.731 754.524 104.655 755.593 104.485L760.138 102.148L760.478 100.564L761.538 98.9633C770.145 73.7411 772.469 46.7743 783.731 22.3821C786.004 21.1286 788.26 19.8498 790.524 18.5793C816.517 14.514 841.967 11.8969 868.189 9.98279C870.818 10.3809 873.49 10.4063 876.161 10.5164C878.451 11.88 880.876 13.0233 883.259 14.226C888.373 27.6671 881.868 46.2915 878.179 59.5717C873.939 74.8337 869.699 89.7739 864.432 104.689C862.49 106.569 860.302 108.187 858.191 109.88C831.791 115.606 803.075 120.408 775.946 120.383L774.496 121.831L772.071 121.907C763.361 141.556 758.781 164.924 752.565 185.589C746.468 205.857 737.75 225.879 733.662 246.637C733.984 247.823 734.307 249.017 734.646 250.203L735.867 252.049C736.859 255.59 738.36 259.113 738.521 262.814C737.427 266.6 737.826 271.114 737.283 275.078L732.169 273.096L730.796 273.503L728.828 269.192L725.775 269.818L724.316 271.605C721.798 286.673 713.996 306.466 704.955 318.603C679.904 326.276 653.08 329.698 627.256 334.102C600.78 338.625 574.287 343.181 547.725 347.094C540.051 348.22 532.401 349.584 524.709 350.643C516.771 351.735 507.74 350.719 500.141 353.082L498.046 352.777C496.181 353.378 494.256 353.734 492.305 353.827L492.296 353.844Z" stroke="#70EE86" stroke-miterlimit="10"/>
<path d="M395.27 214.589C398.467 204.315 400.172 193.627 406.922 184.954C417.972 175.705 431.932 171.775 444.568 165.508C447.977 165.076 451.479 165.084 454.744 163.958C456.949 165.881 459.18 167.778 461.435 169.641C461.724 173.274 463.165 176.425 464.472 179.779C467.228 196.743 466.176 215.317 470.264 231.858L470.162 232.637L470.272 233.238L469.729 239.032C470.348 241.649 470.815 244.283 471.086 246.951L470.306 251.617L471.061 255.352L470.823 257.893L471.621 261.306L470.645 264.203L471.163 266.998L470.467 270.555L471.493 275.154L469.687 276.933L469.984 279.821L468.474 283.386L469.161 286.537L465.455 285.216L464.862 283.607L460.596 279.812L459.841 277.559L456.61 273.485L455.94 271.436L452.879 266.803C451.293 262.009 447.773 257.766 445.84 253.066L445.704 252.896C441.057 239.531 435.561 224.583 427.547 212.759L426.631 212.378L423.103 208.66L420.144 211.497L417.735 211.794C416.387 213.09 415.047 214.402 413.707 215.707L407.796 218.417C404.912 221.119 401.741 223.422 398.934 226.217C397.823 222.304 396.576 218.459 395.279 214.606L395.27 214.589Z" stroke="#70EE86" stroke-miterlimit="10"/>
<path d="M351.663 291.839C351.315 289.857 351.298 287.867 351.629 285.876L355.157 281.421L357.396 280.27C360.593 280.075 363.799 280.21 366.979 279.922C369.09 281.811 370.464 284.242 372.05 286.588L372.856 288.985L372.067 291.678L368.412 296.946C367.437 297.31 366.512 297.785 365.639 298.352C362.611 298.623 359.626 299.106 356.599 298.665C354.444 296.844 352.918 294.337 351.654 291.839H351.663Z" stroke="#70EE86" stroke-miterlimit="10"/>
<path d="M59.6772 353.793L59.1938 353.547L57.7775 353.352C53.3252 351.235 49.8991 348.923 46.0234 345.874L46.0573 345.035C47.1429 341.936 48.0927 338.81 49.5598 335.871C52.8503 336.168 56.0983 336.778 59.3634 337.311L60.0927 337.684L62.1959 345.154C61.5768 347.83 61.034 350.507 60.1945 353.124L59.6687 353.793H59.6772Z" stroke="#70EE86" stroke-miterlimit="10"/>
<path d="M533.741 515.705L533.063 515.502L529.653 509.167L525.922 507.219L530.154 505.262H531.528C537.388 503.162 543.969 502.569 550.032 500.968L550.643 500.096L555.79 500.248L555.502 494.955L555.867 494.032C555.375 492.626 554.925 491.203 554.518 489.771C544.749 463.702 530.917 440.216 527.041 412.191L527.677 412.767C529.441 414.046 531.163 415.418 532.884 416.764C535.022 417.442 537.082 418.416 538.906 419.712L541.569 420.491C550.524 431.849 562.354 441.512 572.412 451.964C583.234 463.211 593.173 474.967 603.655 486.502C605.046 489.102 607.106 491.321 608.743 493.769L611.44 501.68L611.465 501.713C609.43 504.72 607.547 507.888 605.003 510.496C592.723 515.459 581.368 521.6 568.766 525.902C554.264 527.554 546.394 521.549 533.741 515.697V515.705Z" stroke="#70EE86" stroke-miterlimit="10"/>
<path d="M445.883 495.734C445.034 493.294 444.636 490.601 444.831 488.026C448.393 482.682 453.897 481.64 459.791 480.412C461.639 482.589 463.48 484.783 465.32 486.976L465.71 488.348L465.566 490.313L463.42 496.03C461.232 497.487 459.282 499.198 457.357 500.976L455.22 501.408L449.139 499.426L445.883 495.734Z" stroke="#70EE86" stroke-miterlimit="10"/>
<path d="M85.8906 392.016L79.3267 388.848C77.8426 386.02 76.4857 383.115 75.2136 380.184C74.7726 376.441 73.8143 372.782 73.4072 369.047C75.1457 366.718 76.9182 364.414 78.6058 362.051C81.7521 360.95 84.9917 360.137 87.9599 358.604C91.0638 358.426 94.0489 358.096 97.1359 358.587C103.106 363.702 106.982 369.055 111.341 375.551L111.621 377.508L114.53 383.369L109.916 389.28C107.516 389.975 105.108 390.576 102.809 391.55C97.1359 392.346 92.3359 392.541 86.62 392.321L85.8822 392.033L85.8906 392.016Z" stroke="#70EE86" stroke-miterlimit="10"/>
<path d="M416.861 419.398C407.957 414.418 398.984 409.209 389.953 404.467L388.681 404.204L384.381 401.265L388.104 400.715C387.994 388.019 393.065 376.322 394.625 364.016C396.194 361.128 397.399 358.113 398.671 355.089C400.935 353.607 403.377 352.371 405.905 351.405C416.556 351.6 427.03 350.922 437.766 351.778C448.061 352.591 457.5 355.377 467.533 357.139L472.163 360.764L473.893 361.255L474.436 363.034L473.902 363.881L472.697 370.309C467.1 379.151 463.106 389.103 457.288 398.004C451.615 406.677 444.932 413.927 438.165 421.643C435.451 422.566 432.856 423.675 429.989 423.938C425.69 422.236 421.025 421.355 416.87 419.39L416.861 419.398Z" stroke="#70EE86" stroke-miterlimit="10"/>
<path d="M144.025 418.382L143.762 418.433C141.396 417.052 139.072 415.612 136.74 414.181C133.56 408.066 131.168 401.003 127.564 395.209L127.2 390.153L125.113 388.391L127.912 386.613C134.323 379.338 143.567 372.308 153.328 370.572C165.956 376.009 170.052 384.936 179.949 393.566L180.593 395.463C182.264 396.971 183.655 398.767 184.621 400.791L185.622 401.265L185.3 404.509L180.865 410.006C168.695 413.512 156.814 418.145 144.042 418.399L144.025 418.382Z" stroke="#70EE86" stroke-miterlimit="10"/>
<path d="M224.887 444.994L223.259 445.51C220.604 444.638 217.95 443.757 215.287 442.885C206.857 434.745 203.27 424.116 196.638 414.859L195.12 410.235L191.694 408.363L191.609 408.177L191.525 408.244H190.897L191.516 407.66L191.787 407.685C194.391 405.305 196.375 402.739 197.995 399.614C207.646 390.399 214.592 381.066 227.075 375.781C241.619 377.822 252.585 390.619 264.415 398.132C267.358 401.189 269.715 403.823 273.472 405.864L274.176 407.016C275.711 408.067 277.11 409.371 278.289 410.836L280.825 410.87L282.555 412.784L283.632 410.209L285.421 409.591L286.38 406.771C295.462 396.65 299.949 383.192 309.82 373.113C312.534 372.266 315.248 371.436 317.953 370.555C325.602 372.91 333.065 375.434 340.316 378.787C348.822 382.717 357.065 388.485 365.86 391.619C371.185 396.014 376.893 400.012 383.864 401.13L379.395 401.376L379.539 408.676L376.901 410.125C375.578 412.022 374.179 413.877 372.517 415.477L372.025 416.273C363.884 420.991 356.947 428.478 349.153 433.865C340.783 439.649 332.497 444.341 323.262 448.627L320.853 448.551L315.315 446.493C305.894 439.26 299.058 430.358 290.238 422.643L289.967 422.084L288.11 421.542L286.074 419.56L284.836 418.992C283.106 419.373 281.334 419.551 279.561 419.509L277.144 422.101C259.259 428.588 244.197 441.716 224.87 444.985L224.887 444.994Z" stroke="#70EE86" stroke-miterlimit="10"/>
<path d="M651.426 51.052L651.307 51.0946L651.35 50.9668L651.392 51.0009H651.401L651.426 51.052Z" stroke="#70EE86" stroke-miterlimit="10"/>
<path d="M669.617 71.0987C669.219 69.786 668.794 68.4817 668.345 67.1858L668.082 66.8132L668.201 64.9245C667.243 63.0189 666.25 61.1302 665.199 59.2753L663.308 57.7L663.291 57.6577H663.248L663.011 56.6667L663.409 56.438L664.308 50.8905L665.826 50.4332C667.192 49.3152 668.625 48.2904 670.126 47.3672L671.39 45.5971L671.805 45.4108C672.916 43.539 674.035 41.7011 675.18 39.8378L675.197 39.787V39.6769C676.249 39.1603 677.317 38.6775 678.403 38.2286L679.904 39.6261L683.364 38.7961L683.61 38.4658L685.179 38.3642C687.409 40.0157 689.979 41.1506 692.43 42.4634C693.609 44.7332 694.974 46.8929 696.314 49.0781C697.111 49.7048 697.883 50.3739 698.604 51.0853L699.342 52.5421L701.351 54.3122C701.597 56.3957 701.784 58.4877 701.886 60.5881C701.105 62.0025 700.427 63.4593 699.842 64.9584L698.002 66.4575L697.416 67.6263L696.975 67.8803L696.95 68.6511C696.492 69.1169 696.043 69.5996 695.61 70.0909C692.744 71.4968 689.911 72.691 686.79 73.5464L684.424 76.3414L680.608 76.9596C678.997 76.2905 677.334 75.6892 675.681 75.181C674.476 74.4865 673.289 73.6989 672.178 72.835L670.033 73.8683L669.609 71.1157L669.617 71.0987Z" stroke="#70EE86" stroke-miterlimit="10"/>
<path d="M792.195 254.896L791.626 254.625L791.135 253.701C791.406 252.024 791.542 250.339 791.55 248.637L790.634 245.164L791.677 240.286C792.687 239.278 793.628 238.194 794.493 237.059C797.003 235.839 799.53 234.603 801.362 232.46L802.151 232.214L804.712 229.301L804.602 229.225L805.017 228.953L807.375 228.318L808.791 228.759L809.266 228.369C811.013 227.598 812.853 227.336 814.761 227.573C815.966 228.538 817.272 229.368 818.654 230.046L819.604 231.384L821.919 232.731L822.301 232.824C822.81 233.671 823.276 234.543 823.7 235.441L823.208 236.449L823.632 236.991L824.268 239.032L825.099 240.345L825.557 241.98C826.354 243.165 827.126 244.385 827.839 245.613C827.974 247.756 828.466 249.856 829.348 251.813C828.466 253.083 827.72 254.447 827.109 255.861L825.769 256.53L825.667 259.35L826.778 261.044L824.794 261.265L823.793 260.968C822.08 261.747 820.333 262.425 818.544 263.001L817.441 262.493L817.128 262.035C814.948 263.263 812.735 264.449 810.538 265.643C810.419 265.762 810.309 265.88 810.19 265.999L803.38 265.669L801.642 266.609C800.514 263.941 798.657 261.739 797.325 259.19L797.173 259.13L795.315 257.335L795.256 257.216L795.036 257.191L793.636 255.522L792.203 254.87L792.195 254.896Z" stroke="#70EE86" stroke-miterlimit="10"/>
<path d="M359.1 309.736L358.244 309.109L357.956 309.228L355.878 309.016L354.487 309.329C353.198 309.202 351.934 308.914 350.722 308.457L348.61 305.518L346.642 303.96L346.184 302.833L345.481 302.367L343.912 300.386L343.31 298.869L343.895 297.303L343.606 296.634C343.369 291.509 341.088 287.055 341.028 281.753C341.8 280.846 342.495 279.822 343.055 278.754C343.759 278.348 344.463 277.924 345.167 277.501L345.956 276.408L346.761 276.087L347.711 274.012L346.235 272.445H346.184L345.93 272.131L346.405 272.072L349.517 269.701C349.823 269.946 350.145 270.166 350.476 270.37C351.553 270.564 352.621 270.768 353.69 270.988H353.707L355.683 272.436L358.117 272.258L360.44 273.105C362.925 272.08 365.24 270.683 367.556 269.302H367.589L367.903 268.955L370.083 267.71L371.219 265.737L375.688 268.904V271.877L375.883 272.487L376.257 272.902C376.74 275.273 377.741 277.628 378.877 279.728L379.182 280.05L380.251 282.066L381.888 282.727C382.218 283.624 382.719 284.429 383.38 285.124L384.576 285.953L383.77 286.733L383.465 286.496L382.295 291.374L382.693 291.933C382.541 293.644 382.609 295.363 382.88 297.049C381.701 298.268 380.582 299.539 379.522 300.86C376.74 302.749 373.45 303.697 370.21 304.4C368.573 305.23 366.979 306.111 365.401 307.059L365.037 307.153L363.892 309.126L363.51 309.499L360.381 309.981L359.083 309.71L359.1 309.736Z" stroke="#70EE86" stroke-miterlimit="10"/>
<path d="M523.369 518.415C519.4 516.103 514.999 514.536 510.64 513.105L508.282 510.293C504.415 509.141 501.099 509.158 497.546 506.913L491.592 502.441C491.312 502.331 491.024 502.221 490.744 502.111L487.42 501.806L489.693 497.445L492.619 495.048C502.447 497.47 514.609 495.403 524.777 495.886L527.982 497.046L531.273 496.098C532.604 496.301 533.936 496.648 535.208 497.131L538.422 496.445C543.544 497.876 549.15 497.953 554.476 498.02L554.298 494.683C553.679 493.591 553.263 492.431 553.051 491.194C548.565 486.959 546.25 478.397 543.417 472.858C540.093 466.361 536.667 459.899 533.614 453.276C527.338 439.683 520.816 426.123 514.261 412.622L513.693 408.667L511.369 406.457C511.318 406.355 511.276 406.262 511.225 406.16L510.682 402.163C507.112 394.718 503.533 387.282 499.98 379.829C502.363 378.279 504.737 376.712 507.137 375.196C508.57 377.195 509.978 379.21 511.488 381.141L515.092 382.911C518.645 386.579 522.216 390.17 525.438 394.125L526.855 395.057C529.17 398.504 531.816 401.959 534.504 405.11L537.566 407.041C543.154 413.469 548.896 421.287 555.544 426.572L556.859 429.324C563.618 433.644 568.723 441.893 574.066 447.779C579.773 454.064 585.71 460.238 591.366 466.616C596.472 472.375 601.746 477.99 606.665 483.927C611.363 489.602 615.061 498.02 620.709 502.492C620.073 504.593 619.428 506.702 618.58 508.726C616.664 509.395 614.764 510.098 612.881 510.835L609.616 513.325C593.563 520.058 577.441 526.258 561.209 532.517L560.081 532.534C550.948 529.231 540.932 523.912 531.51 522.015L530.874 521.583C528.296 520.727 525.828 519.584 523.378 518.39L523.369 518.415Z" stroke="#70EE86" stroke-miterlimit="10"/>
<path d="M451.573 511.453C450.53 511.512 449.495 511.571 448.452 511.63C446.815 510.555 445.136 509.522 443.44 508.556C441.43 505.515 439.412 502.509 437.631 499.333C436.715 498.554 435.79 497.791 434.841 497.046L434.298 496.08C434.417 493.565 434.162 491.007 433.492 488.585C433.831 487.086 434.12 485.578 434.357 484.054C435.595 483.114 436.723 482.046 437.749 480.869L438.47 480.666L440.082 478.549L439.539 478.108L441.337 475.864L441.235 475.677L441.54 475.618L441.608 475.711L443.457 476.033L443.601 476.49H445.28L445.993 475.804C447.511 475.22 448.952 474.424 450.275 473.45L450.564 473.399C453.388 472.112 456.169 470.63 459.163 469.706L463.581 470.147L464.59 470.731C465.472 471.824 466.448 472.849 467.499 473.78L467.771 474.593L470.34 475.923L471.443 475.644C471.689 476.457 472.07 477.21 472.571 477.888L472.393 480.463C472.638 481.132 472.944 481.775 473.3 482.402C473.164 483.563 473.275 484.714 473.622 485.832L475.344 488.466C475.463 488.949 475.641 489.423 475.861 489.864L476.107 489.915L476.819 491.177L476.853 491.431L478.431 492.777H478.499L479.406 493.311C479.262 495.25 478.846 497.139 478.142 498.943C477.896 498.825 477.651 498.706 477.396 498.613L477.354 498.638L475.547 498.969H475.539L472.859 500.044C471.629 500.747 470.332 501.348 469.009 501.823C468.118 502.704 467.084 503.415 465.947 503.949L465.065 505.422L464.463 505.82V506.472L463.072 508.056L462.894 510.064L462.301 510.563C461.945 511.546 461.478 512.494 460.918 513.367L460.901 513.434V513.587L460.231 513.807L459.816 513.561H457.094L457.594 511.69L455.202 510.673L451.564 511.444L451.573 511.453Z" stroke="#70EE86" stroke-miterlimit="10"/>
<path d="M217.026 451.675L216.992 451.624L212.133 447.203C204.704 436.074 195.875 424.157 191.152 411.563L189.549 412.808C173.283 418.263 154.533 423.827 137.308 424.166C135.519 423.073 134.001 421.659 132.797 419.973C129.464 412.114 126.988 404.22 123.977 396.284L120.797 395.141C105.693 397.402 90.4957 398.774 75.2392 397.47L75.1968 397.445L75.1629 397.402C75.1374 397.351 75.129 397.292 75.1205 397.233C69.5233 387.069 70.2102 375.983 65.3678 365.625C60.1014 363.787 54.5975 360.865 49.0512 360.128C46.9395 358.891 44.6583 357.968 42.3176 357.24L35.9827 352.243L35.389 350.32C36.9494 344.256 37.1275 337.997 38.9678 332.009L36.5678 327.935C34.7615 326.411 33.218 324.556 31.242 323.243L26.6286 322.066C24.4236 320.025 21.837 318.441 19.8441 316.205C19.3777 315.892 18.9621 315.528 18.589 315.104C18.6144 309.633 19.6321 306.652 21.9134 301.655C22.083 300.477 22.3035 299.3 22.5918 298.148L22.6936 297.987L21.5402 295.751H21.5148C20.565 294.964 19.6575 294.117 18.818 293.219C15.6462 291.982 12.042 289.975 9.69287 287.485L6.12256 281.438C7.14023 279.346 8.09005 277.212 8.95507 275.052L12.4406 270.648L16.4095 269.657C19.5727 270.47 22.6512 271.571 25.7551 272.587C25.56 273.502 25.4498 274.442 25.4243 275.374L27.4342 281.268C27.3579 284.546 27.9939 287.748 27.7989 291.051L27.8667 291.11L28.0703 291.915L28.0109 293.177L28.7742 294.388L30.148 294.964C33.7947 295.302 37.5346 295.955 41.1303 296.818C42.8689 297.648 44.565 298.58 46.2102 299.588C46.2441 299.588 46.2781 299.588 46.312 299.605L46.3374 299.622L46.3544 299.647C47.6519 307.668 49.1275 317.73 46.507 325.682C53.1473 327.8 59.7791 325.649 66.589 327.766C67.4795 329.485 68.3699 331.196 69.2689 332.915C69.4131 336.574 70.2526 339.869 71.4993 343.299C72.271 347.796 73.2208 352.751 72.4661 357.325L75.7056 358.4C81.7608 355.326 88.9353 353.776 94.2272 349.507C105.684 350.845 113.13 365.98 118.465 375.559L118.745 375.83C120.254 378.879 121.882 381.852 123.333 384.927L125.766 380.988C135.316 374.992 143.372 367.657 153.871 362.889L155.135 362.686C156.415 363.685 157.636 364.786 158.764 365.946L162.665 368.132C171.002 376.55 179.143 385.02 187.039 393.752L187.157 393.811C188.48 395.852 189.701 397.927 191.304 399.748L194.043 399.494C204.229 388.721 213.201 376.618 225.812 368.58C236.455 373.018 245.139 380.175 254.493 386.688C259.395 390.101 264.78 393.828 269.275 397.792C273.337 401.374 278.815 404.677 282.182 408.963C287.932 394.895 298.109 377.397 309.015 366.692C310.38 365.946 311.762 365.227 313.153 364.524C337.365 372.587 358.974 385.79 381.956 396.216L383.915 397.944C389.665 382.123 389.283 364.761 395.864 348.991L395.966 348.88L396.093 348.804C396.271 348.77 396.458 348.77 396.636 348.804L403.344 347.229C426.106 348.948 448.936 350.363 471.731 352.251L474.793 353.81L476.209 353.911L479.559 352.531L480.721 351.582C474.564 341.614 472.936 329.765 468.085 319.152L467.822 315.477L465.574 313.004L464.87 311.615C464.073 305.627 459.672 298.97 457.306 293.329C454.94 287.688 453.379 282.005 451.352 276.424C447.18 264.948 438.733 253.345 436.969 241.14C431.135 234.373 428.726 221.448 425.699 212.987L423.46 210.633C420.017 213.555 417.744 217.383 414.996 220.898L412.435 222.736L411.29 225.785C400.579 234.102 394.584 248.339 384.119 257.266L380.972 258.536C379.505 260.459 378.089 262.424 376.664 264.38C376.588 265.21 376.486 266.04 376.342 266.87L372.695 264.888L374.9 262.517L375.155 259.417C375.629 257.706 376.418 256.148 377.538 254.776L378.14 251.422L377.58 246.179C378.852 243.461 380.073 240.708 381.227 237.939L381.49 234.068C381.49 234.068 381.498 234.043 381.507 234.034L383.949 231.222L384.008 227.563C386.256 221.728 387.901 215.774 390.114 209.955C392.048 204.865 393.43 197.107 396.924 192.974C397.238 188.756 399.689 185.419 401.826 181.921C417.846 171.173 437.266 164.889 454.702 156.775L454.736 156.716C456.246 156.259 457.815 155.878 459.375 155.581L459.689 155.378L460.673 155.734C462.157 157.123 463.649 158.512 465.133 159.901C469.849 178.805 470.018 198.784 472.079 218.044C474.08 236.677 477.006 255.267 477.88 274.01C478.414 285.579 479.686 297.31 480.975 308.998L480.102 313.071C480.161 313.656 480.229 314.232 480.288 314.816L482.086 319.347L481.45 320.169L481.916 320.804L482.366 321.041C482.298 324.319 482.247 327.571 482.332 330.84L486.318 330.104C491.55 318.695 493.721 305.61 497.851 293.719C502.024 281.7 505.671 269.437 509.529 257.308C517.62 231.849 526.066 206.449 534.623 181.151C539.355 167.176 543.333 152.651 549.473 139.26C558.962 132.697 575.364 132.468 586.592 130.511C599.754 128.225 613.509 127.081 626.434 123.727L627.952 121.983C615.502 115.8 604.986 105.247 593.054 98.6238L588.288 97.4465C586.813 96.1931 585.362 94.8803 583.955 93.5336L580.198 92.4241C566.366 82.0829 550.329 74.6213 536.981 63.5601L535.013 60.4094L530.968 58.8002L530.875 57.335L528.772 53.1003C530.171 51.8044 531.697 50.6102 533.283 49.5685L536.447 46.4686C550.406 38.592 563.483 30.7662 578.434 24.9731C589.62 27.3954 599.678 32.0451 610.295 35.6954C616.393 37.7874 623.067 38.7783 629.148 41.082C634.202 43.0046 638.841 45.681 644.26 46.8667L646.338 49.1027L646.66 54.286C631.921 59.7234 611.109 56.9962 595.59 57.0301L593.394 55.9968L591.731 58.4022L592.223 60.6635C597.388 66.7616 602.654 72.6648 608.056 78.4495C614.341 85.1827 619.098 93.1864 625.323 99.8349L628.223 101.402C633.659 107.534 639.757 112.768 645.142 118.951L647.542 120.213C665.589 117.096 683.627 113.987 701.682 110.913C719.737 107.839 738.818 106.534 756.687 102.562L758.96 101.393C764.777 73.7912 770.977 43.9363 781.976 17.9434L782.086 17.8163L782.23 17.7232C815.941 9.53318 851.508 8.76246 886.041 5.96753L886.261 6.00988L891.18 12.8532L891.197 13.6578C883.166 45.2067 878.324 79.2202 866.018 109.583L865.985 109.626L865.942 109.651L865.891 109.668L861.846 112.666C847.2 112.531 830.9 117.257 816.093 118.705C801.286 120.153 787.488 123.143 773.3 123.109C766.762 137.499 763.785 155.124 758.883 170.293C753.727 186.258 748.529 202.231 743.152 218.128C740.184 226.92 735.223 236.804 734.222 246.035C734.739 247.035 735.121 248.085 735.358 249.194C740.37 256.063 743.11 267.251 746.485 275.264C750.31 284.351 758.773 295.971 759.57 305.737L761.699 307.854C763.454 315.121 767.678 323.116 771.698 329.477L774.64 329.443L774.827 327.614L775.42 326.233L777.032 324.81L777.388 321.524C779.966 315.595 783.46 309.616 785.461 303.501C786.182 302.366 787.022 301.324 787.972 300.367L790.041 294.142L790.075 294.117C792.585 289.814 795.333 285.834 798.081 281.683L798.098 280.074L801.863 281.362L804.068 285.08C803.958 286.325 803.847 287.561 803.72 288.798L801.43 294.1L801.329 295.006L802.94 299.393L802.448 301.163L803.296 303.001C800.353 308.735 800.871 320.186 800.031 326.8L800.845 331.687C800.676 332.602 800.65 333.534 800.786 334.457C799.124 340.284 799.454 346.797 798.606 352.81C797.148 355.131 795.723 357.477 794.281 359.815C783.579 368.58 770.112 375.983 760.52 385.782L757.247 386.925L755.661 388.941H755.644V388.95H755.584L755.517 388.89C752.871 387.476 750.148 386.239 747.782 384.385C746.909 376.669 744.619 369.8 743.228 362.067C741.939 354.902 738.615 346.644 739.556 339.251C735.664 325.174 737.063 309.328 732.008 295.717L732.076 295.201C730.066 287.163 731.661 277.754 727.319 270.326L725.792 270.639L725.063 271.537C721.874 286.494 715.293 300.977 710.12 315.265L707.983 318.483C707.864 318.924 707.703 319.356 707.508 319.771L707.288 320.016L707.008 320.194C654.793 332.365 600.856 340.004 547.878 348.525C532.791 350.947 516.602 355.453 501.286 355.326C500.285 355.876 499.234 356.325 498.148 356.672C496.851 356.672 495.587 356.884 494.357 357.316L494.561 358.951L495.451 359.696L495.528 361.288L496.206 362.847C494.697 362.609 493.17 362.601 491.669 362.821L488.497 361.822L488.379 361.729V361.712C487.955 361.449 487.539 361.17 487.14 360.882L486.326 360.848L485.614 361.644L483.256 362.389C474.394 370.689 469.094 385.545 462.157 395.7C454.889 406.337 447.706 416.941 439.912 427.206L435.367 429.4C429.108 430.069 419.94 424.284 414.208 421.464C406.049 417.458 397.323 410.267 388.147 409.039C366.962 424.132 346.075 439.089 324.364 453.394L318.894 454.165C318.716 454.326 318.513 454.453 318.301 454.546C307.005 447.906 298.499 435.125 289.535 425.69L288.297 423.149L286.151 422.523L284.675 423.183L281.75 423.581C272.548 428.672 263.245 434.109 253.128 437.446C244.486 444.653 227.889 449.811 217 451.607L217.026 451.675Z" stroke="#70EE86" stroke-miterlimit="10"/>
</svg>
