<svg width="898" height="552" viewBox="0 0 898 552" fill="none" xmlns="http://www.w3.org/2000/svg">
<path d="M771.477 324.187L772.936 327.355H772.961C760.3 299.905 747.638 272.447 734.977 244.998C748.274 204.767 761.58 164.529 774.878 124.299H774.852C761.555 164.537 748.249 204.767 734.951 244.998C747.121 271.397 759.299 297.788 771.469 324.187H771.477Z" stroke="white" stroke-miterlimit="10"/>
<path d="M798.004 269.398L799.395 266.18H799.42C790.601 286.574 781.781 306.969 772.961 327.363H772.936C781.289 308.036 789.642 288.717 797.996 269.398H798.004Z" stroke="white" stroke-miterlimit="10"/>
<path d="M796.613 261.208L795.222 258.726H795.248C796.639 261.208 798.029 263.689 799.42 266.171H799.395C798.47 264.519 797.546 262.868 796.613 261.208Z" stroke="white" stroke-miterlimit="10"/>
<path d="M786.861 248.538L790.117 249.596H790.143C778.066 245.658 766.007 241.11 753.744 237.815L753.074 237.968L752.548 238.357L752.201 238.916L752.073 239.56L752.251 240.305C759.943 246.937 769.586 252.095 778.058 257.744L778.931 258.023C784.367 258.261 789.812 258.489 795.248 258.726C789.803 258.498 784.35 258.261 778.906 258.023L778.032 257.744C769.509 252.069 760.062 246.852 752.226 240.305L752.048 239.56L752.175 238.916L752.523 238.357L753.049 237.968L753.718 237.815C764.87 240.881 775.853 244.938 786.852 248.529L786.861 248.538Z" stroke="white" stroke-miterlimit="10"/>
<path d="M798.75 232.014L801.718 230.32H801.744C796.791 233.132 791.839 235.952 786.886 238.764L786.369 238.874L785.58 239.501L785.173 240.721L785.376 241.534C787.2 244.032 788.608 246.878 790.134 249.588H790.109C788.591 246.87 787.174 244.032 785.351 241.534L785.147 240.721L785.555 239.501L786.343 238.874L786.861 238.764C790.821 236.511 794.781 234.259 798.742 232.006L798.75 232.014Z" stroke="white" stroke-miterlimit="10"/>
<path d="M807.562 223.112L808.435 226.5H808.469C804.941 212.796 802.058 198.678 797.724 185.228L796.868 184.593L796.35 184.517L795.731 184.627L795.188 184.949L794.798 185.474C793.696 195.629 794.23 206.232 794.018 216.464L794.247 217.344C796.757 221.672 799.259 225.992 801.769 230.32H801.744C799.234 226 796.732 221.672 794.222 217.353L793.993 216.472C794.205 206.215 793.781 195.679 794.773 185.491L795.163 184.965L795.706 184.644L796.325 184.534L796.842 184.61L797.699 185.245C801.608 197.627 804.322 210.535 807.57 223.121L807.562 223.112Z" stroke="white" stroke-miterlimit="10"/>
<path d="M820.334 227.617L821.614 229.853H821.648C820.367 227.609 819.078 225.373 817.798 223.137L817.162 222.502L816.322 222.282C813.591 223.391 811.039 225.026 808.461 226.5H808.427C811.005 225.034 813.558 223.4 816.288 222.29L817.128 222.51L817.764 223.146C818.62 224.636 819.477 226.127 820.334 227.626V227.617Z" stroke="white" stroke-miterlimit="10"/>
<path d="M828.042 235.172L825.566 236.748H825.6C829.73 234.122 833.86 231.505 837.981 228.88L838.592 228.202C843.137 219.021 848.573 209.832 852.229 200.278L852.084 199.618L851.694 199.084L851.135 198.728L850.482 198.601L849.837 198.737C839.83 208.358 830.934 219.529 821.639 229.862H821.605C830.874 219.563 839.703 208.206 849.803 198.745L850.448 198.61L851.101 198.737L851.66 199.092L852.05 199.626L852.195 200.287C848.684 209.849 843.087 219.063 838.558 228.202L837.947 228.88C834.648 230.98 831.341 233.072 828.042 235.172Z" stroke="white" stroke-miterlimit="10"/>
<path d="M830.4 256.406L828.059 257.812H828.093C829.653 256.872 831.214 255.932 832.783 254.991L833.843 254.898L834.368 254.526L834.725 253.984C834.818 253.569 834.894 253.145 834.945 252.73L834.674 251.807L833.885 251.172C831.129 246.361 828.373 241.55 825.616 236.74H825.583C828.339 241.55 831.095 246.361 833.851 251.172L834.64 251.807L834.911 252.73C834.86 253.154 834.792 253.569 834.691 253.984L834.335 254.526L833.809 254.898L832.749 254.991L830.408 256.397L830.4 256.406Z" stroke="white" stroke-miterlimit="10"/>
<path d="M820.206 265.782L817.399 264.223H817.433C821.385 266.408 825.329 268.932 829.484 270.652C840.585 270.22 852.017 270.482 863.033 269.212L863.542 268.822L863.856 268.28L863.957 267.67L863.881 267.145L863.237 266.281C851.737 262.885 839.771 260.59 828.093 257.812H828.059C839.737 260.59 851.703 262.885 863.203 266.281L863.847 267.145L863.924 267.67L863.822 268.28L863.508 268.822L862.999 269.212C851.983 270.482 840.543 270.22 829.45 270.652C826.261 269.339 823.242 267.459 820.206 265.773V265.782Z" stroke="white" stroke-miterlimit="10"/>
<path d="M812.582 267.12L810.174 268.568H810.207C812.616 267.12 815.024 265.672 817.433 264.224H817.399C815.796 265.189 814.185 266.155 812.582 267.12Z" stroke="white" stroke-miterlimit="10"/>
<path d="M726.818 275.047L726.208 271.498H726.233C732.984 310.526 739.742 349.553 746.501 388.589C743.779 392.705 746.832 396.788 751.454 396.364L752.735 396.178L753.905 395.61L754.863 394.653C755.228 393.993 755.516 393.29 755.72 392.57C769.857 381.297 787.776 370.583 799.734 357.074C803.788 343.599 803.474 327.329 805.077 313.329C806.79 298.414 808.503 283.491 810.216 268.576H810.182C808.469 283.491 806.756 298.406 805.043 313.329C803.432 327.371 803.686 343.54 799.7 357.074C788.031 370.642 769.713 381.39 755.686 392.57C755.482 393.298 755.203 393.993 754.829 394.653L753.871 395.61L752.701 396.178L751.42 396.364C746.815 396.771 743.728 392.722 746.468 388.589C739.921 350.747 733.365 312.906 726.818 275.055V275.047Z" stroke="white" stroke-miterlimit="10"/>
<path d="M500.793 357.218L497.291 357.82C552.423 348.308 607.564 338.797 662.696 329.286C677.817 326.677 693.523 324.992 708.389 321.24L709.339 320.622L710.094 319.775C716.556 304.242 720.932 287.481 726.224 271.499H726.199C720.932 287.438 716.683 304.352 710.077 319.775L709.322 320.622L708.372 321.24C682.252 328.049 654.309 330.726 627.688 335.325C600.703 339.983 573.726 344.641 546.741 349.291C531.425 351.933 516.109 354.576 500.793 357.218Z" stroke="white" stroke-miterlimit="10"/>
<path d="M477.947 502.486L474.708 501.216V501.233C489.04 506.857 503.372 512.48 517.696 518.104C531.409 523.482 546.199 531.655 560.607 534.611C570.292 533.019 580.579 526.938 589.704 523.262C600.432 518.943 611.151 514.623 621.879 510.295C622.541 510.388 623.194 510.363 623.847 510.219C626.128 509.169 627.85 507.297 628.274 504.799L628.045 503.477L627.358 502.326L626.221 501.487C625.416 501.225 624.593 501.064 623.754 501.021C590.756 463.645 557.749 426.278 524.751 388.902C515.601 378.544 506.45 368.194 497.317 357.828C530.12 394.983 562.931 432.13 595.734 469.286C605.071 479.856 614.408 490.434 623.737 501.004C624.576 501.047 625.407 501.208 626.204 501.47L627.341 502.309L628.028 503.46L628.257 504.782C627.824 507.28 626.103 509.135 623.83 510.202C623.177 510.346 622.524 510.372 621.862 510.278C611.143 514.598 600.415 518.917 589.696 523.245C580.494 526.955 570.343 532.841 560.607 534.594C546.86 531.782 532.766 523.999 519.68 518.866C505.772 513.412 491.864 507.949 477.956 502.495L477.947 502.486Z" stroke="white" stroke-miterlimit="10"/>
<path d="M469.17 504.24L466.405 505.756V505.773C469.178 504.257 471.943 502.741 474.708 501.225V501.208C472.859 502.216 471.019 503.233 469.17 504.24Z" stroke="white" stroke-miterlimit="10"/>
<path d="M452.887 515.784L454.151 512.472V512.489C449.478 524.762 444.059 537.017 440.149 549.543L440.285 550.145L441.176 550.898L441.795 551L442.626 550.805C450.826 542.031 459.358 529.699 465.159 519.197C465.574 514.717 465.998 510.236 466.405 505.756C465.99 510.228 465.574 514.708 465.159 519.18C459.587 529.792 450.64 541.853 442.626 550.78L441.795 550.975L441.176 550.873L440.285 550.119L440.149 549.526C443.788 538.135 448.622 526.972 452.887 515.784Z" stroke="white" stroke-miterlimit="10"/>
<path d="M438.157 502.961L436.554 500.005V500.022C439.225 504.943 441.905 509.872 444.585 514.793L444.636 515.648L445.255 516.377L446.705 516.868L447.265 516.783L447.79 516.538L448.528 515.598C450.402 514.556 452.277 513.523 454.159 512.481V512.464C452.285 513.506 450.411 514.539 448.528 515.581L447.79 516.521L447.265 516.766L446.705 516.851L445.255 516.36L444.636 515.631L444.585 514.776C442.448 510.838 440.302 506.899 438.165 502.961H438.157Z" stroke="white" stroke-miterlimit="10"/>
<path d="M429.303 493.797L432.729 492.984V493.001C417.744 496.549 402.224 499.302 387.528 503.842L386.815 504.807L386.73 505.383L386.824 505.967L387.57 506.823C396.186 507.644 405.049 507.382 413.716 507.594C422.917 507.822 428.455 504.223 436.545 500.013V499.996C428.472 504.197 422.909 507.805 413.716 507.577C405.049 507.365 396.195 507.602 387.57 506.806L386.824 505.95L386.73 505.366L386.815 504.79L387.528 503.825C401.164 499.734 415.429 497.083 429.294 493.797H429.303Z" stroke="white" stroke-miterlimit="10"/>
<path d="M434.951 480.415L437.639 478.865V478.882C434.679 480.585 431.575 482.16 428.87 484.201L428.624 485.065C429.777 487.784 431.312 490.384 432.737 493.001V492.984C431.321 490.367 429.786 487.767 428.633 485.048L428.878 484.184C430.787 482.753 432.873 481.61 434.959 480.415H434.951Z" stroke="white" stroke-miterlimit="10"/>
<path d="M443.898 471.912L445.271 474.487V474.504C442.973 470.218 440.683 465.933 438.385 461.639L437.656 460.927C427.912 455.93 418.15 449.951 407.982 445.945L407.312 446.088L406.761 446.461L406.396 447.003L406.261 447.638L406.379 448.231C416.124 458.971 427.233 468.753 437.63 478.891V478.874C427.259 468.761 415.988 459.047 406.379 448.223L406.261 447.63L406.396 446.995L406.761 446.453L407.312 446.08L407.982 445.936C418.159 449.781 427.946 455.947 437.656 460.919L438.385 461.63C440.225 465.06 442.057 468.49 443.889 471.92L443.898 471.912Z" stroke="white" stroke-miterlimit="10"/>
<path d="M468.466 470.972L469.874 473.496V473.512C468.466 470.989 467.067 468.465 465.659 465.932L465.752 465.407L465.625 464.823L464.777 464.044L464.166 463.933C457.636 466.644 451.445 470.955 445.289 474.495V474.478C451.412 470.963 457.628 466.5 464.166 463.917L464.777 464.027L465.625 464.806L465.752 465.39L465.659 465.915C466.6 467.601 467.533 469.286 468.474 470.963L468.466 470.972Z" stroke="white" stroke-miterlimit="10"/>
<path d="M476.828 479.56L474.962 482.643V482.66C478.176 477.35 482.077 472.039 484.545 466.373C484.63 455.498 485.334 444.395 484.672 433.562L483.824 432.825L483.239 432.732L482.662 432.817L482.128 433.071L481.39 434.104C477.548 447.241 473.715 460.377 469.874 473.513V473.496C473.715 460.36 477.548 447.224 481.39 434.087L482.128 433.054L482.662 432.8L483.239 432.715L483.824 432.808L484.672 433.545C485.452 444.352 484.63 455.507 484.545 466.356C482.433 470.921 479.448 475.232 476.828 479.56Z" stroke="white" stroke-miterlimit="10"/>
<path d="M477.735 487.623L479.117 490.113V490.13C477.735 487.64 476.353 485.159 474.962 482.669V482.652C475.886 484.312 476.811 485.972 477.727 487.623H477.735Z" stroke="white" stroke-miterlimit="10"/>
<path d="M549.973 495.44L553.518 495.702V495.719C528.729 493.856 503.923 491.984 479.126 490.121V490.104C502.744 491.882 526.354 493.661 549.973 495.44Z" stroke="white" stroke-miterlimit="10"/>
<path d="M488.794 365.273L487.216 362.088C509.308 406.638 531.417 451.179 553.517 495.72C531.951 452.229 510.368 408.755 488.794 365.264V365.273Z" stroke="white" stroke-miterlimit="10"/>
<path d="M393.04 411.923L389.859 410.331C400.748 415.776 411.629 421.214 422.518 426.643C434.798 432.775 436.825 435.637 444.881 423.695C458.645 403.292 472.418 382.881 486.182 362.478C486.546 362.393 486.894 362.266 487.225 362.097C486.894 362.258 486.546 362.385 486.182 362.469C472.748 382.373 459.324 402.285 445.891 422.188C438.08 433.766 437.427 434.071 424.876 427.803C414.266 422.51 403.657 417.208 393.048 411.914L393.04 411.923Z" stroke="white" stroke-miterlimit="10"/>
<path d="M289.339 426.77L287.05 424.263H287.033C293.24 431.064 299.448 437.856 305.656 444.649C309.226 448.553 315.205 458.954 321.209 458.047C345.226 445.131 367.471 425.973 389.851 410.339C378.25 418.436 366.64 426.541 355.038 434.655C344.039 442.336 333.082 451.788 321.218 458.039C315.629 459.072 310.312 449.722 307.064 446.173C301.153 439.702 295.242 433.24 289.331 426.77H289.339Z" stroke="white" stroke-miterlimit="10"/>
<path d="M192.864 417.75L191.084 414.845H191.058C196.833 424.297 202.617 433.741 208.392 443.176C214.431 453.034 214.999 456.337 225.973 451.451C246.326 442.388 266.679 433.334 287.024 424.272H287.041C267.231 433.08 247.412 441.905 227.601 450.722C216.457 455.685 215.686 455.033 209.342 444.667C203.847 435.697 198.36 426.72 192.864 417.75Z" stroke="white" stroke-miterlimit="10"/>
<path d="M123.858 400.438L122.713 397.406H122.688C126.241 406.816 129.184 416.877 133.653 425.863L134.586 426.727L135.722 427.278L136.986 427.473C155.117 424.542 173.189 419.071 191.075 414.862H191.1C173.164 419.071 155.151 424.288 137.011 427.464L135.748 427.269L134.611 426.719L133.678 425.855C129.616 417.877 127.03 408.831 123.866 400.447L123.858 400.438Z" stroke="white" stroke-miterlimit="10"/>
<path d="M66.1137 371.227L65.4607 367.983H65.4268C67.4451 378.045 68.607 388.877 71.8211 398.592L72.7625 399.667L74.0091 400.37C89.1299 402.505 107.406 398.448 122.688 397.415H122.713C107.448 398.439 89.1385 402.522 74.043 400.362L72.7964 399.659L71.855 398.583C68.8953 389.944 67.9116 380.196 66.1137 371.227Z" stroke="white" stroke-miterlimit="10"/>
<path d="M36.7539 333.759L37.4493 330.743H37.4154C35.7278 338.07 33.7264 345.413 32.4458 352.806L32.6409 354.077L33.1921 355.212L34.0656 356.143C43.7843 361.183 55.1568 364.181 65.4352 367.984H65.4691C55.1907 364.164 43.8183 361.174 34.0995 356.135L33.226 355.203L32.6748 354.068L32.4797 352.806C33.6076 346.42 35.2953 340.085 36.7539 333.767V333.759Z" stroke="white" stroke-miterlimit="10"/>
<path d="M19.8438 300.913L21.1413 297.779H21.1074C18.8007 303.36 15.5865 309.17 14.3145 315.065C14.3653 316.192 14.7809 317.216 15.5441 318.055C22.4219 322.798 30.1561 326.601 37.4155 330.751H37.4494C30.1816 326.584 22.5067 322.747 15.578 318.046C14.8233 317.216 14.3993 316.183 14.3484 315.057C15.4169 310.221 17.9611 305.486 19.8438 300.904V300.913Z" stroke="white" stroke-miterlimit="10"/>
<path d="M31.0465 289.174V292.646H31.0126C31.0126 285.38 31.8861 277.444 30.7328 270.279L29.961 269L28.7907 268.068C23.4988 266.51 15.7815 265.265 10.2691 265.764L9.15818 266.289L8.24226 267.119C5.49456 272.108 2.62812 278.477 1.39844 284.033C1.44932 285.159 1.87336 286.184 2.62813 287.023C8.4882 291.003 14.9589 294.264 21.1158 297.787H21.1497C15.0098 294.273 8.47125 291.054 2.66206 287.023C1.90729 286.193 1.48325 285.159 1.43237 284.033C2.68749 278.477 5.51153 272.108 8.27619 267.128L9.19208 266.298L10.303 265.773C15.8069 265.273 23.5327 266.518 28.8246 268.076L29.9949 269.008L30.7667 270.287C31.7504 276.368 31.0465 283.008 31.0465 289.174Z" stroke="white" stroke-miterlimit="10"/>
<path d="M50.7218 321.061V324.22H50.6879C50.6879 315.539 51.7904 305.977 50.4081 297.414L49.6363 296.135L48.466 295.204C42.9027 293.629 36.7628 293.4 31.0215 292.655C36.7543 293.383 42.9452 293.612 48.4999 295.204L49.6702 296.135L50.442 297.414C51.6293 305.003 50.7218 313.362 50.7218 321.061Z" stroke="white" stroke-miterlimit="10"/>
<path d="M75.417 352.865L75.9513 356.075H75.9174C74.2552 346.14 73.4919 335.401 70.5831 325.771L69.6418 324.653L68.3782 323.916C62.6623 323.154 56.4629 324.026 50.6792 324.229C56.4545 324.018 62.6962 323.137 68.4036 323.908L69.6672 324.644L70.6085 325.762C73.2969 334.325 73.9244 343.997 75.4085 352.856L75.417 352.865Z" stroke="white" stroke-miterlimit="10"/>
<path d="M122.255 377.595L124.095 380.348H124.07C117.353 370.312 111.213 357.455 102.902 348.706C96.118 341.566 83.4396 352.373 75.9258 356.083C82.2184 353.008 95.4311 342.616 101.834 347.122C105.693 349.832 109.059 357.87 111.688 361.8C115.208 367.068 118.736 372.336 122.255 377.595Z" stroke="white" stroke-miterlimit="10"/>
<path d="M191.194 395.576L193.543 398.091H193.526C186.36 390.452 179.203 382.812 172.036 375.165C168.229 371.108 160.113 358.048 153.837 359.267C143.364 364.908 133.738 373.42 124.07 380.356H124.096C133.772 373.411 143.398 364.9 153.863 359.259C159.918 358.082 166.99 369.744 170.62 373.615C177.481 380.932 184.333 388.25 191.194 395.576Z" stroke="white" stroke-miterlimit="10"/>
<path d="M279.341 403.047L282.139 405.088H282.122C264.483 392.24 246.86 376.088 227.703 365.671L226.405 365.468L224.751 365.798C213.124 373.92 203.321 387.802 193.526 398.092H193.543C203.431 387.692 213.175 374.2 224.768 365.798L226.422 365.468L227.72 365.671C245.885 375.589 262.6 390.842 279.332 403.047H279.341Z" stroke="white" stroke-miterlimit="10"/>
<path d="M380.692 393.112L383.855 394.602C362.747 384.693 341.639 374.784 320.531 364.866C308.581 359.251 307.801 365.018 301.186 375.351C294.834 385.269 288.482 395.195 282.122 405.113H282.139C288.33 395.441 294.512 385.777 300.703 376.113C306.444 367.153 307.962 359.013 318.953 364.121C339.578 373.691 360.109 383.456 380.692 393.12V393.112Z" stroke="white" stroke-miterlimit="10"/>
<path d="M474.301 350.417L477.778 350.671C464.022 349.68 450.258 348.689 436.503 347.698C423.816 346.783 408.61 343.319 396.059 345.14L394.821 345.843L393.879 346.919C388.452 361.681 387.01 379.196 383.855 394.619C387.01 379.196 388.435 361.647 393.879 346.91L394.821 345.835L396.059 345.132C408.254 343.412 422.849 346.698 435.154 347.588C448.206 348.528 461.249 349.476 474.301 350.417Z" stroke="white" stroke-miterlimit="10"/>
<path d="M425.469 215.897C425.045 214.796 424.621 213.703 424.189 212.602C442.058 258.625 459.918 304.649 477.786 350.672C460.35 305.741 442.906 260.819 425.469 215.897Z" stroke="white" stroke-miterlimit="10"/>
<path d="M380.531 268.424L378.352 271.219C393.634 251.68 408.916 232.14 424.198 212.61C409.645 231.217 395.092 249.825 380.54 268.432L380.531 268.424Z" stroke="white" stroke-miterlimit="10"/>
<path d="M380.311 277.114L381.294 280.062C380.311 277.114 379.335 274.158 378.352 271.211C379.005 273.176 379.658 275.141 380.311 277.114Z" stroke="white" stroke-miterlimit="10"/>
<path d="M421.823 308.459C409.102 303.877 396.822 296.288 384.687 290.275L387.714 291.774C398.875 297.305 410.145 304.207 421.823 308.459ZM421.823 308.459L422.544 308.315L423.138 307.925L423.545 307.366L423.697 306.723L423.579 306.172M423.579 306.172C416.031 298.287 407.279 291.266 399.171 283.931M423.579 306.172C415.946 298.338 407.296 291.274 399.171 283.931M399.171 283.931C393.532 281.958 387.18 281.255 381.294 280.061C387.171 281.255 393.532 281.958 399.171 283.931Z" stroke="white" stroke-miterlimit="10"/>
<path d="M370.21 306.833C369.091 307.189 367.963 307.553 366.843 307.909C373.568 305.766 380.293 303.624 387.019 301.472L387.977 300.812L388.308 299.846L388.096 299.084L387.434 298.508C386.518 295.764 385.611 293.02 384.695 290.276C385.611 293.02 386.518 295.755 387.434 298.499L388.096 299.075L388.308 299.838L387.977 300.803L387.019 301.464C381.413 303.251 375.807 305.038 370.202 306.825L370.21 306.833Z" stroke="white" stroke-miterlimit="10"/>
<path d="M358.422 314.193L358.295 310.627C358.795 325 358.337 339.813 359.94 354.084L360.839 354.88L361.433 354.982L361.967 354.906L362.857 354.253C366.335 343.827 368.743 332.902 371.618 322.29L371.584 321.282C370.007 316.818 368.438 312.363 366.86 307.9C368.438 312.355 370.007 316.818 371.584 321.273L371.618 322.281C368.743 332.893 366.335 343.819 362.866 354.245L361.975 354.897L361.441 354.973L360.848 354.872L359.957 354.076C358.592 340.939 358.897 327.405 358.439 314.193H358.422Z" stroke="white" stroke-miterlimit="10"/>
<path d="M346.04 306.57L345.065 303.725H345.057C346.032 306.579 347.007 309.425 347.982 312.27L348.585 313.033L349.56 313.312C352.503 312.541 355.394 311.55 358.295 310.619C355.394 311.542 352.503 312.524 349.568 313.304L348.593 313.024L347.991 312.262L346.04 306.562V306.57Z" stroke="white" stroke-miterlimit="10"/>
<path d="M339.298 297.441L342.513 296.272C334.236 299.27 327.239 300.871 321.413 307.587C315.587 314.304 309.862 320.901 304.087 327.558L303.688 328.549L303.841 329.185L304.24 329.727L304.825 330.099L305.52 330.235L306.038 330.158C319.403 322.028 332.115 312.534 345.057 303.725H345.065C332.115 312.525 319.386 321.96 306.046 330.15L305.529 330.226L304.833 330.091L304.248 329.718L303.85 329.176L303.697 328.541L304.096 327.55C309.337 321.511 314.578 315.472 319.81 309.434C325.848 302.472 330.657 300.583 339.298 297.441Z" stroke="white" stroke-miterlimit="10"/>
<path d="M342.309 276.393L345.354 275.352H345.345C343.318 276.046 341.283 276.732 339.256 277.427L338.552 277.291L337.925 277.401L337.373 277.689L336.703 278.663L336.39 279.603L336.593 280.349L337.221 280.916C338.976 286.032 340.732 291.156 342.487 296.271H342.496C340.74 291.147 338.985 286.032 337.238 280.916L336.61 280.349L336.407 279.603L336.72 278.663L337.39 277.689L337.942 277.401L338.569 277.291L339.273 277.427L342.318 276.385L342.309 276.393Z" stroke="white" stroke-miterlimit="10"/>
<path d="M355.454 268.788L358.286 270.948C354.504 268.068 350.722 265.189 346.939 262.309C335.414 259.243 320.141 257.397 308.217 257.473L307.632 257.879L307.259 258.447L307.123 259.091L307.352 259.87L308.098 260.446C320.514 265.417 332.929 270.389 345.353 275.36H345.362C332.946 270.389 320.531 265.417 308.115 260.454L307.369 259.878L307.14 259.099L307.276 258.455L307.649 257.888L308.234 257.481C320.141 257.134 335.38 259.489 346.956 262.309C349.789 264.469 352.63 266.628 355.462 268.788H355.454Z" stroke="white" stroke-miterlimit="10"/>
<path d="M363.722 269.093L366.444 268.17C363.722 269.093 361.008 270.025 358.286 270.948C360.101 270.329 361.916 269.711 363.722 269.093Z" stroke="white" stroke-miterlimit="10"/>
<path d="M485.834 324.111L486.224 327.66C481.398 283.542 476.573 239.416 471.739 195.298C470.348 182.577 468.957 169.865 467.567 157.143L468.601 155.466L468.822 154.221L468.516 152.782L467.677 151.579L466.422 150.74C463.683 149.479 460.579 149.817 459.027 152.595C449.138 157.321 439.25 162.047 429.362 166.773C419.838 171.321 408.516 175.09 399.926 181.197C392.157 193.74 388.316 210.738 383.049 224.544C377.511 239.086 371.974 253.619 366.444 268.162C371.982 253.628 377.52 239.086 383.049 224.552C388.324 210.696 392.208 193.842 399.917 181.205C408.389 175.031 419.88 171.313 429.353 166.79C439.242 162.064 449.13 157.338 459.018 152.612C460.579 149.834 463.674 149.495 466.413 150.757L467.668 151.596L468.508 152.799L468.813 154.238L468.593 155.483L467.558 157.16C472.316 200.668 477.073 244.167 481.839 287.675C483.171 299.82 484.494 311.974 485.825 324.119L485.834 324.111Z" stroke="white" stroke-miterlimit="10"/>
<path d="M621.964 124.044L625.475 123.442H625.492C600.822 127.677 574.923 130.142 550.719 136.452L549.769 137.07L549.014 137.917C539.304 161.284 532.8 186.549 524.87 210.593C516.941 234.638 508.384 260.555 500.141 285.54C495.51 299.582 490.872 313.625 486.241 327.659C502.6 278.087 518.951 228.523 535.31 178.96C539.788 165.4 543.4 151.044 549.014 137.925L549.769 137.078L550.719 136.46C573.896 130.65 598.422 128.101 621.981 124.044H621.964Z" stroke="white" stroke-miterlimit="10"/>
<path d="M660.466 47.768L663.867 48.8013L663.884 48.7844C635.643 40.2302 606.53 28.2628 577.552 22.8169C569.639 24.2567 560.845 31.1255 553.721 34.9029C544.952 39.5526 536.192 44.2108 527.423 48.8606C519.4 46.4891 518.467 60.684 527.118 59.1002C559.903 80.545 592.698 101.998 625.484 123.443H625.467C592.681 102.007 559.895 80.5619 527.109 59.1171C518.442 60.6671 519.417 46.4891 527.414 48.8775C536.175 44.2278 544.944 39.578 553.704 34.9198C560.947 31.0747 569.529 24.5023 577.535 22.8338C605.368 28.0341 633.337 39.5526 660.458 47.768H660.466Z" stroke="white" stroke-miterlimit="10"/>
<path d="M669.014 45.388C669.879 44.8206 670.744 44.2446 671.609 43.6687C669.031 45.3795 666.445 47.0819 663.875 48.8012C665.588 47.6663 667.301 46.5314 669.023 45.3965L669.014 45.388Z" stroke="white" stroke-miterlimit="10"/>
<path d="M682.176 33.9375L681.159 37.3507L681.176 37.3338C684.61 25.8153 688.452 14.3222 691.437 2.67663L691.284 1.99907L690.894 1.47396L690.335 1.13517L689.69 1.0166L688.927 1.20293C682.448 9.00334 677.554 18.8364 672.127 27.4329L671.864 28.3053C671.779 33.4209 671.694 38.5449 671.601 43.6605L671.584 43.6775C671.669 38.5619 671.754 33.4378 671.847 28.3223L672.11 27.4499C677.563 18.8025 682.524 9.17273 688.91 1.21987L689.673 1.03354L690.318 1.15212L690.877 1.49089L691.267 2.01601L691.42 2.69356C688.791 13.1957 685.272 23.5539 682.176 33.9291V33.9375Z" stroke="white" stroke-miterlimit="10"/>
<path d="M698.679 47.6411L700.333 50.2751L700.35 50.2582C697.043 44.9902 693.735 39.7137 690.428 34.4372L690.309 33.7088L689.52 32.8449C689.13 32.7009 688.732 32.5993 688.316 32.54L687.366 32.828L686.722 33.6411C684.856 34.8776 682.999 36.1057 681.142 37.3422C682.999 36.1142 684.848 34.8861 686.705 33.658L687.349 32.8449L688.299 32.557C688.715 32.6163 689.113 32.7179 689.503 32.8619L690.292 33.7258L690.411 34.4541C693.167 38.8498 695.923 43.237 698.679 47.6327V47.6411Z" stroke="white" stroke-miterlimit="10"/>
<path d="M707.83 55.9407L704.48 56.8978L704.497 56.8809C717.88 53.0611 731.262 49.2498 744.653 45.4301L745.586 44.7949L745.882 43.8209L745.772 43.1941L745.441 42.6436L744.907 42.254C734.722 41.3647 724.087 42.2202 713.851 42.271L712.969 42.5251C708.754 45.1082 704.531 47.6915 700.325 50.2916C704.531 47.7084 708.746 45.1252 712.952 42.542L713.834 42.2879C724.104 42.2286 734.663 41.5003 744.89 42.271L745.424 42.6606L745.755 43.2111L745.865 43.8378L745.569 44.8118L744.636 45.447C732.364 48.9449 720.101 52.4428 707.83 55.9407Z" stroke="white" stroke-miterlimit="10"/>
<path d="M701.647 66.7481L699.205 68.5775C701.859 66.5871 704.633 64.69 707.058 62.4625L707.236 61.7172L706.973 60.8194C706.151 59.5066 705.328 58.1939 704.505 56.8811L704.489 56.898C705.311 58.2108 706.134 59.5236 706.956 60.8363L707.219 61.7341L707.041 62.4794C705.362 64.0209 703.496 65.3675 701.647 66.7481Z" stroke="white" stroke-miterlimit="10"/>
<path d="M695.228 75.641L693.396 72.9223L693.413 72.9054C696.466 77.4366 699.519 81.9677 702.572 86.4989L703.267 87.0918C712.588 91.3943 721.899 96.4675 731.533 99.9739L732.195 99.8299L732.729 99.4403L733.085 98.8813L733.212 98.2376L733.068 97.577C722.883 87.0494 710.391 78.0633 699.222 68.5605L699.205 68.5775C710.4 78.1057 722.764 87.1257 733.051 97.594L733.195 98.2546L733.068 98.8983L732.712 99.4572L732.178 99.8468L731.516 99.9908C721.874 96.603 712.545 91.4028 703.259 87.1087L702.564 86.5159C700.121 82.8909 697.679 79.266 695.236 75.641H695.228Z" stroke="white" stroke-miterlimit="10"/>
<path d="M675.799 78.4112L673.738 75.5062L673.755 75.4892C675.129 77.4288 676.503 79.3598 677.885 81.2909L678.012 81.8075L678.665 82.5782L679.997 83.0186L680.54 82.9339L681.413 82.2648L681.642 81.7059C685.569 78.7669 689.487 75.8365 693.413 72.8976C689.487 75.845 685.552 78.7839 681.625 81.7228L681.396 82.2818L680.523 82.9509L679.98 83.0356L678.648 82.5951L677.996 81.8244L677.868 81.3078L675.807 78.4028L675.799 78.4112Z" stroke="white" stroke-miterlimit="10"/>
<path d="M665.478 69.1616L667.064 66.1211L667.081 66.1041C664.859 70.3643 662.34 74.616 660.542 79.054C661.263 90.1406 661.323 101.557 662.849 112.542L663.774 113.339L664.376 113.44L664.918 113.355L665.792 112.686C669.116 100.524 671.152 87.8369 673.755 75.4883L673.738 75.5053C671.135 87.8369 669.176 100.575 665.775 112.703L664.901 113.372L664.359 113.457L663.757 113.355L662.832 112.559C661.297 101.574 661.238 90.1575 660.525 79.0709C661.831 75.6662 663.782 72.4139 665.478 69.1616Z" stroke="white" stroke-miterlimit="10"/>
<path d="M663.807 61.5396L662.179 59.2444L662.196 59.2274C663.824 61.5227 665.453 63.8094 667.081 66.1046L667.064 66.1216C665.979 64.5971 664.893 63.0641 663.807 61.5396Z" stroke="white" stroke-miterlimit="10"/>
<path d="M597.294 59.1763H593.69L593.698 59.1509C616.528 59.1763 639.358 59.2018 662.188 59.2188L662.171 59.2357C640.545 59.2103 618.92 59.1933 597.294 59.1678V59.1763Z" stroke="white" stroke-miterlimit="10"/>
<path d="M645.532 116.964L647.889 119.589L647.906 119.572C629.843 99.4318 611.771 79.2913 593.707 59.1509V59.1678C610.973 78.4274 628.248 97.6955 645.532 116.955V116.964Z" stroke="white" stroke-miterlimit="10"/>
<path d="M754.558 101.244L758.111 100.634L758.137 100.617C721.39 106.936 684.644 113.254 647.898 119.581L647.881 119.598C683.44 113.483 718.999 107.368 754.558 101.253V101.244Z" stroke="white" stroke-miterlimit="10"/>
<path d="M896.319 6.57231C896.574 8.33397 895.921 9.85846 894.487 10.951C889.874 28.034 885.269 45.117 880.656 62.1999C876.042 79.2829 873.261 96.3743 867.002 112.06L866.188 113L865.136 113.669C850.897 117.023 835.251 117.319 820.706 119.005C805.424 120.775 790.151 122.545 774.869 124.315H774.894C804.424 120.885 836.234 120.326 865.17 113.652L866.222 112.983L867.036 112.043C873.286 96.3489 876.28 78.5037 880.689 62.183C885.303 45.1 889.908 28.0171 894.521 10.9341C897.142 8.86754 896.777 5.56444 894.487 3.37931L893.58 2.64246L892.511 2.16817L891.35 1.99878L889.95 2.25287C889.272 2.60012 888.636 3.02359 888.059 3.52329C870.326 5.45434 852.593 7.39385 834.86 9.3249C817.704 11.1967 798.996 11.2644 782.23 15.262L781.161 15.9311L780.339 16.8882C770.052 43.2113 765.328 73.2526 758.137 100.609L758.111 100.626C765.303 73.2442 770.069 43.2706 780.313 16.9051L781.136 15.948L782.205 15.279C799.03 11.366 817.636 11.2136 834.835 9.34183C852.034 7.47007 870.292 5.47126 888.025 3.54022C888.602 3.04052 889.229 2.61705 889.916 2.2698L891.316 2.01572L892.477 2.18511L893.546 2.6594L894.453 3.39624C895.302 4.31942 895.938 5.39504 896.328 6.58077L896.319 6.57231Z" stroke="white" stroke-miterlimit="10"/>
<path d="M752.871 238.112L753.049 237.976L752.522 238.367L752.871 238.112Z" stroke="white" stroke-miterlimit="10"/>
<path d="M753.303 237.908L753.728 237.823L753.057 237.976L753.312 237.916L753.303 237.908Z" stroke="white" stroke-miterlimit="10"/>
<path d="M795.333 184.848L795.69 184.644L795.146 184.958L795.333 184.848Z" stroke="white" stroke-miterlimit="10"/>
<path d="M794.994 185.152L795.147 184.957L794.756 185.484L794.994 185.152Z" stroke="white" stroke-miterlimit="10"/>
<path d="M797.266 184.915L797.691 185.246L796.825 184.61L797.266 184.915Z" stroke="white" stroke-miterlimit="10"/>
<path d="M863.534 266.713L863.848 267.154L863.203 266.29L863.534 266.713Z" stroke="white" stroke-miterlimit="10"/>
<path d="M863.322 268.975L862.999 269.221L863.509 268.83L863.322 268.975Z" stroke="white" stroke-miterlimit="10"/>
<path d="M745.416 392.562L745.356 392.002L745.45 392.858L745.416 392.562Z" stroke="white" stroke-miterlimit="10"/>
<path d="M440.743 550.526L440.285 550.119L441.168 550.873L440.743 550.526Z" stroke="white" stroke-miterlimit="10"/>
<path d="M444.873 515.929L444.627 515.632L445.247 516.361L444.873 515.929Z" stroke="white" stroke-miterlimit="10"/>
<path d="M406.321 447.385L406.405 446.995L406.27 447.631L406.321 447.385Z" stroke="white" stroke-miterlimit="10"/>
<path d="M406.312 447.825L406.27 447.63L406.397 448.216L406.312 447.825Z" stroke="white" stroke-miterlimit="10"/>
<path d="M465.176 464.391L465.617 464.807L464.769 464.036L465.176 464.391Z" stroke="white" stroke-miterlimit="10"/>
<path d="M484.249 433.173L484.673 433.554L483.824 432.808L484.249 433.173Z" stroke="white" stroke-miterlimit="10"/>
<path d="M14.3656 315.243L14.3486 315.057L14.493 316.15L14.3656 315.243Z" stroke="white" stroke-miterlimit="10"/>
<path d="M423.655 306.555L423.689 306.724L423.57 306.172L423.655 306.555Z" stroke="white" stroke-miterlimit="10"/>
<path d="M423.638 306.986L423.544 307.368L423.689 306.723L423.638 306.986Z" stroke="white" stroke-miterlimit="10"/>
<path d="M550.38 136.656L550.703 136.461L549.752 137.08L550.38 136.656Z" stroke="white" stroke-miterlimit="10"/>
<path d="M691.133 1.84795L691.268 2.02637L690.869 1.49963L691.133 1.84795Z" stroke="white" stroke-miterlimit="10"/>
<path d="M745.543 42.8396L745.756 43.1965L745.424 42.6527L745.543 42.8396Z" stroke="white" stroke-miterlimit="10"/>
<path d="M733.153 98.4758L733.068 98.8999L733.196 98.2468L733.153 98.4758Z" stroke="white" stroke-miterlimit="10"/>
<path d="M680.964 82.6377L680.523 82.9597L681.397 82.2903L680.964 82.6377Z" stroke="white" stroke-miterlimit="10"/>
<path d="M338.595 277.3L338.817 277.351L338.561 277.291H338.595V277.3Z" stroke="white" stroke-miterlimit="10"/>
<path d="M313.331 361.572L313.63 361.674L313.322 361.563H313.339L313.331 361.572Z" stroke="white" stroke-miterlimit="10"/>
<path d="M15.3496 317.768C15.1968 317.573 15.0525 317.37 14.9082 317.166L15.5787 318.048L15.3496 317.768Z" stroke="white" stroke-miterlimit="10"/>
<path d="M752.175 240.069L752.056 239.569L752.234 240.314L752.175 240.069Z" stroke="white" stroke-miterlimit="10"/>
<path d="M786.216 238.975L786.343 238.882L785.554 239.509C785.766 239.314 785.979 239.136 786.208 238.975H786.216Z" stroke="white" stroke-miterlimit="10"/>
<path d="M850.228 198.652L850.457 198.609L849.812 198.745L850.22 198.652H850.228Z" stroke="white" stroke-miterlimit="10"/>
<path d="M850.694 198.644L851.11 198.729L850.456 198.601L850.694 198.644Z" stroke="white" stroke-miterlimit="10"/>
<path d="M852.051 199.626C852.102 199.846 852.153 200.067 852.195 200.287L852.051 199.626Z" stroke="white" stroke-miterlimit="10"/>
<path d="M863.822 268.289C863.72 268.475 863.618 268.654 863.508 268.832L863.822 268.289Z" stroke="white" stroke-miterlimit="10"/>
<path d="M750.183 396.179C750.004 396.196 749.826 396.204 749.647 396.213L750.183 396.179Z" stroke="white" stroke-miterlimit="10"/>
<path d="M745.535 393.121L745.45 392.858L745.713 393.646L745.535 393.121Z" stroke="white" stroke-miterlimit="10"/>
<path d="M387.189 506.383L386.824 505.96L387.579 506.816L387.189 506.383Z" stroke="white" stroke-miterlimit="10"/>
<path d="M360.831 354.881C360.526 354.627 360.229 354.355 359.94 354.084L360.831 354.881Z" stroke="white" stroke-miterlimit="10"/>
<path d="M337.043 278.173L337.383 277.69L336.721 278.664L337.043 278.173Z" stroke="white" stroke-miterlimit="10"/>
<path d="M338.375 277.309L338.553 277.283L337.925 277.394L338.367 277.309H338.375Z" stroke="white" stroke-miterlimit="10"/>
<path d="M549.235 137.647L549.753 137.079L548.998 137.935L549.235 137.647Z" stroke="white" stroke-miterlimit="10"/>
<path d="M691.268 2.02515C691.327 2.24546 691.378 2.47425 691.42 2.70304L691.268 2.02515Z" stroke="white" stroke-miterlimit="10"/>
<path d="M689.512 32.8706C689.792 33.1502 690.055 33.4383 690.302 33.7349L689.512 32.8706Z" stroke="white" stroke-miterlimit="10"/>
<path d="M745.23 42.5017L745.425 42.6546L744.898 42.2638L745.23 42.5017Z" stroke="white" stroke-miterlimit="10"/>
<path d="M707.22 61.7252C707.169 61.9794 707.109 62.2252 707.042 62.4709L707.22 61.7252Z" stroke="white" stroke-miterlimit="10"/>
<path d="M733.051 97.5863C733.102 97.8068 733.153 98.0274 733.196 98.2479L733.051 97.5863Z" stroke="white" stroke-miterlimit="10"/>
<path d="M665.776 112.704C665.496 112.941 665.198 113.161 664.901 113.373L665.776 112.704Z" stroke="white" stroke-miterlimit="10"/>
<path d="M663.757 113.357C663.443 113.103 663.129 112.832 662.832 112.561L663.757 113.357Z" stroke="white" stroke-miterlimit="10"/>
<path d="M785.283 241.263L785.156 240.729L785.359 241.542L785.283 241.263Z" stroke="white" stroke-miterlimit="10"/>
<path d="M428.726 484.676L428.87 484.193L428.624 485.057L428.726 484.676Z" stroke="white" stroke-miterlimit="10"/>
<path d="M549.237 137.647L548.998 137.946C549.066 137.835 549.143 137.732 549.237 137.647Z" stroke="white" stroke-miterlimit="10"/>
<path d="M732.713 99.4489C732.543 99.5848 732.365 99.7207 732.178 99.8397L732.713 99.4489Z" stroke="white" stroke-miterlimit="10"/>
<path d="M731.932 99.8979L731.516 99.9913L732.179 99.8384L731.932 99.8979Z" stroke="white" stroke-miterlimit="10"/>
<path d="M678.309 82.2308C678.199 82.1037 678.097 81.9681 677.987 81.8325L678.64 82.6036L678.301 82.2308H678.309Z" stroke="white" stroke-miterlimit="10"/>
<path d="M833.657 254.924L833.309 254.941L833.802 254.907L833.657 254.924Z" stroke="white" stroke-miterlimit="10"/>
<path d="M749.555 396.213L749.275 396.187L749.461 396.204C749.241 396.204 749.029 396.179 748.816 396.136L749.648 396.221H749.555V396.213Z" stroke="white" stroke-miterlimit="10"/>
<path d="M312.67 361.487C312.882 361.513 313.102 361.538 313.315 361.564L312.398 361.462L312.661 361.479L312.67 361.487Z" stroke="white" stroke-miterlimit="10"/>
<path d="M310.083 362.182L310.38 361.978L309.515 362.588C309.701 362.444 309.888 362.309 310.075 362.173L310.083 362.182Z" stroke="white" stroke-miterlimit="10"/>
<path d="M448.156 516.038C448.028 516.199 447.901 516.361 447.773 516.522L448.156 516.038Z" stroke="white" stroke-miterlimit="10"/>
<path d="M447.799 516.496L447.273 516.741L446.713 516.826L445.263 516.335C445.051 516.098 444.848 515.852 444.644 515.607L444.593 514.751C441.913 509.83 439.242 504.901 436.562 499.98C428.463 504.19 422.934 507.789 413.732 507.56C405.065 507.349 396.203 507.611 387.587 506.79C387.332 506.519 387.078 506.231 386.84 505.934L386.747 505.35L386.832 504.774L387.544 503.809C402.25 499.269 417.761 496.516 432.746 492.968C431.329 490.35 429.795 487.75 428.641 485.032C428.718 484.744 428.794 484.456 428.887 484.168C431.592 482.127 434.696 480.551 437.656 478.849C427.259 468.711 416.149 458.937 406.405 448.198C406.363 448.003 406.32 447.8 406.286 447.605C406.329 447.393 406.371 447.182 406.422 446.97L406.787 446.428L407.338 446.055L408.008 445.911C418.176 449.917 427.937 455.897 437.681 460.894L438.411 461.605C440.709 465.899 442.999 470.185 445.297 474.47C451.454 470.93 457.645 466.619 464.175 463.909L464.785 464.019C465.074 464.273 465.362 464.535 465.633 464.798L465.761 465.382L465.667 465.908C467.067 468.431 468.474 470.955 469.882 473.479C473.724 460.343 477.557 447.207 481.399 434.071L482.137 433.037L482.671 432.783L483.248 432.699L483.833 432.792C484.121 433.02 484.409 433.275 484.681 433.529C485.342 444.361 484.638 455.465 484.554 466.34C482.077 472.006 478.185 477.316 474.971 482.626C476.353 485.116 477.744 487.598 479.126 490.088C503.923 491.951 528.72 493.823 553.518 495.686C531.417 451.145 509.325 406.613 487.225 362.072C486.894 362.241 486.546 362.368 486.182 362.453C472.418 382.856 458.645 403.259 444.881 423.662C436.825 435.604 434.798 432.741 422.518 426.609C411.638 421.172 400.749 415.743 389.868 410.305C367.488 425.94 345.252 445.098 321.235 458.014C315.23 458.912 309.252 448.52 305.681 444.615C299.474 437.823 293.266 431.03 287.058 424.238C266.705 433.3 246.36 442.354 226.006 451.416C215.024 456.303 214.201 452.577 208.426 443.142C202.651 433.707 196.867 424.263 191.092 414.828C173.198 419.037 155.134 424.509 137.003 427.439L135.739 427.244L134.603 426.694L133.67 425.83C129.209 416.844 126.266 406.782 122.713 397.389C107.431 398.423 89.164 402.479 74.0431 400.345L72.7964 399.642L71.8551 398.567C68.641 388.852 67.4791 378.02 65.4608 367.966C55.1823 364.155 43.8098 361.165 34.0911 356.126L33.2176 355.194L32.6664 354.059L32.4713 352.797C33.7519 345.404 35.7533 338.069 37.4409 330.743C30.3851 326.703 20.9462 323.086 15.1201 317.471L15.1455 317.446C14.6621 316.726 14.3992 315.896 14.3653 315.032C15.6374 309.137 18.8515 303.327 21.1582 297.746C15.0013 294.222 8.53066 290.962 2.67059 286.981C1.91581 286.143 1.4918 285.118 1.44092 283.991C2.6706 278.444 5.53704 272.075 8.28474 267.086L9.20063 266.256L10.3116 265.731C15.824 265.231 23.5413 266.476 28.8331 268.035L30.0035 268.966L30.7752 270.245C31.9286 277.419 31.0551 285.346 31.0551 292.613C36.7964 293.359 42.9363 293.587 48.4996 295.163L49.6699 296.094L50.4417 297.373C51.824 305.936 50.7215 315.498 50.7215 324.179C56.4968 323.976 62.6961 323.103 68.412 323.866L69.6756 324.602L70.6169 325.72C73.5257 335.35 74.289 346.09 75.9512 356.024C83.465 352.315 96.1435 341.508 102.928 348.647C111.239 357.396 117.379 370.253 124.095 380.298C133.763 373.361 143.389 364.85 153.862 359.209C160.146 357.989 168.254 371.049 172.061 375.106C179.219 382.754 186.385 390.394 193.543 398.041C203.338 387.751 213.141 373.878 224.768 365.756L226.422 365.425L227.719 365.629C246.877 376.046 264.508 392.189 282.139 405.054C288.025 395.873 293.902 386.684 299.787 377.503C302.501 373.26 307.31 360.327 313.619 361.648L313.314 361.538C337.297 371.049 360.491 383.584 383.855 394.561C387.01 379.129 388.452 361.614 393.879 346.86L394.821 345.785L396.059 345.082C408.619 343.261 423.824 346.725 436.503 347.64C450.267 348.63 464.022 349.63 477.778 350.621C459.918 304.598 442.049 258.583 424.189 212.56C408.907 232.099 393.625 251.629 378.343 271.168C379.327 274.116 380.302 277.072 381.286 280.019C387.171 281.213 393.523 281.916 399.163 283.89C407.27 291.224 416.022 298.245 423.57 306.131C423.612 306.308 423.655 306.495 423.689 306.681C423.638 306.893 423.587 307.113 423.536 307.325L423.129 307.884L422.535 308.273L421.814 308.417C409.102 303.827 396.822 296.247 384.686 290.233C385.602 292.969 386.51 295.713 387.426 298.457L388.087 299.033L388.299 299.795L387.968 300.761L387.01 301.421C380.285 303.573 373.56 305.716 366.835 307.858C368.412 312.313 369.981 316.777 371.558 321.232L371.592 322.24C368.726 332.86 366.317 343.777 362.84 354.203L361.95 354.856L361.416 354.932L360.822 354.83C360.517 354.576 360.22 354.313 359.932 354.034C358.329 339.763 358.787 324.95 358.286 310.585C355.386 311.509 352.494 312.491 349.56 313.27L348.585 312.991L347.982 312.229C347.007 309.383 346.032 306.529 345.057 303.683C332.115 312.483 319.403 321.977 306.038 330.108L305.52 330.184L304.825 330.048L304.24 329.676L303.841 329.134L303.688 328.498L304.087 327.508C309.761 320.961 315.443 314.414 321.124 307.867C327.12 300.947 333.964 299.33 342.496 296.23C340.749 291.114 338.993 285.99 337.238 280.874L336.61 280.307L336.406 279.562L336.72 278.622C336.932 278.291 337.153 277.961 337.39 277.648L337.941 277.36C338.153 277.309 338.357 277.267 338.569 277.25M447.799 516.496C447.926 516.335 448.053 516.174 448.18 516.013L447.799 516.496ZM447.799 516.496L448.537 515.556C450.411 514.514 452.285 513.481 454.168 512.439C449.495 524.711 444.076 536.967 440.166 549.493L440.302 550.086C440.59 550.348 440.887 550.594 441.192 550.84L441.812 550.941L442.643 550.746C450.843 541.972 459.375 529.64 465.175 519.147C465.591 514.675 466.007 510.195 466.422 505.723C469.187 504.207 471.96 502.691 474.725 501.175C489.057 506.798 503.38 512.422 517.713 518.046C531.426 523.424 546.207 531.597 560.616 534.553C570.301 532.96 580.587 526.879 589.704 523.204C600.424 518.884 611.151 514.565 621.871 510.237C622.532 510.33 623.185 510.305 623.838 510.161C626.12 509.11 627.841 507.239 628.265 504.74L628.036 503.419L627.349 502.267L626.213 501.429C625.407 501.166 624.585 501.005 623.745 500.963C590.942 463.807 558.131 426.66 525.328 389.504C515.991 378.934 506.654 368.356 497.325 357.786C552.457 348.275 607.581 338.755 662.713 329.244C677.834 326.635 693.532 324.95 708.398 321.198L709.348 320.579L710.103 319.733C716.565 304.199 720.941 287.447 726.224 271.465C732.983 310.492 739.734 349.52 746.484 388.539C744.432 391.639 745.56 395.712 749.487 396.161L749.3 396.144C750.021 396.144 750.725 396.204 751.437 396.314L752.718 396.127L753.888 395.56L754.846 394.603C755.211 393.942 755.499 393.239 755.703 392.519C769.84 381.246 787.759 370.533 799.717 357.024C803.771 343.549 803.457 327.287 805.06 313.279C806.773 298.364 808.486 283.449 810.199 268.526C812.607 267.078 815.016 265.629 817.424 264.181C821.376 266.375 825.32 268.89 829.475 270.618C840.576 270.186 852.008 270.449 863.024 269.178C863.203 269.051 863.372 268.924 863.533 268.789C863.643 268.611 863.745 268.433 863.847 268.246L863.949 267.637L863.872 267.112C863.669 266.815 863.457 266.527 863.228 266.248C851.728 262.851 839.762 260.556 828.085 257.778C829.645 256.838 831.205 255.898 832.774 254.958L833.834 254.865M833.834 254.865L833.342 254.899C833.504 254.89 833.673 254.882 833.834 254.865ZM833.834 254.865L834.36 254.492L834.716 253.95C834.81 253.535 834.886 253.112 834.937 252.697L834.665 251.773L833.877 251.138C831.121 246.327 828.364 241.517 825.608 236.706C829.738 234.089 833.868 231.463 837.99 228.846L838.6 228.169C843.146 218.988 848.582 209.799 852.237 200.253C852.195 200.033 852.144 199.813 852.093 199.593L851.703 199.059L851.143 198.703C850.931 198.653 850.711 198.61 850.49 198.576C850.278 198.619 850.058 198.661 849.846 198.712C839.839 208.333 830.942 219.496 821.648 229.829C820.367 227.593 819.078 225.349 817.798 223.113L817.162 222.477L816.322 222.257C813.591 223.367 811.047 225.001 808.46 226.475C804.933 212.78 802.049 198.661 797.716 185.212C797.436 184.983 797.156 184.78 796.859 184.576L796.342 184.5L795.723 184.61C795.536 184.712 795.358 184.814 795.18 184.932C795.044 185.101 794.917 185.279 794.79 185.457C793.687 195.612 794.222 206.216 794.01 216.439L794.239 217.319C796.749 221.647 799.251 225.967 801.761 230.295C796.808 233.115 791.855 235.927 786.903 238.747L786.386 238.857C786.114 239.052 785.851 239.264 785.597 239.484L785.19 240.704C785.249 240.975 785.317 241.246 785.393 241.517C787.217 244.015 788.624 246.861 790.151 249.571C778.075 245.633 766.015 241.085 753.761 237.79C753.532 237.833 753.311 237.883 753.091 237.943C752.913 238.07 752.735 238.205 752.565 238.332L752.217 238.891L752.09 239.535C752.149 239.78 752.209 240.035 752.268 240.28C759.96 246.912 769.594 252.07 778.075 257.719L778.948 257.998C784.384 258.236 789.829 258.464 795.265 258.701C796.655 261.183 798.046 263.665 799.437 266.146C790.617 286.541 781.798 306.935 772.978 327.321C760.316 299.872 747.663 272.413 735.002 244.964C748.299 204.734 761.605 164.504 774.903 124.274C804.432 120.852 836.243 120.301 865.179 113.627L866.23 112.958L867.044 112.018C873.294 96.3242 876.288 78.479 880.698 62.1583C885.108 45.8376 889.916 27.9924 894.53 10.9094C897.15 8.84283 896.786 5.53971 894.496 3.35459L893.588 2.61774L892.52 2.14345L891.358 1.97407L889.959 2.22815C889.28 2.5754 888.644 2.99888 888.068 3.49858C870.335 5.42962 852.61 7.36914 834.877 9.30019C817.145 11.2312 799.013 11.2397 782.247 15.2373L781.178 15.9064L780.356 16.8634C770.069 43.1866 765.345 73.2195 758.154 100.584C721.407 106.903 684.67 113.221 647.923 119.539C629.86 99.3986 611.796 79.2667 593.732 59.1262C616.562 59.1516 639.383 59.177 662.213 59.194C663.841 61.4892 665.47 63.776 667.098 66.0712C664.876 70.3314 662.357 74.583 660.559 79.021C661.28 90.1076 661.339 101.524 662.866 112.509C663.163 112.789 663.468 113.051 663.79 113.306L664.393 113.407L664.935 113.322C665.241 113.111 665.529 112.891 665.809 112.653C669.133 100.491 671.168 87.8039 673.772 75.4554C675.146 77.3864 676.52 79.326 677.902 81.257L678.029 81.7736C678.233 82.0447 678.453 82.2987 678.682 82.5444L680.014 82.9848L680.556 82.9001C680.862 82.6883 681.15 82.4681 681.43 82.231L681.659 81.672C685.585 78.7331 689.503 75.8026 693.43 72.8637C696.483 77.3949 699.536 81.9261 702.589 86.4573L703.284 87.0501C712.605 91.3526 721.916 96.4174 731.542 99.9322C731.762 99.8899 731.983 99.8391 732.203 99.7883C732.39 99.6697 732.568 99.5342 732.737 99.3986L733.094 98.8397C733.145 98.6279 733.187 98.4077 733.221 98.196C733.178 97.9758 733.128 97.7556 733.077 97.5354C722.891 87.0163 710.4 78.0301 699.231 68.5189C701.877 66.537 704.641 64.6398 707.067 62.4293C707.126 62.1837 707.186 61.9296 707.245 61.684L706.982 60.7862C706.159 59.4735 705.337 58.1607 704.514 56.8479C717.896 53.0282 731.279 49.2169 744.661 45.3972L745.594 44.762L745.891 43.788L745.781 43.1612C745.679 42.9749 745.569 42.7886 745.45 42.6107C745.272 42.4752 745.102 42.3481 744.915 42.2211C734.73 41.3318 724.104 42.1872 713.86 42.238L712.978 42.4921C708.771 45.0753 704.557 47.6585 700.35 50.2417C697.043 44.9737 693.735 39.6972 690.428 34.4292L690.309 33.7008C690.055 33.4044 689.792 33.1164 689.52 32.8369C689.13 32.6929 688.732 32.5913 688.316 32.532L687.366 32.82L686.722 33.633C684.865 34.8611 683.016 36.0892 681.159 37.3173C684.593 25.7987 688.435 14.3056 691.42 2.66856C691.378 2.43988 691.327 2.21969 691.267 1.99101C691.14 1.81315 691.005 1.63528 690.877 1.46589L690.318 1.12712L689.673 1.00854L688.91 1.19487C682.431 8.99528 677.537 18.8284 672.11 27.4249L671.847 28.2973C671.762 33.4128 671.677 38.5369 671.584 43.6525C669.014 45.3548 666.436 47.0572 663.867 48.7596C635.626 40.2054 606.513 28.2464 577.543 22.7921C569.631 24.2319 560.836 31.1006 553.713 34.878C544.952 39.5278 536.183 44.1776 527.423 48.8358C519.4 46.4643 518.467 60.6507 527.118 59.0754C559.903 80.5202 592.689 101.965 625.475 123.41C611.745 125.773 598.015 128.136 584.285 130.49C577.831 131.6 571.378 132.709 564.924 133.819C560.327 134.606 552.279 134.284 548.997 137.909L549.235 137.613C543.519 148.081 540.975 161.709 537.226 173.066C533.105 185.567 528.975 198.068 524.853 210.569C516.695 235.275 508.545 259.989 500.387 284.694C495.663 299.008 490.939 313.313 486.224 327.626C481.399 283.509 476.573 239.391 471.748 195.273C470.357 182.552 468.966 169.839 467.575 157.118L468.61 155.441L468.831 154.196L468.525 152.756L467.686 151.554L466.431 150.715C463.691 149.453 460.587 149.792 459.035 152.57C449.147 157.296 439.259 162.022 429.371 166.748C419.847 171.296 408.525 175.065 399.934 181.163C392.166 193.706 388.325 210.705 383.067 224.51C377.529 239.044 371.991 253.586 366.462 268.119C363.739 269.043 361.026 269.974 358.303 270.897C354.521 268.018 350.739 265.138 346.956 262.259C335.431 259.193 320.158 257.355 308.234 257.431L307.649 257.837L307.276 258.405L307.14 259.049L307.369 259.828L308.115 260.404C320.531 265.375 332.946 270.347 345.362 275.31C343.335 276.005 341.3 276.691 339.273 277.385L338.569 277.25M338.569 277.25L338.823 277.309C338.739 277.283 338.654 277.267 338.569 277.25Z" stroke="white" stroke-miterlimit="10"/>
<path d="M124.036 380.323C117.319 370.278 111.179 357.422 102.869 348.673C96.0841 341.533 83.4056 352.34 75.8918 356.05C74.2381 346.166 73.5851 335.274 70.5575 325.737L69.6162 324.619L68.3526 323.883C62.6282 323.12 56.4289 323.993 50.6537 324.196C50.6537 315.472 51.6713 306.003 50.3738 297.39L49.6021 296.111L48.4317 295.179C42.8685 293.604 36.7286 293.375 30.9872 292.63C30.9872 285.372 31.8946 277.41 30.7074 270.262L29.9356 268.983L28.7653 268.052C23.4734 266.493 15.7476 265.248 10.2437 265.748L9.13279 266.273L8.21687 267.103C5.45221 272.083 2.62817 278.461 1.37305 284.017C1.42393 285.143 1.84797 286.176 2.60274 287.006C8.41193 291.038 14.9504 294.256 21.0904 297.771C18.7837 303.352 15.5695 309.163 14.2975 315.057C14.3483 316.184 14.7723 317.217 15.5271 318.047C22.4557 322.739 30.1307 326.576 37.3985 330.743C35.7109 338.069 33.7095 345.404 32.4289 352.806L32.624 354.076L33.1752 355.211L34.0487 356.143C43.7674 361.182 55.1398 364.172 65.4183 367.983C67.4197 377.986 68.4798 388.962 71.8127 398.592L72.754 399.668L74.0006 400.371C89.1045 402.539 107.414 398.456 122.679 397.415C126.224 406.774 129.082 416.954 133.644 425.855L134.577 426.719L135.714 427.27L136.977 427.464C155.117 424.297 173.13 419.071 191.066 414.853L192.008 408.027L191.931 408.01L190.99 414.836C196.765 424.28 202.549 433.715 208.324 443.158C214.371 453.034 214.914 456.328 225.905 451.433C246.25 442.371 266.603 433.317 286.956 424.255C293.164 431.047 299.372 437.84 305.58 444.632C309.006 448.376 315.264 459.132 321.133 458.031C332.997 451.789 343.954 442.328 354.953 434.647C366.563 426.541 378.165 418.428 389.775 410.322C400.664 415.76 411.544 421.189 422.433 426.626C434.773 432.783 436.723 435.646 444.797 423.679C458.561 403.276 472.333 382.864 486.097 362.461C486.462 362.376 486.809 362.249 487.14 362.08C492.262 372.413 497.393 382.737 502.515 393.07C520.401 429.108 536.421 467.178 557.029 501.716L553.441 495.703C528.644 493.84 503.838 491.968 479.041 490.105C477.659 487.615 476.268 485.133 474.886 482.643C478.1 477.333 482.001 472.014 484.469 466.356C484.554 455.507 485.368 444.353 484.596 433.546L483.748 432.809L483.163 432.716L482.586 432.8L482.052 433.054L481.314 434.088C477.472 447.224 473.639 460.36 469.797 473.496C468.398 470.964 466.99 468.44 465.582 465.916L465.676 465.391L465.549 464.806L464.7 464.027L464.09 463.917C457.551 466.5 451.335 470.964 445.212 474.479C442.914 470.185 440.624 465.899 438.326 461.613L437.597 460.902C427.886 455.93 418.1 449.765 407.923 445.919L407.253 446.063L406.702 446.436L406.337 446.978L406.202 447.613L406.32 448.206C415.92 459.03 427.199 468.753 437.571 478.866C434.611 480.568 431.516 482.144 428.802 484.185L428.556 485.049C429.718 487.767 431.245 490.367 432.669 492.984C417.71 496.533 402.122 499.21 387.468 503.825L386.756 504.791L386.671 505.367L386.764 505.951L387.51 506.807C396.135 507.603 404.98 507.366 413.656 507.577C422.84 507.806 428.412 504.198 436.486 499.997C439.166 504.918 441.837 509.847 444.517 514.768L444.568 515.623L445.187 516.352L446.637 516.843L447.197 516.758L447.722 516.513L448.46 515.573C450.343 514.531 452.217 513.498 454.091 512.456C449.41 524.745 444.084 536.992 440.09 549.51L440.226 550.111L441.116 550.865L441.735 550.967L442.566 550.772C450.58 541.845 459.527 529.776 465.099 519.164C465.515 514.692 465.93 510.211 466.346 505.739C469.11 504.223 471.884 502.707 474.648 501.191C488.98 506.815 503.304 512.439 517.636 518.063C531.307 523.424 546.165 531.715 560.548 534.57C570.284 532.816 580.443 526.93 589.645 523.221C600.373 518.893 611.092 514.573 621.82 510.254C622.481 510.347 623.135 510.322 623.788 510.178C626.06 509.11 627.782 507.256 628.214 504.757L627.985 503.436L627.299 502.284L626.162 501.445C625.365 501.183 624.534 501.022 623.694 500.98C614.357 490.41 605.02 479.831 595.683 469.261C562.872 432.106 530.069 394.95 497.257 357.794C512.726 355.118 528.195 352.45 543.663 349.782C571.361 345.005 599.058 340.22 626.756 335.443C653.673 330.802 681.939 328.092 708.356 321.206L709.306 320.588L710.06 319.741C716.675 304.318 720.916 287.404 726.19 271.465C732.949 310.501 739.7 349.528 746.459 388.556C743.72 392.689 746.807 396.737 751.412 396.331L752.692 396.144L753.863 395.577L754.821 394.62C755.194 393.959 755.474 393.265 755.677 392.536C769.704 381.357 788.022 370.609 799.692 357.041C803.677 343.506 803.423 327.338 805.034 313.296C806.747 298.381 808.46 283.458 810.174 268.543C812.582 267.095 814.991 265.646 817.399 264.198C821.351 266.392 825.294 268.916 829.45 270.635C840.542 270.203 851.983 270.465 862.999 269.195L863.508 268.805L863.822 268.263L863.923 267.654L863.847 267.128L863.202 266.265C851.703 262.868 839.737 260.573 828.059 257.795C829.628 256.855 831.188 255.915 832.749 254.975L833.809 254.882L834.335 254.509L834.691 253.967C834.793 253.552 834.86 253.137 834.911 252.713L834.64 251.79L833.851 251.155C831.095 246.344 828.339 241.534 825.583 236.723C829.704 234.106 833.834 231.48 837.964 228.863L838.575 228.186C843.104 219.039 848.701 209.824 852.212 200.262L852.067 199.601L851.677 199.068L851.118 198.712L850.465 198.585L849.82 198.72C839.72 208.189 830.892 219.547 821.622 229.846C820.342 227.61 819.053 225.365 817.772 223.129L817.136 222.494L816.296 222.274C813.566 223.392 811.013 225.027 808.435 226.492C804.899 212.78 801.913 198.737 797.69 185.228L796.834 184.593L796.316 184.517L795.697 184.627L795.154 184.949L794.764 185.474C793.772 195.671 794.196 206.207 793.984 216.464L794.213 217.345C796.723 221.673 799.225 225.992 801.735 230.32L805.187 229.168M124.036 380.323L123.29 388.903M124.036 380.323C133.712 373.387 143.338 364.866 153.803 359.234C160.299 358.252 168.016 370.871 172.002 375.131C179.168 382.779 186.326 390.419 193.492 398.067C203.38 387.675 213.124 374.183 224.717 365.773L226.371 365.442L227.669 365.646C246.826 376.063 264.457 392.206 282.088 405.071M282.088 405.071L283.047 413.998M282.088 405.071C288.44 395.153 294.792 385.227 301.153 375.309C307.751 365.01 308.548 359.217 320.497 364.824C341.605 374.742 362.713 384.66 383.821 394.569M383.821 394.569L384.652 401.116M383.821 394.569C386.976 379.154 388.401 361.606 393.845 346.869L394.787 345.793L396.025 345.09C408.703 343.413 423.688 346.725 436.469 347.648C450.224 348.639 463.988 349.638 477.744 350.629C459.875 304.606 442.015 258.583 424.146 212.56C408.864 232.099 393.582 251.638 378.3 271.168C379.284 274.116 380.259 277.072 381.243 280.019C387.12 281.213 393.481 281.916 399.12 283.89C407.245 291.233 415.895 298.296 423.527 306.13L423.646 306.681L423.493 307.325L423.086 307.884L422.493 308.273L421.772 308.417C409.059 303.895 396.754 296.238 384.635 290.233L383.737 286.058C384.491 290.318 386.009 294.366 387.375 298.457L388.036 299.033L388.248 299.795L387.917 300.761L386.959 301.421C380.234 303.564 373.509 305.707 366.784 307.858C368.361 312.322 369.93 316.777 371.508 321.24L371.541 322.248C368.667 332.86 366.258 343.786 362.781 354.212L361.891 354.864L361.356 354.94L360.763 354.839L359.864 354.042C358.43 339.72 358.719 324.992 358.218 310.594C355.318 311.517 352.426 312.5 349.492 313.279L348.517 312.999L347.915 312.237C346.939 309.391 345.964 306.537 344.989 303.691C332.039 312.5 319.31 321.935 305.97 330.125L305.452 330.201L304.757 330.065L304.172 329.693L303.773 329.151L303.621 328.515L304.019 327.524C309.701 320.978 315.383 314.431 321.065 307.875C327.061 300.956 333.913 299.338 342.445 296.238C340.689 291.123 338.934 285.998 337.178 280.883L336.551 280.315L336.347 279.57L336.661 278.63L337.331 277.656L337.882 277.368L338.51 277.258L339.214 277.393C341.24 276.699 343.276 276.013 345.303 275.318C332.887 270.347 320.471 265.375 308.047 260.404L307.301 259.828L307.072 259.049L307.208 258.405L307.581 257.837L308.166 257.431C320.073 257.084 335.312 259.438 346.888 262.267C350.671 265.147 354.453 268.026 358.235 270.906C360.958 269.983 363.671 269.051 366.394 268.128C371.932 253.586 377.469 239.052 382.999 224.51C388.274 210.654 392.166 193.791 399.875 181.163C408.347 174.989 419.838 171.271 429.311 166.74C438.784 162.208 449.088 157.288 458.976 152.562C460.537 149.784 463.64 149.445 466.371 150.707L467.626 151.545L468.466 152.748L468.771 154.188L468.551 155.433L467.516 157.11C472.342 201.227 477.167 245.353 482.001 289.479C483.392 302.201 484.783 314.913 486.173 327.635M486.173 327.635L479.898 333.14L481.407 328.354M486.173 327.635C502.532 278.063 518.891 228.499 535.25 178.927C539.728 165.367 543.341 151.003 548.955 137.892L549.71 137.045L550.66 136.427C574.863 130.109 600.763 127.653 625.433 123.41M625.433 123.41L634.219 118.658M625.433 123.41C592.647 101.965 559.852 80.5116 527.067 59.0669C518.399 60.6168 519.375 46.4388 527.372 48.8272C536.141 44.1775 544.901 39.5277 553.67 34.8695C560.913 31.0244 569.495 24.452 577.501 22.7835C606.453 28.0939 635.635 40.2053 663.833 48.751C666.402 47.0486 668.98 45.3463 671.55 43.6439C671.635 38.5283 671.72 33.4043 671.813 28.2887L672.076 27.4164C677.529 18.769 682.49 9.13919 688.876 1.18633L689.639 1L690.284 1.11857L690.843 1.45736L691.234 1.98246L691.386 2.66003C688.401 14.2971 684.559 25.7902 681.125 37.3172C682.982 36.0891 684.831 34.861 686.688 33.633L687.332 32.8199L688.282 32.5319C688.698 32.5912 689.096 32.6928 689.486 32.8368L690.275 33.7007L690.394 34.4291C693.701 39.7056 697.009 44.9736 700.316 50.2501C704.523 47.6669 708.737 45.0837 712.944 42.5005L713.826 42.2464C724.096 42.1872 734.663 41.4588 744.882 42.2295L745.416 42.6191L745.747 43.1696L745.857 43.7964L745.56 44.7703L744.627 45.4056C731.245 49.2253 717.863 53.0366 704.472 56.8563C705.294 58.1691 706.117 59.4819 706.94 60.7946L707.202 61.6924L707.024 62.4377C704.599 64.6567 701.834 66.5539 699.188 68.5358C710.383 78.0639 722.747 87.0839 733.034 97.5522L733.178 98.2129L733.051 98.8565L732.695 99.4155L732.161 99.8051L731.499 99.9491C721.857 96.5613 712.528 91.361 703.233 87.067L702.538 86.4742C699.485 81.943 696.432 77.4118 693.379 72.8806C689.453 75.8195 685.535 78.75 681.608 81.6889L681.379 82.2479L680.506 82.917L679.963 83.0017L678.631 82.5612L677.978 81.7905L677.851 81.2739C676.477 79.3428 675.103 77.4033 673.721 75.4723C671.118 87.8038 669.159 100.542 665.758 112.67L664.884 113.339L664.342 113.424L663.739 113.322L662.815 112.526C661.28 101.541 661.221 90.116 660.508 79.0379C662.298 74.5999 664.825 70.3482 667.047 66.0881C665.419 63.7928 663.79 61.5061 662.162 59.2108C639.332 59.1854 616.503 59.16 593.673 59.1431C611.737 79.2835 629.809 99.424 647.872 119.564C684.619 113.246 721.365 106.928 758.111 100.601C765.303 73.2194 770.069 43.2458 780.313 16.8803L781.136 15.9232L782.205 15.2542C799.03 11.3413 817.645 11.1888 834.835 9.31705C852.568 7.38601 870.301 5.44649 888.034 3.51544C888.61 3.01574 889.238 2.59227 889.925 2.24502L891.324 1.99094L892.486 2.16033L893.554 2.63462L894.462 3.37146C896.76 5.55659 897.116 8.85969 894.496 10.9262C889.882 28.0092 885.277 45.0922 880.664 62.1752C876.263 78.4959 873.269 96.3496 867.01 112.035L866.196 112.975L865.145 113.644C850.906 116.998 835.259 117.295 820.706 118.98C805.424 120.75 790.142 122.52 774.86 124.29C761.563 164.521 748.257 204.759 734.959 244.989C747.621 272.447 760.282 299.897 772.944 327.355C781.764 306.96 790.583 286.566 799.403 266.171C798.012 263.69 796.622 261.208 795.231 258.727C789.795 258.49 784.35 258.261 778.914 258.024L778.041 257.744C769.518 252.07 760.07 246.853 752.234 240.306L752.056 239.56L752.183 238.917L752.531 238.358L753.057 237.968L753.727 237.816C765.981 241.178 778.032 245.65 790.125 249.597C788.607 246.878 787.191 244.041 785.368 241.542L785.164 240.729L785.571 239.509L786.36 238.883L786.877 238.773C792.619 235.503 798.75 230.82 805.187 229.168M805.187 229.168L803.711 228.872" stroke="white" stroke-miterlimit="10"/>
<path d="M595.615 277.757C591.655 276.859 587.966 274.496 584.777 272.048C569.911 253.458 574.202 228.176 585.871 208.587C596.659 190.479 615.095 179.706 635.856 176.784C657.244 173.768 681.091 180.078 684.831 204.03C687.96 224.077 679.556 247.343 665.088 261.419C648.034 278.011 618.284 285.82 595.607 277.757H595.615Z" stroke="white" stroke-miterlimit="10"/>
<path d="M583.632 297.305C546.767 290.047 552.635 247.632 561.981 220.622C572.955 188.93 592.333 169.28 625.365 161.548C652.918 155.094 699.858 152.519 704.912 189.531C708.635 216.837 697.848 251.062 679.945 271.719C657.955 297.093 614.891 302.226 583.632 297.297V297.305Z" stroke="white" stroke-miterlimit="10"/>
<path d="M541.475 286.354C536.166 255.415 548.09 217.387 562.694 190.285C579.858 158.423 617.359 148.793 651.307 146.362C671.058 144.948 694.668 143.703 710.807 156.932C722.366 172.694 720.178 191.03 716.811 209.341C713.707 226.238 709.789 243.575 702.267 259.117C693.905 276.377 682.617 290.047 664.749 297.864C648.246 305.081 629.673 307.96 611.898 310.018C591.74 312.356 571.013 313.177 552.687 303.522C547.166 298.296 543.638 293.842 541.458 286.354H541.475Z" stroke="white" stroke-miterlimit="10"/>
<path d="M529.144 295.89C525.599 259.912 539.931 217.539 555.553 185.524C565.39 165.367 579.561 154.568 601 148.157C618.563 142.906 636.941 138.925 655.216 137.528C675.188 136.003 697.611 133.801 716.531 141.585C718.804 143.355 721.17 145.006 723.519 146.683C736.765 162.682 730.252 187.845 726.267 206.207C722.001 225.873 717.811 246.733 708.864 264.867C699.001 284.855 687.281 299.998 665.376 307.07C646.761 313.075 627.112 316.539 607.725 318.885C584.717 321.663 561.421 323.425 539.965 313.922C537.701 311.847 535.343 309.899 533.461 307.46C531.756 303.606 530.34 299.93 529.144 295.89Z" stroke="white" stroke-miterlimit="10"/>
<path d="M538.795 326.677L535.742 326.186C533.257 325.009 530.789 323.789 528.254 322.739C525.964 320.63 524.022 318.182 521.978 315.828C513.124 296.238 521.868 269.457 526.982 249.85C532.282 229.515 538.905 209.273 546.64 189.734C555.553 167.231 565.78 152.536 589.611 144.99C608.895 138.883 630.131 133.302 650.306 131.828C676.927 129.88 702.241 126.399 728.259 133.073C730.6 134.742 732.949 136.402 735.273 138.104C745.543 158.041 739.352 181.053 733.967 201.862C728.896 221.452 725.936 243.964 717.379 262.258C707.898 282.534 698.357 302.649 676.053 310.738C655.878 318.055 633.481 321.308 612.33 324.399C589.975 327.66 560.76 333.825 538.795 326.686V326.677Z" stroke="white" stroke-miterlimit="10"/>
<path d="M807.757 96.5609C804.856 95.9934 802.032 95.0449 799.2 94.2064C796.987 92.216 794.697 90.3019 792.373 88.4471C786.513 75.4041 790.77 56.8728 799.183 45.8202C808.978 32.9465 825.905 32.0911 840.763 33.1159C843.46 34.1407 846.216 35.03 848.964 35.9024C851.296 37.9266 853.738 39.7475 855.57 42.2375C859.285 56.3647 857.648 72.2788 847.929 84.0006C838.211 95.7224 821.996 97.2469 807.765 96.5693L807.757 96.5609Z" stroke="white" stroke-miterlimit="10"/>
<path d="M511.42 322.748C505.976 299.33 515.474 273.633 521.639 251.13C527.423 230.049 534.504 209.265 542.018 188.752C545.843 178.301 549.608 167.062 556.096 157.898C563.364 147.633 574.541 143.83 586.193 140.612C607.827 134.641 630.691 128.61 652.902 127.154C679.598 125.409 704.947 121.047 731.729 122.978C734.341 123.757 736.953 124.537 739.556 125.324C741.803 127.187 744.059 129.051 746.307 130.906C756.585 150.123 745.204 180.689 739.675 200.093C736.35 211.772 732.424 223.376 729.473 235.148C726.521 246.921 725.775 257.025 719.72 268.01C714.276 277.885 710.646 288.912 704.413 298.347C697.289 309.129 685.933 313.813 673.832 316.913C650.646 322.858 626.841 327 603.138 330.21C577.297 333.708 550.558 338.527 524.667 333.767C522.309 332.437 519.833 331.412 517.357 330.311C515.203 327.855 512.981 325.619 511.42 322.74V322.748Z" stroke="white" stroke-miterlimit="10"/>
<path d="M780.78 101.482L778.736 100.364C773.622 79.6646 781.323 55.5689 790.745 37.1985C792.67 35.0896 794.552 32.9384 796.554 30.9057C815.788 21.3606 833.902 22.5548 854.62 23.0121C857.232 23.9692 859.802 25.0279 862.49 25.7478C864.924 27.7635 866.654 30.3552 868.596 32.8452C873.829 52.901 865.84 80.9773 852.882 96.6035C834.301 107.927 814.465 106.335 793.603 106.97C790.982 106.039 788.311 105.607 785.546 105.293L780.771 101.465L780.78 101.482Z" stroke="white" stroke-miterlimit="10"/>
<path d="M506.967 337.654L506.823 337.518C505.195 334.706 503.516 331.92 501.845 329.125L501.752 328.778C501.531 302.997 509.715 277.995 517.144 253.543C524.175 230.396 531.671 207.435 539.685 184.61C544.375 171.254 548.828 156.407 559.081 146.235C572.217 139.23 586.329 136.198 600.915 133.302C614.145 130.676 625.348 127.585 637.823 122.817C653.571 126.552 672.313 121.368 688.138 119.327C696.983 118.184 705.871 116.888 714.775 116.287C723.68 115.685 733.551 117.193 742.626 116.312C745.043 117.388 747.799 118.091 750.462 118.057L756.652 123.054L757.026 123.57C759.672 144.905 753.303 165.867 747.476 186.253C741.752 206.275 735.663 226.178 730.295 246.251C730.507 250.045 731.092 253.772 730.447 257.558C729.447 259.794 728.429 262.021 727.488 264.274L727.395 264.393L727.284 264.435C726.021 265.587 724.748 266.739 723.485 267.891C715.776 281.789 711.85 297.144 702.182 309.95C681.175 324.136 650.874 325.754 626.374 329.913C601.704 334.097 577.051 337.603 552.22 340.474C539.075 341.99 527.126 340.864 514.125 340.525C511.75 339.559 509.368 338.577 506.984 337.645L506.967 337.654Z" stroke="white" stroke-miterlimit="10"/>
<path d="M413.266 390.427C412.647 387.293 411.408 384.041 412.18 380.882C413.893 378.214 415.589 375.512 417.379 372.912C424.681 370.863 429.625 370.422 437.071 372.209L439.394 373.657L442.736 380.001L442.846 382.559C440.09 388.759 437.961 394.255 431.44 397.347L423.027 398.668C420.483 397.372 418.176 395.593 415.801 393.984L413.266 390.427Z" stroke="white" stroke-miterlimit="10"/>
<path d="M319.717 421.663C317.317 419.706 314.789 418.004 313.085 415.361C312.449 412.456 311.779 409.551 311.228 406.638C312.83 403.784 314.493 400.955 316.197 398.16C318.818 397.067 321.531 396.11 324.203 395.119C327.714 395.179 331.148 396.042 334.575 396.695C335.431 397.11 336.279 397.525 337.136 397.948C339.697 400.828 342.309 403.538 344.183 406.934C343.293 409.949 342.241 412.956 340.893 415.802C337.975 417.97 334.982 420.003 331.963 422.035C328.706 423.069 325.195 422.721 321.811 422.781L319.7 421.663H319.717Z" stroke="white" stroke-miterlimit="10"/>
<path d="M568.452 66.2573L567.4 65.7238C565.153 63.0305 562.939 60.3033 560.522 57.754L562.066 52.181L564.008 48.9118C566.221 47.7854 568.443 46.6589 570.674 45.5494C573.583 45.4732 576.508 45.4647 579.417 45.6595L581.8 49.2506L582.513 55.8822L582.139 56.8985L582.199 57.2797L579.527 64.5211L579.4 67.5108C576.144 67.2991 572.887 67.2144 569.622 67.0958L568.443 66.2658L568.452 66.2573Z" stroke="white" stroke-miterlimit="10"/>
<path d="M769.136 358.632L762.979 359.801C761.088 357.523 759.137 355.287 757.407 352.882C757.195 348.317 756.737 343.633 756.992 339.076C759.816 338.797 762.632 338.119 765.43 337.577L766.999 338.78L774.352 339.847L774.979 340.152C776.777 342.617 778.575 345.073 780.381 347.529V347.588C778.999 350.104 777.617 352.619 776.226 355.135C776.158 355.194 776.09 355.262 776.022 355.321L769.145 358.632H769.136Z" stroke="white" stroke-miterlimit="10"/>
<path d="M416.751 199.762C417.252 197.018 416.997 194.401 416.879 191.606C419.694 189.26 422.018 186.465 424.452 183.738C428.735 181.536 433.102 179.622 437.334 177.284C440.794 176.632 444.322 176.497 447.807 176.005C450.224 177.572 452.573 179.241 454.897 180.943C455.864 184.212 457.094 187.329 458.561 190.404C459.154 198.848 460.308 207.385 461.122 215.854L459.731 220.546L460.045 224.934L459.604 227.076L459.96 229.634L455.185 233.827L454.694 237.426L451.42 234.995L451.03 234.115L446.722 229.372C443.703 223.028 438.954 216.532 434.917 210.705L430.744 207.529L429.956 206.445C428.107 205.403 426.411 203.972 424.969 202.388L418.956 200.499L418.269 200.643L416.751 199.754V199.762Z" stroke="white" stroke-miterlimit="10"/>
<path d="M499.513 345.115L496.452 344.725L493.619 341.507L492.254 336.112L492.508 333.952L492.864 333.461C503.745 284.668 518.442 236.697 535.14 189.555C540.237 175.157 545.656 161.25 551.669 147.242C553.492 145.218 555.536 143.388 557.631 141.644C581.012 133.513 606.241 132.336 629.385 124.086L633.939 118.861L633.549 118.657L633.795 117.997C636.958 118.827 640.172 119.454 643.386 120.089L646.176 121.596C661.628 122.418 677.877 117.633 693.235 115.642C701.86 114.524 710.425 112.966 719.058 111.966C727.691 110.967 736.834 111.755 745.187 109.866L747.231 110.146C749.164 109.697 751.149 109.443 753.133 109.392L753.523 109.265L759.01 109.527L762.072 106.825L762.436 106.944L762.487 106.648L765.871 104.683C769.467 79.3505 775.708 52.0194 786.835 28.9062C788.743 26.9497 790.855 25.1457 793.094 23.5704C817.204 15.6429 841.119 15.609 866.12 15.9817C868.444 17.3199 871.081 18.2939 873.668 18.9629L876.805 23.1638L878.756 28.1524C879.104 52.2819 870.776 75.9288 862.151 98.0257C860.378 100.219 858.462 102.328 856.41 104.259C844.232 109.468 832.427 111.179 819.307 112.509C807.222 113.728 793.721 112.729 781.959 114.897L777.744 114.423L773.978 116.481H773.682L773.495 116.676L769.246 117.277L768.415 120.173L767.118 121.783C762.92 142.999 757.679 164.054 751.166 184.702C745.144 203.793 734.612 225.686 732.763 245.607C733.229 249.333 733.365 253.178 734.425 256.803C734.043 258.844 733.925 260.936 734.069 262.994L733.568 264.985C732.39 265.764 731.33 266.721 730.431 267.797C729.04 268.296 727.59 268.652 726.114 268.872C725.436 269.762 724.706 270.634 723.943 271.455C718.278 283.262 714.394 295.856 709.102 307.832C707.38 310.136 705.659 312.439 703.92 314.726C680.701 325.432 653.045 328.193 627.884 332.216C603.884 336.052 579.977 340.321 555.884 343.505C541.204 345.445 525.896 345.301 511.428 347.495C508.935 346.826 506.281 346.58 503.72 346.893L499.556 345.123L499.513 345.115Z" stroke="white" stroke-miterlimit="10"/>
<path d="M558.538 509.762L560.15 508.195C560.803 504.121 561.905 500.166 562.541 496.1L561.685 492.679L561.973 489.545L560.404 485.793L560.489 483.006C558.352 476.18 556.74 469.108 554.637 462.214C556.918 460.08 559.225 457.962 561.447 455.76C567.104 460.605 573.43 464.568 579.087 469.388C585.083 474.495 588.916 481.228 594.038 487.089C595.14 489.757 596.124 492.458 597.617 494.94C597.591 497.845 597.303 500.877 596.073 503.545C589.62 508.745 584.048 511.142 576.627 514.344C573.498 514.386 570.309 514.649 567.282 515.462C564.975 514.208 562.507 513.115 559.938 512.565L558.521 509.77L558.538 509.762Z" stroke="white" stroke-miterlimit="10"/>
<path d="M411.036 409.186C405.472 405.655 401.809 402.589 397.501 397.49L397.178 396.55C396.356 384.328 398.315 375.156 403.412 364.154C405.591 362.359 407.796 360.588 410.069 358.92C426.801 354.321 442.422 357.768 457.908 364.163L461.207 367.906C461.436 370.65 461.749 373.411 461.741 376.147C455.542 391.917 447.366 405.206 432.839 414.429C429.574 414.59 426.292 414.387 423.019 414.302C418.982 412.718 415.047 410.846 411.036 409.186Z" stroke="white" stroke-miterlimit="10"/>
<path d="M162.012 403.317C158.637 404.037 155.185 404.833 151.734 404.994L147.595 403.232L144.805 400.361L143.016 394.585L145.39 389.52C147.765 387.962 149.97 386.226 152.65 385.285L153.286 385.311C157.721 387.318 161.054 390.765 164.37 394.229C163.7 397.194 163.047 400.166 162.343 403.131L162.012 403.308V403.317Z" stroke="white" stroke-miterlimit="10"/>
<path d="M320.132 438.788C310.982 434.722 307.03 429.505 299.898 422.967C298.354 420.053 296.505 417.284 294.504 414.666C294.64 411.956 294.699 409.237 295.047 406.544C300.152 395.568 305.223 387.378 315.485 380.45C318.546 379.865 321.608 379.814 324.72 379.679C338.84 384.684 349.984 390.054 362.264 398.786C363.459 401.742 364.715 404.647 365.647 407.696C363.782 410.305 362.527 413.235 361.11 416.106C358.32 418.74 355.132 421.027 352.681 424.034C345.693 427.98 339.078 433.138 332.141 437.356C328.664 438.356 324.966 439.025 321.37 439.33L320.124 438.779L320.132 438.788Z" stroke="white" stroke-miterlimit="10"/>
<path d="M221.122 434.46C213.498 428.887 209.613 423.314 205.738 414.794C205.543 412.05 205.39 409.306 205.229 406.561C206.798 403.741 208.384 400.929 209.995 398.134C215.524 392.714 218.611 389.411 225.735 386.353C229.034 385.854 232.511 386.158 235.759 386.904C241.695 390.08 247.242 393.476 252.695 397.406C255.349 400.447 257.953 402.987 261.04 405.596C262.074 408.569 263.491 411.389 264.797 414.26C262.812 417.216 260.862 420.197 258.784 423.077C248.819 427.93 240.61 432.199 230.043 435.722C227.049 435.637 224.039 435.146 221.13 434.46H221.122Z" stroke="white" stroke-miterlimit="10"/>
<path d="M678.623 57.5848L681.447 53.1637L686.179 54.2902L688.011 57.5594L686.052 60.9472L681.379 62.3955L678.623 57.5848Z" stroke="white" stroke-miterlimit="10"/>
<path d="M810.894 253.696L808.944 253.848L806.281 252.095L804.017 247.005V244.244C804.916 243.261 805.925 242.38 807.027 241.627L812.752 241.381L815.364 242.889C816.059 244.54 816.517 246.302 816.72 248.097L814.889 251.892L810.894 253.704V253.696Z" stroke="white" stroke-miterlimit="10"/>
<path d="M743.533 335.011C743.483 332.707 743.084 330.48 742.44 328.252L742.745 326.364C742.592 324.178 742.847 321.976 743.177 319.791C742.652 317.699 742.253 315.59 742.202 313.448L741.634 311.339L744.288 306.858L743.533 301.794L743.907 300.481L743.389 298.66L745.459 299.456L745.874 300.328L750.725 304.165L751.717 306.265L755.075 309.84C757.654 315.76 762.767 321.968 766.863 326.973L769.035 327.854L771.129 331.488L777.023 331.428L777.235 329.319L779.924 326.245L780.958 326.177C784.953 323.713 788.472 321.307 792.738 319.224L792.789 319.173H792.882L792.873 319.232C793.026 321.426 793.162 323.628 793.297 325.83L795.74 331.92C795.036 339.542 794.977 347.021 792.119 354.245C782.366 364.781 772.732 370.625 760.605 377.833C757.789 377.147 755.008 375.978 752.591 374.377L752.294 372.836C751.064 370.481 749.792 368.135 748.69 365.73C747.435 356.1 746.112 344.353 743.508 335.002L743.533 335.011Z" stroke="white" stroke-miterlimit="10"/>
<path d="M542.645 59.0843L542.205 58.7793C542.281 55.8404 542.637 52.9269 542.917 49.9965C546.521 47.8622 550.091 44.6099 553.094 41.7048C559.191 39.3418 564.534 35.2003 570.564 32.6171C580.231 30.559 587.44 32.2952 596.684 35.4628C600.839 38.605 604.944 42.916 609.837 44.8047C606.75 46.939 603.545 48.8954 600.39 50.9281L599.389 52.6644L595.471 53.4859L593.817 52.7067L590.484 57.5174L591.324 61.388L591.256 62.0824C592.698 66.0631 594.513 69.6203 596.421 73.3892L598.388 75.4981L600.144 79.555L602.476 81.9095L603.511 86.0596L606.097 88.6174L604.961 95.4099L605.86 96.1721L604.503 96.9598L604.164 96.6464L603.697 96.5364L599.169 92.8098L593.69 92.9029L592.316 91.7511L590.874 91.2514L586.982 88.3294L581.707 87.059C577.492 84.3403 573.795 82.0112 569.088 80.0971C563.567 75.7353 556.13 69.4848 549.718 66.6136C547.793 63.6493 544.952 61.6844 542.612 59.0927L542.645 59.0843Z" stroke="white" stroke-miterlimit="10"/>
<path d="M492.67 353.754L492.186 354.296L491.067 354.423C488.836 353.61 486.648 352.687 484.554 351.561C484.028 346.725 481.297 342.143 481.602 337.281L483.163 333.123L487.132 332.394C487.997 330.336 488.811 328.227 489.837 326.262C502.176 278.418 518.858 230.854 535.098 184.187C539.822 170.619 546.665 156.61 550.32 142.856C552.271 141.094 554.425 139.663 556.689 138.316C580.376 133.437 604.545 129.406 628.087 123.875L631.123 120.394L627.536 118.489L628.605 115.592L627.706 114.11L629.173 110.604C630.479 111.569 631.853 112.425 633.294 113.17C635.542 113.644 637.781 114.203 639.977 114.872C641.054 115.956 642.106 117.066 643.123 118.201L647.923 120.733C663.985 117.193 680.896 115.194 697.195 112.789C713.495 110.384 732.771 105.031 749.724 105.598L752.718 104.616C753.803 104.641 754.897 104.565 755.966 104.396L760.511 102.058L760.851 100.474L761.911 98.8734C770.518 73.6513 772.842 46.6844 784.104 22.2923C786.377 21.0388 788.633 19.7599 790.897 18.4895C816.89 14.4241 842.34 11.807 868.562 9.89294C871.191 10.291 873.863 10.3164 876.534 10.4265C878.824 11.7901 881.249 12.9335 883.632 14.1362C888.746 27.5773 882.242 46.2017 878.552 59.4818C874.312 74.7439 870.072 89.6841 864.805 104.599C862.863 106.479 860.675 108.097 858.564 109.791C832.164 115.516 803.448 120.318 776.319 120.293L774.869 121.741L772.444 121.817C763.734 141.467 759.155 164.834 752.938 185.499C746.841 205.767 738.123 225.789 734.035 246.548C734.357 247.733 734.68 248.928 735.019 250.113L736.24 251.96C737.232 255.5 738.733 259.023 738.894 262.724C737.8 266.51 738.199 271.024 737.656 274.988L732.542 273.006L731.169 273.413L729.201 269.102L726.148 269.729L724.689 271.516C722.171 286.583 714.369 306.376 705.328 318.513C680.277 326.186 653.453 329.608 627.629 334.012C601.153 338.535 574.66 343.091 548.099 347.004C540.424 348.131 532.774 349.494 525.082 350.553C517.144 351.645 508.113 350.629 500.514 352.992L498.419 352.687C496.554 353.289 494.629 353.644 492.678 353.737L492.67 353.754Z" stroke="white" stroke-miterlimit="10"/>
<path d="M395.643 214.499C398.84 204.225 400.545 193.537 407.295 184.864C418.346 175.615 432.305 171.685 444.941 165.418C448.35 164.986 451.852 164.995 455.117 163.868C457.322 165.791 459.553 167.688 461.808 169.551C462.097 173.185 463.539 176.335 464.845 179.689C467.601 196.654 466.549 215.227 470.637 231.768L470.535 232.547L470.645 233.149L470.102 238.942C470.722 241.559 471.188 244.193 471.459 246.861L470.679 251.527L471.434 255.262L471.196 257.803L471.994 261.217L471.018 264.113L471.536 266.908L470.84 270.465L471.866 275.064L470.06 276.843L470.357 279.731L468.847 283.297L469.534 286.447L465.828 285.126L465.235 283.517L460.969 279.722L460.214 277.469L456.983 273.396L456.313 271.346L453.252 266.713C451.666 261.919 448.146 257.676 446.213 252.976L446.077 252.806C441.43 239.441 435.934 224.493 427.92 212.669L427.004 212.288L423.476 208.57L420.517 211.407L418.108 211.704C416.76 213 415.42 214.312 414.08 215.617L408.169 218.327C405.285 221.029 402.114 223.332 399.307 226.127C398.196 222.215 396.949 218.369 395.652 214.516L395.643 214.499Z" stroke="white" stroke-miterlimit="10"/>
<path d="M352.036 291.749C351.689 289.767 351.672 287.777 352.002 285.787L355.53 281.332L357.769 280.18C360.966 279.985 364.172 280.12 367.352 279.833C369.464 281.721 370.838 284.152 372.424 286.498L373.229 288.895L372.441 291.588L368.785 296.856C367.81 297.22 366.886 297.695 366.012 298.262C362.985 298.533 360 299.016 356.972 298.576C354.818 296.755 353.291 294.248 352.028 291.749H352.036Z" stroke="white" stroke-miterlimit="10"/>
<path d="M60.0502 353.712L59.5668 353.467L58.1506 353.272C53.6983 351.154 50.2721 348.842 46.3965 345.793L46.4304 344.955C47.5159 341.855 48.4657 338.73 49.9329 335.791C53.2233 336.087 56.4714 336.697 59.7364 337.231L60.4657 337.603L62.5689 345.073C61.9498 347.75 61.4071 350.426 60.5675 353.043L60.0417 353.712H60.0502Z" stroke="white" stroke-miterlimit="10"/>
<path d="M534.114 515.615L533.435 515.411L530.026 509.076L526.295 507.128L530.527 505.172H531.901C537.761 503.071 544.342 502.478 550.405 500.878L551.016 500.005L556.163 500.158L555.875 494.864L556.24 493.941C555.748 492.535 555.298 491.112 554.891 489.681C545.122 463.612 531.29 440.126 527.414 412.1L528.05 412.676C529.814 413.955 531.536 415.327 533.257 416.674C535.395 417.352 537.455 418.326 539.279 419.621L541.942 420.401C550.897 431.758 562.727 441.422 572.785 451.873C583.607 463.121 593.546 474.876 604.028 486.412C605.419 489.012 607.479 491.231 609.116 493.679L611.813 501.589L611.838 501.623C609.803 504.63 607.92 507.797 605.376 510.406C593.096 515.369 581.741 521.509 569.139 525.812C554.637 527.463 546.767 521.459 534.114 515.606V515.615Z" stroke="white" stroke-miterlimit="10"/>
<path d="M446.255 495.643C445.407 493.204 445.008 490.51 445.204 487.936C448.765 482.591 454.269 481.55 460.163 480.322C462.012 482.498 463.852 484.692 465.693 486.885L466.083 488.257L465.939 490.222L463.793 495.939C461.605 497.396 459.654 499.107 457.729 500.885L455.592 501.317L449.512 499.336L446.255 495.643Z" stroke="white" stroke-miterlimit="10"/>
<path d="M86.2636 391.926L79.6997 388.758C78.2156 385.929 76.8587 383.024 75.5866 380.094C75.1456 376.35 74.1873 372.691 73.7803 368.956C75.5188 366.627 77.2912 364.324 78.9789 361.961C82.1252 360.86 85.3647 360.046 88.3329 358.513C91.4368 358.336 94.422 358.005 97.5089 358.497C103.479 363.612 107.355 368.965 111.714 375.461L111.994 377.417L114.903 383.278L110.289 389.19C107.889 389.884 105.481 390.486 103.182 391.46C97.5089 392.256 92.7089 392.451 86.993 392.231L86.2552 391.943L86.2636 391.926Z" stroke="white" stroke-miterlimit="10"/>
<path d="M417.234 419.307C408.33 414.327 399.357 409.119 390.326 404.376L389.054 404.113L384.754 401.174L388.477 400.624C388.367 387.928 393.438 376.232 394.998 363.925C396.567 361.037 397.772 358.022 399.044 354.999C401.308 353.516 403.75 352.28 406.278 351.314C416.929 351.509 427.403 350.832 438.139 351.687C448.434 352.5 457.873 355.287 467.906 357.048L472.536 360.673L474.266 361.164L474.809 362.943L474.275 363.79L473.071 370.218C467.473 379.06 463.479 389.012 457.661 397.914C451.988 406.586 445.305 413.836 438.538 421.552C435.824 422.475 433.229 423.585 430.362 423.847C426.063 422.145 421.398 421.264 417.243 419.299L417.234 419.307Z" stroke="white" stroke-miterlimit="10"/>
<path d="M144.398 418.292L144.135 418.343C141.769 416.962 139.445 415.523 137.113 414.091C133.933 407.976 131.541 400.913 127.937 395.12L127.573 390.063L125.486 388.302L128.285 386.523C134.696 379.248 143.94 372.218 153.701 370.482C166.329 375.919 170.425 384.846 180.322 393.476L180.966 395.374C182.637 396.881 184.028 398.677 184.994 400.701L185.995 401.175L185.673 404.419L181.238 409.916C169.068 413.422 157.187 418.055 144.415 418.309L144.398 418.292Z" stroke="white" stroke-miterlimit="10"/>
<path d="M225.26 444.903L223.632 445.419C220.977 444.547 218.323 443.666 215.66 442.794C207.23 434.655 203.643 424.025 197.011 414.768L195.493 410.144L192.067 408.272L191.982 408.086L191.898 408.154H191.27L191.889 407.569L192.16 407.595C194.764 405.215 196.748 402.648 198.368 399.523C208.019 390.308 214.965 380.975 227.448 375.69C241.992 377.731 252.958 390.529 264.788 398.041C267.731 401.099 270.088 403.733 273.845 405.774L274.549 406.926C276.084 407.976 277.483 409.28 278.662 410.745L281.198 410.779L282.928 412.693L284.005 410.119L285.794 409.5L286.753 406.68C295.835 396.559 300.322 383.101 310.193 373.022C312.907 372.175 315.621 371.345 318.326 370.464C325.975 372.819 333.438 375.343 340.689 378.697C349.195 382.627 357.438 388.394 366.233 391.528C371.558 395.924 377.266 399.921 384.237 401.039L379.768 401.285L379.912 408.586L377.274 410.034C375.951 411.931 374.552 413.786 372.89 415.387L372.398 416.183C364.257 420.9 357.32 428.387 349.526 433.774C341.156 439.558 332.87 444.251 323.635 448.536L321.226 448.46L315.688 446.402C306.267 439.169 299.431 430.267 290.611 422.552L290.34 421.993L288.483 421.451L286.447 419.469L285.209 418.901C283.479 419.283 281.707 419.46 279.934 419.418L277.517 422.01C259.632 428.497 244.57 441.625 225.243 444.894L225.26 444.903Z" stroke="white" stroke-miterlimit="10"/>
<path d="M651.799 50.9617L651.68 51.0043L651.723 50.8765L651.765 50.9105H651.774L651.799 50.9617Z" stroke="white" stroke-miterlimit="10"/>
<path d="M669.99 71.0084C669.591 69.6956 669.167 68.3913 668.718 67.0955L668.455 66.7228L668.573 64.8341C667.615 62.9285 666.623 61.0398 665.571 59.185L663.68 57.6097L663.663 57.5673H663.621L663.383 56.5764L663.782 56.3477L664.681 50.8002L666.199 50.3428C667.564 49.2249 668.997 48.2001 670.499 47.2769L671.762 45.5068L672.178 45.3204C673.289 43.4487 674.408 41.6108 675.553 39.7475L675.57 39.6967V39.5866C676.621 39.0699 677.69 38.5872 678.776 38.1383L680.277 39.5358L683.737 38.7058L683.983 38.3755L685.552 38.2738C687.782 39.9254 690.352 41.0603 692.802 42.3731C693.981 44.6429 695.347 46.8026 696.687 48.9877C697.484 49.6145 698.255 50.2836 698.976 50.995L699.714 52.4517L701.724 54.2219C701.97 56.3054 702.157 58.3973 702.258 60.4978C701.478 61.9122 700.8 63.3689 700.214 64.868L698.374 66.3671L697.789 67.5359L697.348 67.79L697.323 68.5607C696.865 69.0266 696.415 69.5093 695.983 70.0005C693.116 71.4065 690.284 72.6007 687.163 73.4561L684.797 76.251L680.98 76.8693C679.369 76.2002 677.707 75.5989 676.053 75.0907C674.849 74.3962 673.662 73.6085 672.551 72.7446L670.405 73.7779L669.981 71.0253L669.99 71.0084Z" stroke="white" stroke-miterlimit="10"/>
<path d="M792.568 254.806L792 254.535L791.508 253.611C791.779 251.935 791.915 250.249 791.923 248.547L791.007 245.074L792.051 240.196C793.06 239.188 794.001 238.104 794.866 236.969C797.376 235.749 799.903 234.513 801.735 232.37L802.524 232.124L805.085 229.211L804.975 229.135L805.39 228.864L807.748 228.228L809.164 228.669L809.639 228.279C811.386 227.509 813.226 227.246 815.135 227.483C816.339 228.449 817.645 229.279 819.027 229.956L819.977 231.294L822.292 232.641L822.674 232.734C823.183 233.581 823.649 234.453 824.073 235.351L823.581 236.359L824.005 236.901L824.641 238.942L825.472 240.255L825.93 241.89C826.728 243.075 827.499 244.295 828.212 245.523C828.347 247.666 828.839 249.766 829.721 251.723C828.839 252.993 828.093 254.357 827.482 255.771L826.142 256.44L826.041 259.261L827.152 260.955L825.167 261.175L824.166 260.878C822.453 261.658 820.706 262.335 818.917 262.911L817.814 262.403L817.501 261.945C815.321 263.174 813.108 264.359 810.911 265.553C810.793 265.672 810.682 265.791 810.564 265.909L803.754 265.579L802.015 266.519C800.887 263.851 799.03 261.649 797.699 259.1L797.546 259.04L795.689 257.245L795.629 257.126L795.409 257.101L794.009 255.432L792.576 254.78L792.568 254.806Z" stroke="white" stroke-miterlimit="10"/>
<path d="M359.473 309.645L358.617 309.018L358.329 309.137L356.251 308.925L354.86 309.239C353.571 309.111 352.307 308.823 351.095 308.366L348.983 305.427L347.015 303.869L346.558 302.742L345.854 302.277L344.285 300.295L343.683 298.779L344.268 297.212L343.979 296.543C343.742 291.419 341.461 286.964 341.401 281.662C342.173 280.756 342.868 279.731 343.428 278.664C344.132 278.257 344.836 277.834 345.54 277.41L346.329 276.318L347.134 275.996L348.084 273.921L346.608 272.354H346.558L346.303 272.04L346.778 271.981L349.89 269.61C350.196 269.855 350.518 270.076 350.849 270.279C351.926 270.474 352.994 270.677 354.063 270.897H354.08L356.056 272.345L358.49 272.168L360.813 273.014C363.298 271.99 365.613 270.592 367.929 269.212H367.962L368.276 268.864L370.456 267.619L371.592 265.646L376.061 268.814V271.786L376.256 272.396L376.63 272.811C377.113 275.183 378.114 277.537 379.25 279.638L379.555 279.959L380.624 281.975L382.261 282.636C382.591 283.534 383.092 284.338 383.753 285.033L384.949 285.863L384.143 286.642L383.838 286.405L382.668 291.283L383.066 291.842C382.914 293.553 382.982 295.272 383.253 296.958C382.074 298.177 380.955 299.448 379.895 300.769C377.113 302.658 373.823 303.606 370.583 304.309C368.946 305.139 367.352 306.02 365.775 306.969L365.41 307.062L364.265 309.035L363.883 309.408L360.754 309.891L359.456 309.62L359.473 309.645Z" stroke="white" stroke-miterlimit="10"/>
<path d="M523.734 518.325C519.765 516.013 515.363 514.446 511.004 513.015L508.647 510.203C504.78 509.051 501.464 509.068 497.91 506.824L491.957 502.352C491.677 502.242 491.389 502.131 491.109 502.021L487.785 501.716L490.057 497.355L492.983 494.958C502.812 497.38 514.973 495.313 525.142 495.796L528.347 496.957L531.638 496.008C532.969 496.211 534.301 496.559 535.573 497.041L538.787 496.355C543.909 497.787 549.515 497.863 554.84 497.931L554.662 494.594C554.043 493.501 553.628 492.341 553.416 491.104C548.93 486.869 546.614 478.307 543.782 472.768C540.458 466.272 537.031 459.809 533.978 453.186C527.703 439.593 521.181 426.033 514.626 412.533L514.057 408.577L511.734 406.367C511.683 406.265 511.64 406.172 511.59 406.07L511.047 402.073C507.476 394.628 503.898 387.192 500.344 379.739C502.727 378.189 505.102 376.622 507.502 375.106C508.935 377.105 510.343 379.121 511.853 381.052L515.457 382.822C519.01 386.489 522.58 390.08 525.803 394.035L527.219 394.967C529.535 398.414 532.18 401.87 534.869 405.02L537.93 406.951C543.519 413.38 549.26 421.197 555.909 426.482L557.224 429.235C563.983 433.554 569.088 441.803 574.431 447.69C580.138 453.974 586.074 460.148 591.731 466.526C596.836 472.285 602.111 477.9 607.03 483.837C611.728 489.512 615.426 497.931 621.074 502.402C620.438 504.503 619.793 506.612 618.945 508.636C617.029 509.305 615.129 510.008 613.246 510.745L609.981 513.235C593.927 519.968 577.806 526.168 561.574 532.427L560.446 532.444C551.313 529.141 541.297 523.822 531.875 521.925L531.239 521.493C528.661 520.637 526.193 519.494 523.742 518.3L523.734 518.325Z" stroke="white" stroke-miterlimit="10"/>
<path d="M451.946 511.363C450.903 511.422 449.868 511.481 448.825 511.541C447.188 510.465 445.509 509.432 443.813 508.466C441.803 505.426 439.785 502.419 438.004 499.243C437.088 498.464 436.163 497.701 435.214 496.956L434.671 495.991C434.79 493.475 434.535 490.917 433.865 488.495C434.204 486.996 434.493 485.488 434.73 483.964C435.968 483.024 437.096 481.957 438.122 480.779L438.843 480.576L440.455 478.459L439.912 478.018L441.71 475.774L441.608 475.588L441.913 475.528L441.981 475.621L443.83 475.943L443.974 476.401H445.653L446.366 475.715C447.884 475.13 449.325 474.334 450.648 473.36L450.937 473.309C453.761 472.022 456.542 470.54 459.536 469.617L463.954 470.057L464.963 470.641C465.845 471.734 466.821 472.759 467.872 473.69L468.144 474.503L470.713 475.833L471.816 475.554C472.062 476.367 472.443 477.121 472.944 477.798L472.766 480.373C473.012 481.042 473.317 481.686 473.673 482.312C473.537 483.473 473.648 484.625 473.995 485.742L475.717 488.376C475.836 488.859 476.014 489.334 476.234 489.774L476.48 489.825L477.192 491.087L477.226 491.341L478.804 492.687H478.872L479.779 493.221C479.635 495.161 479.219 497.049 478.515 498.853C478.27 498.735 478.024 498.616 477.769 498.523L477.727 498.548L475.92 498.879H475.912L473.232 499.954C472.002 500.657 470.705 501.259 469.382 501.733C468.491 502.614 467.457 503.325 466.32 503.859L465.438 505.332L464.836 505.731V506.383L463.445 507.966L463.267 509.974L462.674 510.473C462.318 511.456 461.851 512.404 461.291 513.277L461.274 513.345V513.497L460.604 513.717L460.189 513.472H457.467L457.967 511.6L455.575 510.584L451.937 511.354L451.946 511.363Z" stroke="white" stroke-miterlimit="10"/>
<path d="M217.399 451.585L217.365 451.534L212.506 447.113C205.077 435.984 196.248 424.067 191.525 411.473L189.922 412.718C173.656 418.173 154.906 423.737 137.682 424.076C135.892 422.983 134.374 421.569 133.17 419.884C129.837 412.024 127.361 404.13 124.35 396.194L121.17 395.051C106.066 397.312 90.8688 398.684 75.6122 397.38L75.5699 397.355L75.5359 397.312C75.5105 397.262 75.502 397.202 75.4935 397.143C69.8963 386.98 70.5833 375.893 65.7408 365.535C60.4744 363.697 54.9705 360.775 49.4242 360.038C47.3126 358.802 45.0313 357.878 42.6907 357.15L36.3557 352.153L35.7621 350.23C37.3225 344.166 37.5006 337.907 39.3409 331.919L36.9408 327.846C35.1345 326.321 33.591 324.466 31.615 323.153L27.0016 321.976C24.7967 319.935 22.2101 318.351 20.2172 316.115C19.7507 315.802 19.3352 315.438 18.9621 315.014C18.9875 309.543 20.0051 306.562 22.2864 301.565C22.456 300.387 22.6765 299.21 22.9649 298.058L23.0666 297.897L21.9133 295.661H21.8878C20.938 294.874 20.0306 294.027 19.191 293.129C16.0193 291.893 12.415 289.885 10.0659 287.395L6.49561 281.348C7.51327 279.256 8.46309 277.122 9.32811 274.962L12.8136 270.558L16.7825 269.567C19.9458 270.38 23.0242 271.481 26.1281 272.497C25.9331 273.412 25.8228 274.352 25.7974 275.284L27.8073 281.179C27.731 284.456 28.367 287.658 28.1719 290.961L28.2398 291.02L28.4433 291.825L28.384 293.087L29.1472 294.298L30.5211 294.874C34.1677 295.213 37.9076 295.865 41.5034 296.729C43.2419 297.559 44.938 298.49 46.5833 299.498C46.6172 299.498 46.6511 299.498 46.685 299.515L46.7105 299.532L46.7274 299.557C48.025 307.578 49.5006 317.64 46.8801 325.593C53.5204 327.71 60.1522 325.559 66.9621 327.676C67.8525 329.395 68.743 331.106 69.6419 332.826C69.7861 336.484 70.6257 339.779 71.8723 343.209C72.6441 347.706 73.5939 352.661 72.8391 357.235L76.0787 358.31C82.1338 355.236 89.3084 353.686 94.6003 349.417C106.057 350.756 113.503 365.89 118.838 375.469L119.118 375.74C120.627 378.79 122.255 381.762 123.706 384.837L126.139 380.898C135.689 374.902 143.745 367.567 154.244 362.799L155.508 362.596C156.788 363.595 158.009 364.696 159.137 365.857L163.038 368.042C171.375 376.46 179.516 384.93 187.412 393.662L187.53 393.721C188.853 395.762 190.074 397.837 191.677 399.658L194.417 399.404C204.602 388.631 213.574 376.528 226.185 368.491C236.828 372.929 245.512 380.085 254.866 386.598C259.768 390.012 265.153 393.738 269.648 397.702C273.71 401.284 279.188 404.588 282.555 408.873C288.305 394.805 298.482 377.307 309.388 366.602C310.753 365.857 312.135 365.137 313.526 364.434C337.738 372.497 359.347 385.701 382.329 396.127L384.288 397.854C390.038 382.033 389.656 364.671 396.237 348.901L396.339 348.791L396.466 348.714C396.644 348.68 396.831 348.68 397.009 348.714L403.717 347.139C426.479 348.858 449.309 350.273 472.104 352.161L475.166 353.72L476.582 353.821L479.932 352.441L481.094 351.492C474.937 341.524 473.309 329.675 468.458 319.063L468.195 315.387L465.947 312.914L465.244 311.525C464.446 305.537 460.045 298.88 457.679 293.239C455.313 287.598 453.752 281.915 451.725 276.334C447.553 264.858 439.106 253.255 437.342 241.05C431.508 234.283 429.099 221.359 426.072 212.898L423.833 210.543C420.39 213.465 418.117 217.293 415.369 220.808L412.808 222.646L411.663 225.695C400.952 234.012 394.957 248.249 384.492 257.176L381.345 258.446C379.878 260.369 378.462 262.334 377.037 264.29C376.961 265.12 376.859 265.95 376.715 266.78L373.068 264.799L375.273 262.427L375.528 259.327C376.003 257.616 376.791 256.058 377.911 254.686L378.513 251.332L377.953 246.09C379.225 243.371 380.446 240.618 381.6 237.849L381.863 233.978C381.863 233.978 381.871 233.953 381.88 233.944L384.322 231.132L384.381 227.474C386.629 221.638 388.274 215.684 390.487 209.865C392.421 204.775 393.803 197.017 397.297 192.884C397.611 188.666 400.062 185.329 402.199 181.831C418.219 171.084 437.639 164.799 455.075 156.686L455.109 156.626C456.619 156.169 458.188 155.788 459.748 155.491L460.062 155.288L461.046 155.644C462.53 157.033 464.022 158.422 465.506 159.811C470.222 178.715 470.391 198.694 472.452 217.954C474.453 236.587 477.379 255.177 478.253 273.92C478.787 285.49 480.059 297.22 481.348 308.908L480.475 312.982C480.534 313.566 480.602 314.142 480.661 314.726L482.459 319.257L481.823 320.079L482.289 320.714L482.739 320.951C482.671 324.229 482.62 327.481 482.705 330.751L486.691 330.014C491.923 318.605 494.094 305.52 498.224 293.629C502.397 281.611 506.044 269.347 509.902 257.218C517.993 231.759 526.439 206.359 534.996 181.061C539.728 167.086 543.706 152.561 549.846 139.171C559.335 132.607 575.737 132.378 586.965 130.422C600.127 128.135 613.882 126.991 626.807 123.638L628.325 121.893C615.875 115.71 605.359 105.157 593.427 98.534L588.661 97.3567C587.186 96.1032 585.735 94.7904 584.328 93.4438L580.571 92.3343C566.739 81.993 550.702 74.5314 537.354 63.4702L535.386 60.3196L531.341 58.7104L531.248 57.2452L529.145 53.0104C530.544 51.7146 532.07 50.5204 533.656 49.4787L536.819 46.3788C550.779 38.5022 563.856 30.6764 578.807 24.8832C589.993 27.3055 600.051 31.9553 610.668 35.6056C616.766 37.6976 623.44 38.6885 629.521 40.9922C634.575 42.9148 639.214 45.5912 644.633 46.7769L646.711 49.0128L647.033 54.1961C632.294 59.6336 611.482 56.9064 595.963 56.9403L593.767 55.907L592.104 58.3123L592.596 60.5737C597.761 66.6717 603.027 72.5749 608.429 78.3596C614.714 85.0929 619.471 93.0965 625.696 99.7451L628.596 101.312C634.032 107.444 640.13 112.678 645.515 118.861L647.915 120.123C665.962 117.006 684 113.898 702.055 110.823C720.11 107.749 739.191 106.444 757.06 102.472L759.333 101.303C765.15 73.7014 771.35 43.8464 782.349 17.8535L782.459 17.7265L782.603 17.6333C816.314 9.44335 851.881 8.67262 886.414 5.87769L886.634 5.92004L891.553 12.7634L891.57 13.568C883.539 45.1168 878.697 79.1303 866.391 109.493L866.358 109.536L866.315 109.561L866.264 109.578L862.219 112.576C847.573 112.441 831.273 117.167 816.466 118.615C801.659 120.063 787.861 123.053 773.673 123.019C767.135 137.409 764.158 155.034 759.256 170.203C754.1 186.168 748.902 202.141 743.525 218.039C740.557 226.83 735.596 236.714 734.595 245.945C735.112 246.945 735.494 247.995 735.731 249.105C740.743 255.973 743.483 267.162 746.858 275.174C750.683 284.261 759.146 295.882 759.943 305.647L762.072 307.764C763.827 315.031 768.051 323.026 772.07 329.387L775.013 329.353L775.2 327.524L775.793 326.143L777.405 324.72L777.761 321.434C780.339 315.505 783.833 309.526 785.834 303.411C786.555 302.276 787.395 301.234 788.345 300.277L790.414 294.052L790.448 294.027C792.958 289.724 795.706 285.744 798.454 281.594L798.471 279.984L802.236 281.272L804.441 284.99C804.331 286.235 804.22 287.471 804.093 288.708L801.803 294.01L801.702 294.916L803.313 299.303L802.821 301.073L803.669 302.911C800.726 308.645 801.244 320.096 800.404 326.711L801.218 331.597C801.049 332.512 801.023 333.444 801.159 334.367C799.497 340.194 799.827 346.707 798.979 352.72C797.521 355.041 796.096 357.387 794.654 359.725C783.952 368.491 770.485 375.893 760.893 385.692L757.62 386.836L756.034 388.851H756.017V388.86H755.957L755.89 388.8C753.244 387.386 750.521 386.15 748.155 384.295C747.282 376.579 744.992 369.71 743.601 361.978C742.312 354.812 738.988 346.555 739.929 339.161C736.037 325.084 737.436 309.238 732.381 295.628L732.449 295.111C730.439 287.073 732.034 277.664 727.692 270.236L726.165 270.549L725.436 271.447C722.247 286.404 715.666 300.887 710.493 315.175L708.356 318.394C708.237 318.834 708.076 319.266 707.881 319.681L707.661 319.927L707.381 320.104C655.166 332.275 601.229 339.915 548.251 348.435C533.164 350.857 516.975 355.363 501.659 355.236C500.658 355.786 499.607 356.235 498.521 356.583C497.224 356.583 495.96 356.794 494.73 357.226L494.934 358.861L495.824 359.606L495.901 361.198L496.579 362.757C495.07 362.52 493.543 362.511 492.042 362.731L488.87 361.732L488.752 361.639V361.622C488.328 361.359 487.912 361.08 487.513 360.792L486.699 360.758L485.987 361.554L483.629 362.299C474.767 370.6 469.467 385.455 462.53 395.61C455.262 406.248 448.079 416.851 440.285 427.116L435.74 429.31C429.481 429.979 420.313 424.194 414.581 421.374C406.422 417.368 397.696 410.177 388.52 408.949C367.335 424.042 346.448 438.999 324.737 453.304L319.267 454.075C319.089 454.236 318.886 454.363 318.674 454.456C307.378 447.816 298.872 435.035 289.908 425.6L288.67 423.06L286.524 422.433L285.048 423.093L282.123 423.492C272.921 428.582 263.618 434.019 253.501 437.356C244.859 444.564 228.263 449.722 217.373 451.517L217.399 451.585Z" stroke="white" stroke-miterlimit="10"/>
</svg>
