<svg width="223" height="84" viewBox="0 0 223 84" fill="none" xmlns="http://www.w3.org/2000/svg">
<path d="M25.6029 0.169884C24.4302 0.383888 22.8923 1.06157 22.0657 1.73925C21.2006 2.43476 20.2971 4.07546 19.9895 5.44865C19.6627 6.89318 19.8357 12.5643 20.2586 13.9732C20.6816 15.4534 21.8927 17.6826 23.0077 19.0558C23.5267 19.6978 24.9877 21.499 26.2757 23.0862C29.7937 27.4019 30.1782 28.2758 30.1782 31.789C30.1782 33.8042 29.9475 34.8207 29.3516 35.4092C28.4865 36.3009 26.8525 36.0334 26.1988 34.8742C25.9105 34.3927 25.8528 33.6615 25.7951 30.0591L25.7182 25.8326H22.5463H19.3936L19.4512 31.2183C19.5089 36.3366 19.5473 36.6754 19.951 37.6206C20.8161 39.618 22.1426 40.8128 24.238 41.4727C25.0646 41.7224 25.8528 41.7937 28.0636 41.7937C30.4858 41.7759 30.9856 41.7224 31.9276 41.3835C33.4463 40.8307 34.3882 40.1352 35.2341 39.0116C36.7336 36.9964 37.1949 34.7851 37.0412 30.4693C36.8681 25.565 36.3491 24.4594 31.3509 18.2889C29.4669 15.9705 27.6983 13.67 27.4292 13.2063C26.6987 11.9758 26.3334 10.4599 26.3334 8.78355C26.3334 6.44734 26.8717 5.50216 28.1981 5.50216C29.9283 5.50216 30.1782 6.1085 30.1782 10.4956V13.884L33.3117 13.8483L36.426 13.7948L36.4837 10.4064C36.5413 6.55434 36.3299 4.43213 35.7532 3.21944C34.965 1.56091 33.3502 0.490891 31.1202 0.15205C29.6784 -0.0619545 26.7948 -0.0441208 25.6029 0.169884Z" fill="white"/>
<path d="M0 20.9265V41.5244H3.17195H6.34391L6.38236 32.4649L6.44003 23.4232H8.65078H10.8615L10.9192 32.4827L10.9577 41.5244L14.1873 41.4887L17.3977 41.4352L17.4554 20.873L17.4938 0.328602H14.2257H10.9577L10.9192 8.56776L10.8615 16.8248H8.65078H6.44003L6.38236 8.56776L6.34391 0.328602H3.17195H0V20.9265Z" fill="white"/>
<path d="M39.0245 20.9294V41.5095L46.5796 41.4739L54.1153 41.4382L54.173 38.353L54.2115 35.2856H49.8861H45.5607V29.3113V23.337H48.8288H52.0968V20.2161V17.0952H48.8288H45.5607V11.7451V6.39499H49.6938H53.827V3.36327V0.331539H46.4258H39.0245V20.9294Z" fill="white"/>
<path d="M65.6732 0.899277C65.5771 1.38079 63.2125 19.8387 62.4628 25.7416C62.3667 26.5263 61.9438 29.8612 61.5208 33.1426C61.0787 36.424 60.675 39.6519 60.6173 40.3117L60.502 41.5244H63.1741C64.6351 41.5244 65.9423 41.4531 66.0769 41.3817C66.1922 41.3104 66.4614 39.7232 66.7305 37.4583L67.1534 33.6776H69.4988H71.8633L71.9594 34.2483C72.0363 34.5693 72.2094 36.1565 72.3824 37.7793C72.5554 39.4022 72.7284 40.9002 72.7861 41.1142C72.863 41.4887 72.9399 41.5066 75.9388 41.5066C78.9377 41.5244 79.0146 41.5244 79.0146 41.1677C79.0146 40.9537 78.7455 38.885 78.4379 36.5666C77.4959 29.7542 75.439 14.6669 74.497 7.81875C74.0356 4.34118 73.5935 1.22028 73.5358 0.899277L73.4205 0.328602H69.5949H65.7693L65.6732 0.899277ZM70.1716 18.2515C70.4984 21.087 70.8444 24.1009 70.9406 24.9391C71.0367 25.7773 71.1328 26.7225 71.1328 27.0256V27.6141H69.4988C67.9801 27.6141 67.8647 27.5963 67.8647 27.2575C67.8647 27.0435 68.2108 23.7799 68.6337 19.9992C69.0566 16.2006 69.4027 13.0084 69.4219 12.9013C69.4603 12.3307 69.6333 13.5969 70.1716 18.2515Z" fill="white"/>
<path d="M80.1616 20.9279V41.5258H83.4297H86.6978V32.3415V23.1571H88.0434C89.5814 23.1571 90.408 23.4603 90.6387 24.0845C90.7348 24.3163 90.8501 28.1505 90.9078 32.609C91.0039 38.7972 91.0808 40.8124 91.2731 41.1335C91.523 41.5258 91.5807 41.5436 94.6757 41.5258C96.4059 41.508 97.8669 41.4545 97.9053 41.401C97.963 41.3653 97.8669 41.0265 97.6939 40.6698C97.4055 40.0991 97.3478 38.8864 97.271 31.0039C97.1941 24.1736 97.1172 21.8731 96.9249 21.4629C96.6173 20.8209 95.8484 20.0184 95.1179 19.5904L94.5796 19.2872L95.3678 18.6987C95.8484 18.342 96.3674 17.7178 96.675 17.1115L97.1748 16.1128L97.2325 10.727C97.2902 6.28644 97.2517 5.14508 97.0018 4.2534C96.4059 2.09552 94.9449 0.900665 92.465 0.526157C91.7729 0.419155 88.7355 0.329987 85.6981 0.329987H80.1616V20.9279ZM89.9274 6.19727C90.6964 6.58961 90.8309 7.33863 90.8309 11.5652C90.8309 15.0428 90.7925 15.6491 90.5041 16.1485C89.9658 17.0401 89.466 17.272 88.005 17.272H86.6978V11.69C86.6978 8.60482 86.7554 6.03677 86.8516 5.96543C87.0246 5.76926 89.466 5.96543 89.9274 6.19727Z" fill="white"/>
<path d="M98.5057 0.560734C98.4673 0.68557 98.448 2.0231 98.4673 3.53896L98.5249 6.30318L101.255 6.35669L104.004 6.41019L104.042 23.9229L104.1 41.4355H107.272H110.444L110.501 23.905L110.54 6.39235H113.231H115.923V3.36063V0.328899H107.272C100.37 0.328899 98.5826 0.382397 98.5057 0.560734Z" fill="white"/>
<path d="M127.38 0.990139C127.322 1.36465 127.091 3.02318 126.88 4.69955C126.265 9.49681 125.034 19.1448 124.189 25.6541C123.766 28.9355 123.285 32.7163 123.131 34.036C122.958 35.3557 122.708 37.353 122.555 38.4587C122.401 39.5644 122.266 40.7058 122.266 40.9733V41.4904L125.092 41.4548L127.918 41.4369L128.053 40.7236C128.13 40.3313 128.322 38.5836 128.514 36.8359L128.86 33.6793H131.225H133.589L133.704 34.25C133.743 34.571 133.935 36.1225 134.089 37.6919C134.262 39.2612 134.435 40.7593 134.493 41.0268L134.589 41.4904L137.665 41.5083L140.721 41.5439V41.1338C140.721 40.9019 140.202 36.9429 139.568 32.3418C138.933 27.7228 137.722 18.8595 136.876 12.6355C136.031 6.41158 135.281 1.09714 135.223 0.811802L135.108 0.330296H131.301H127.495L127.38 0.990139ZM132.07 19.8403C132.493 23.5498 132.839 26.8312 132.839 27.0987V27.6158H131.186H129.514L129.648 26.314C129.725 25.6185 130.09 22.3549 130.456 19.0913C130.821 15.8278 131.109 13.0457 131.128 12.9387C131.167 12.2967 131.359 13.7234 132.07 19.8403Z" fill="white"/>
<path d="M141.912 20.873L141.97 41.4352H144.853H147.737L147.833 29.8612L147.929 18.2693L149.159 22.906C149.832 25.4384 151.197 30.6102 152.197 34.3909C153.196 38.1538 154.1 41.3104 154.235 41.3817C154.369 41.4531 155.561 41.5244 156.926 41.5244H159.367V20.9265V0.328602H156.388H153.408L153.389 11.1536L153.369 21.9965L152.427 18.4298C151.505 14.9701 150.582 11.3677 148.679 3.931L147.756 0.328602H144.815H141.874L141.912 20.873Z" fill="white"/>
<path d="M161.867 20.9087V41.5244H166.539C169.095 41.5244 171.96 41.4352 172.902 41.3461C175.997 41.0072 177.689 39.7945 178.63 37.2443L179.073 36.0851L179.13 21.2475C179.169 8.33593 179.15 6.24939 178.88 5.21503C178.477 3.61 177.727 2.37947 176.689 1.64829C175.132 0.542606 174.555 0.453438 167.884 0.364269L161.867 0.292934V20.9087ZM171.095 6.08888C171.556 6.23155 171.883 6.49905 172.094 6.92706C172.421 7.49774 172.44 8.5321 172.44 20.659C172.44 32.7859 172.421 33.8203 172.094 34.3909C171.671 35.1935 171.075 35.461 169.614 35.461H168.403V20.659V5.85704L169.422 5.87488C169.96 5.87488 170.729 5.96405 171.095 6.08888Z" fill="white"/>
<path d="M41.9837 42.3112C40.4842 42.6322 39.7729 42.971 38.6964 43.8984C36.9085 45.432 36.4279 47.0371 36.4472 51.335C36.4856 56.5603 37.12 58.0226 41.6761 63.6402C46.6935 69.7929 46.7128 69.8107 46.732 73.7519C46.732 76.855 46.5205 77.4792 45.2517 77.8894C44.329 78.1925 43.6369 77.9607 42.9833 77.1403C42.5988 76.6588 42.5796 76.3735 42.5219 72.2717L42.4643 67.9203L39.2539 67.956L36.0435 68.0095V73.0029C36.0435 77.6754 36.0819 78.0855 36.4856 79.2804C37.1777 81.3669 38.7925 82.9541 40.811 83.5426C42.1567 83.935 45.6362 84.0776 47.1549 83.7923C49.5387 83.3643 51.4611 82.0803 52.4799 80.2434C53.4027 78.5492 53.6911 76.9798 53.6718 73.5379C53.6718 67.9917 53.1528 66.7433 48.5198 61.0187C43.214 54.4916 42.9641 53.9922 43.0987 50.4433C43.1563 48.5173 43.1755 48.4281 43.6946 48.0179C44.5789 47.3224 45.6362 47.4473 46.559 48.3568C46.5782 48.3746 46.6359 50.0688 46.6935 52.1375L46.8089 55.8826L49.9424 55.9361L53.0951 55.9896L53.0182 51.2102L52.9605 46.4307L52.3262 45.2359C51.1343 42.971 49.5579 42.2398 45.6554 42.1328C43.9637 42.0793 42.7718 42.1507 41.9837 42.3112Z" fill="white"/>
<path d="M70.3609 42.2935C67.4388 42.9355 65.8048 44.487 64.8436 47.5009C64.536 48.4818 64.4975 49.8371 64.4399 62.7487C64.3822 77.4437 64.4207 78.4245 65.1896 80.2971C65.6894 81.5633 67.0928 83.0078 68.3423 83.5428C69.7649 84.167 72.0141 84.1491 73.3982 83.5071C74.5132 82.99 75.9358 81.6168 76.6086 80.4219C77.1277 79.4767 77.1085 79.4589 77.7429 81.7951L78.1658 83.3466L80.0305 83.4001L81.8952 83.4536V71.0414V58.647H77.2815H72.6677L72.7062 61.7144L72.7639 64.7996L74.2633 64.8531L75.7436 64.9066V70.2032C75.7436 73.2706 75.6667 75.7851 75.5513 76.1597C75.1476 77.4972 73.2829 78.1927 72.1102 77.4437C71.1106 76.7838 71.1298 76.9443 71.1298 62.8379C71.1298 48.1964 71.0914 48.6958 72.3986 48.1964C73.2637 47.8576 74.0134 48.0003 74.6094 48.5888C75.0515 49.0346 75.0707 49.1595 75.1284 52.2447L75.1861 55.4369H78.3773H81.5492L81.4723 51.3708C81.3954 47.8933 81.3377 47.1799 80.9917 46.3061C80.2228 44.2552 78.954 43.0425 77.0124 42.4897C75.7051 42.1151 71.745 41.9903 70.3609 42.2935Z" fill="white"/>
<path d="M116.114 42.169C114.48 42.4543 113.096 43.0785 112.154 43.9345C110.405 45.5574 109.885 47.2338 109.905 51.2463C109.943 56.4716 110.635 58.0588 115.499 64.0331C119.055 68.4023 119.805 69.5794 120.132 71.2201C120.612 73.6633 120.286 76.7842 119.478 77.551C118.825 78.1574 117.479 78.1574 116.787 77.551C116.095 76.9447 115.922 75.7855 115.922 71.6659V67.9208H112.75H109.578V72.8251C109.578 78.1217 109.693 79.0134 110.558 80.6006C111.885 83.0616 114.595 84.1317 118.978 83.9176C125.111 83.6501 127.552 80.2082 127.206 72.3793C126.976 67.475 126.591 66.6903 120.901 59.6282C117.171 54.9914 116.71 54.1532 116.556 51.7992C116.345 48.714 116.845 47.5904 118.363 47.5904C119.324 47.5904 119.901 47.9828 120.151 48.8031C120.247 49.1598 120.343 50.9253 120.343 52.7265V55.9723L123.477 55.9366L126.591 55.8831V51.6922C126.572 46.1816 126.264 44.9867 124.496 43.5422C123.265 42.5435 121.92 42.2047 118.998 42.1333C117.671 42.1155 116.383 42.1333 116.114 42.169Z" fill="white"/>
<path d="M134.757 42.2563C131.835 42.7913 129.816 44.8778 129.163 48.0165C129.067 48.4981 128.99 55.043 128.99 63.1038C128.99 76.5861 129.009 77.3886 129.355 78.6726C129.816 80.349 130.143 80.9375 131.162 81.954C132.738 83.5412 134.584 84.0584 138.333 83.9336C140.543 83.8623 140.947 83.8088 142.024 83.3451C142.812 83.0241 143.504 82.5604 144.023 82.0254C144.965 81.0267 145.253 80.5095 145.772 78.9937C146.118 77.9236 146.176 77.2103 146.234 71.6997L146.33 65.6006L143.081 65.6362L139.851 65.6897L139.755 71.2182C139.659 76.9606 139.601 77.3173 138.794 77.7275C138.179 78.0306 136.968 77.9415 136.429 77.5491C135.545 76.9071 135.507 76.2829 135.564 62.2657C135.622 49.3362 135.622 49.2114 136.026 48.7121C136.602 48.0165 137.621 47.8204 138.544 48.2484C139.697 48.7656 139.755 48.9796 139.755 53.6877V57.9321H143.023H146.291V53.5093C146.272 48.8369 146.08 47.0535 145.369 45.5912C144.523 43.79 142.735 42.6129 140.313 42.2563C138.871 42.0244 135.987 42.0423 134.757 42.2563Z" fill="white"/>
<path d="M174.208 42.3302C171.363 42.9187 169.556 44.6485 168.652 47.5911C168.326 48.6789 168.306 49.7133 168.306 62.9281C168.306 75.9466 168.326 77.195 168.652 78.265C169.556 81.3859 171.19 83.0088 174.074 83.7221C175.342 84.0431 179.168 84.0431 180.475 83.7221C183.109 83.0623 184.685 81.4929 185.685 78.5325C186.127 77.195 186.242 50.6406 185.819 48.3579C185.262 45.3797 183.743 43.4715 181.263 42.6155C179.687 42.0805 176.073 41.9378 174.208 42.3302ZM177.938 48.1261C178.745 48.3936 179.168 49.0535 179.379 50.3196C179.61 51.8177 179.591 74.5021 179.36 75.8396C179.11 77.302 178.476 77.9084 177.226 77.9084C176.131 77.9084 175.419 77.4447 175.131 76.5173C174.977 76.0715 174.939 71.6487 174.977 62.5357L175.035 49.214L175.592 48.6789C176.073 48.1974 176.4 48.0548 177.169 47.9656C177.284 47.9656 177.63 48.0369 177.938 48.1261Z" fill="white"/>
<path d="M194.203 42.3302C191.358 42.9008 189.628 44.5772 188.647 47.6803C188.34 48.6433 188.301 50.0165 188.244 62.0364C188.205 70.9889 188.263 75.804 188.398 76.8027C188.936 80.6191 190.82 82.9196 194.069 83.7221C195.318 84.0431 199.163 84.0431 200.413 83.7221C203.219 83.0266 204.892 81.3146 205.718 78.265C205.93 77.4625 205.987 74.5913 205.987 62.8389C205.987 47.0026 206.026 47.6446 204.834 45.4511C204.353 44.5594 203.027 43.3288 202.047 42.8652C200.47 42.0983 196.625 41.8487 194.203 42.3302ZM198.125 48.2153C199.49 48.7503 199.451 48.2509 199.451 62.7497C199.451 69.8654 199.394 75.9645 199.298 76.3212C199.067 77.3377 198.336 77.9084 197.241 77.9084C196.126 77.9084 195.414 77.4447 195.126 76.5173C195.011 76.0893 194.934 71.2207 194.934 62.8746C194.934 49.1248 194.934 49.1783 195.818 48.4649C196.164 48.1796 196.625 48.0191 197.202 47.9656C197.337 47.9656 197.74 48.0726 198.125 48.2153Z" fill="white"/>
<path d="M0 62.9632V83.5254L6.19012 83.4362L12.3995 83.3471L13.4952 82.8477C14.8409 82.2414 15.9943 81.0465 16.5134 79.7803C17.2631 77.9256 17.3208 76.4633 17.2631 61.8575C17.1862 49.8554 17.1478 47.7332 16.8979 46.9663C16.1674 44.8263 15.0908 43.6493 13.1492 42.9359C12.0727 42.5436 11.7458 42.5257 6.0171 42.4544L0 42.3831V62.9632ZM9.03526 48.1255C9.47742 48.2325 9.84267 48.5 10.0926 48.8745C10.4578 49.4452 10.4771 49.8376 10.4771 62.66C10.4771 77.0339 10.4963 76.7664 9.40052 77.2836C9.09294 77.4441 8.32398 77.5511 7.59347 77.5511H6.34391V62.874C6.34391 54.7953 6.40158 48.1255 6.47848 48.072C6.67072 47.8937 8.26631 47.9294 9.03526 48.1255Z" fill="white"/>
<path d="M19.6074 62.9275V83.4362L27.2009 83.4719L34.7944 83.5254V80.458V77.3728L30.5266 77.3371L26.2397 77.2836L26.182 71.345L26.1436 65.4242H29.4116H32.6797V62.3033V59.1824H29.4116H26.1436V53.8323V48.4822H30.2767H34.4099V45.4505V42.4187H27.0086H19.6074V62.9275Z" fill="white"/>
<path d="M55.5571 62.9275V83.4184L58.8252 83.4719L62.0933 83.5254V62.9632V42.4187H58.8252H55.5571V62.9275Z" fill="white"/>
<path d="M84.2014 62.9288V83.4375H87.1427H90.0647L90.0263 71.8099C90.0071 64.4268 90.0647 60.2894 90.1801 60.5212C90.3339 60.8244 94.467 76.2505 95.5628 80.5841C95.7742 81.4223 96.0242 82.4031 96.1395 82.7598L96.3317 83.4375H99.0039H101.695V62.9288V42.42H98.7155H95.7358L95.6973 53.3342L95.6397 64.2485L94.2171 58.7378C93.4481 55.6883 92.41 51.6757 91.9487 49.821C91.4681 47.9485 90.8529 45.5409 90.5645 44.4709L90.0455 42.5092L87.1235 42.4557L84.2014 42.4022V62.9288Z" fill="white"/>
<path d="M148.407 62.9288V83.4375H151.675H154.943V74.4315V65.4255H157.154H159.364V74.4315V83.4375H162.632H165.901V62.9288V42.42H162.632H159.364V50.7127V59.0054H157.154H154.943V50.7127V42.42H151.675H148.407V62.9288Z" fill="white"/>
<path d="M208.39 62.9288V83.4375H215.695H223V80.3166V77.1957H218.963H214.926V59.8079V42.42H211.658H208.39V62.9288Z" fill="white"/>
</svg>
